<?xml version="1.0" encoding="utf-8"?>
<!-- Generator: Adobe Illustrator 27.9.6, SVG Export Plug-In . SVG Version: 9.03 Build 54986)  -->
<svg version="1.1" id="Capa_1" xmlns="http://www.w3.org/2000/svg" xmlns:xlink="http://www.w3.org/1999/xlink" x="0px" y="0px"
	 viewBox="0 0 595.28 841.89" style="enable-background:new 0 0 595.28 841.89;" xml:space="preserve">
<style type="text/css">
	.st0{fill:#FFFFFF;}
	.st1{fill:#1D1D1B;}
	.st2{fill:none;stroke:#FFFFFF;stroke-width:6;stroke-miterlimit:10;}
	.st3{fill:#1D1D1B;stroke:#FFFFFF;stroke-width:4;stroke-miterlimit:10;}
</style>
<g>
	<polygon class="st0" points="297.26,283.74 357.01,387.22 416.75,490.7 297.26,490.7 177.77,490.7 237.52,387.22 	"/>
	<circle class="st1" cx="297.26" cy="422.71" r="61"/>
	<circle class="st0" cx="297.26" cy="422.71" r="16.34"/>
	<polyline class="st2" points="149.71,443.37 175.66,429.08 208.85,438.7 	"/>
	<circle class="st3" cx="144.75" cy="445.06" r="6.01"/>
	<polyline class="st2" points="261.99,348.29 232.37,348.29 207.94,323.86 	"/>
	<circle class="st3" cx="205.36" cy="320.1" r="6.01"/>
	<polyline class="st2" points="332.3,348.29 361.92,348.29 386.36,323.86 	"/>
	<circle class="st3" cx="388.27" cy="320.1" r="6.01"/>
	<polyline class="st2" points="388.27,443.37 414.22,429.08 447.41,438.7 	"/>
	<circle class="st3" cx="451.25" cy="439.05" r="6.01"/>
	<polyline class="st2" points="360.83,486.67 351.27,514.71 366.51,545.72 	"/>
	<circle class="st3" cx="369.24" cy="549.25" r="6.01"/>
	<polyline class="st2" points="237.37,484.19 246.93,512.23 231.69,543.24 	"/>
	<circle class="st3" cx="230.25" cy="548.4" r="6.01"/>
</g>
</svg>
