<svg version="1.1" xmlns="http://www.w3.org/2000/svg" xmlns:xlink="http://www.w3.org/1999/xlink" width="844" height="500"><defs/><g><text fill="#eeeeee" stroke="none" font-family="Arial" font-size="24px" font-style="normal" font-weight="normal" text-decoration="none" x="0" y="0">UNREGISTERED</text><text fill="#eeeeee" stroke="none" font-family="Arial" font-size="24px" font-style="normal" font-weight="normal" text-decoration="none" x="0" y="30">UNREGISTERED</text><text fill="#eeeeee" stroke="none" font-family="Arial" font-size="24px" font-style="normal" font-weight="normal" text-decoration="none" x="0" y="60">UNREGISTERED</text><text fill="#eeeeee" stroke="none" font-family="Arial" font-size="24px" font-style="normal" font-weight="normal" text-decoration="none" x="0" y="90">UNREGISTERED</text><text fill="#eeeeee" stroke="none" font-family="Arial" font-size="24px" font-style="normal" font-weight="normal" text-decoration="none" x="0" y="120">UNREGISTERED</text><text fill="#eeeeee" stroke="none" font-family="Arial" font-size="24px" font-style="normal" font-weight="normal" text-decoration="none" x="0" y="150">UNREGISTERED</text><text fill="#eeeeee" stroke="none" font-family="Arial" font-size="24px" font-style="normal" font-weight="normal" text-decoration="none" x="0" y="180">UNREGISTERED</text><text fill="#eeeeee" stroke="none" font-family="Arial" font-size="24px" font-style="normal" font-weight="normal" text-decoration="none" x="0" y="210">UNREGISTERED</text><text fill="#eeeeee" stroke="none" font-family="Arial" font-size="24px" font-style="normal" font-weight="normal" text-decoration="none" x="0" y="240">UNREGISTERED</text><text fill="#eeeeee" stroke="none" font-family="Arial" font-size="24px" font-style="normal" font-weight="normal" text-decoration="none" x="0" y="270">UNREGISTERED</text><text fill="#eeeeee" stroke="none" font-family="Arial" font-size="24px" font-style="normal" font-weight="normal" text-decoration="none" x="0" y="300">UNREGISTERED</text><text fill="#eeeeee" stroke="none" font-family="Arial" font-size="24px" font-style="normal" font-weight="normal" text-decoration="none" x="0" y="330">UNREGISTERED</text><text fill="#eeeeee" stroke="none" font-family="Arial" font-size="24px" font-style="normal" font-weight="normal" text-decoration="none" x="0" y="360">UNREGISTERED</text><text fill="#eeeeee" stroke="none" font-family="Arial" font-size="24px" font-style="normal" font-weight="normal" text-decoration="none" x="0" y="390">UNREGISTERED</text><text fill="#eeeeee" stroke="none" font-family="Arial" font-size="24px" font-style="normal" font-weight="normal" text-decoration="none" x="0" y="420">UNREGISTERED</text><text fill="#eeeeee" stroke="none" font-family="Arial" font-size="24px" font-style="normal" font-weight="normal" text-decoration="none" x="0" y="450">UNREGISTERED</text><text fill="#eeeeee" stroke="none" font-family="Arial" font-size="24px" font-style="normal" font-weight="normal" text-decoration="none" x="0" y="480">UNREGISTERED</text><text fill="#eeeeee" stroke="none" font-family="Arial" font-size="24px" font-style="normal" font-weight="normal" text-decoration="none" x="200" y="0">UNREGISTERED</text><text fill="#eeeeee" stroke="none" font-family="Arial" font-size="24px" font-style="normal" font-weight="normal" text-decoration="none" x="200" y="30">UNREGISTERED</text><text fill="#eeeeee" stroke="none" font-family="Arial" font-size="24px" font-style="normal" font-weight="normal" text-decoration="none" x="200" y="60">UNREGISTERED</text><text fill="#eeeeee" stroke="none" font-family="Arial" font-size="24px" font-style="normal" font-weight="normal" text-decoration="none" x="200" y="90">UNREGISTERED</text><text fill="#eeeeee" stroke="none" font-family="Arial" font-size="24px" font-style="normal" font-weight="normal" text-decoration="none" x="200" y="120">UNREGISTERED</text><text fill="#eeeeee" stroke="none" font-family="Arial" font-size="24px" font-style="normal" font-weight="normal" text-decoration="none" x="200" y="150">UNREGISTERED</text><text fill="#eeeeee" stroke="none" font-family="Arial" font-size="24px" font-style="normal" font-weight="normal" text-decoration="none" x="200" y="180">UNREGISTERED</text><text fill="#eeeeee" stroke="none" font-family="Arial" font-size="24px" font-style="normal" font-weight="normal" text-decoration="none" x="200" y="210">UNREGISTERED</text><text fill="#eeeeee" stroke="none" font-family="Arial" font-size="24px" font-style="normal" font-weight="normal" text-decoration="none" x="200" y="240">UNREGISTERED</text><text fill="#eeeeee" stroke="none" font-family="Arial" font-size="24px" font-style="normal" font-weight="normal" text-decoration="none" x="200" y="270">UNREGISTERED</text><text fill="#eeeeee" stroke="none" font-family="Arial" font-size="24px" font-style="normal" font-weight="normal" text-decoration="none" x="200" y="300">UNREGISTERED</text><text fill="#eeeeee" stroke="none" font-family="Arial" font-size="24px" font-style="normal" font-weight="normal" text-decoration="none" x="200" y="330">UNREGISTERED</text><text fill="#eeeeee" stroke="none" font-family="Arial" font-size="24px" font-style="normal" font-weight="normal" text-decoration="none" x="200" y="360">UNREGISTERED</text><text fill="#eeeeee" stroke="none" font-family="Arial" font-size="24px" font-style="normal" font-weight="normal" text-decoration="none" x="200" y="390">UNREGISTERED</text><text fill="#eeeeee" stroke="none" font-family="Arial" font-size="24px" font-style="normal" font-weight="normal" text-decoration="none" x="200" y="420">UNREGISTERED</text><text fill="#eeeeee" stroke="none" font-family="Arial" font-size="24px" font-style="normal" font-weight="normal" text-decoration="none" x="200" y="450">UNREGISTERED</text><text fill="#eeeeee" stroke="none" font-family="Arial" font-size="24px" font-style="normal" font-weight="normal" text-decoration="none" x="200" y="480">UNREGISTERED</text><text fill="#eeeeee" stroke="none" font-family="Arial" font-size="24px" font-style="normal" font-weight="normal" text-decoration="none" x="400" y="0">UNREGISTERED</text><text fill="#eeeeee" stroke="none" font-family="Arial" font-size="24px" font-style="normal" font-weight="normal" text-decoration="none" x="400" y="30">UNREGISTERED</text><text fill="#eeeeee" stroke="none" font-family="Arial" font-size="24px" font-style="normal" font-weight="normal" text-decoration="none" x="400" y="60">UNREGISTERED</text><text fill="#eeeeee" stroke="none" font-family="Arial" font-size="24px" font-style="normal" font-weight="normal" text-decoration="none" x="400" y="90">UNREGISTERED</text><text fill="#eeeeee" stroke="none" font-family="Arial" font-size="24px" font-style="normal" font-weight="normal" text-decoration="none" x="400" y="120">UNREGISTERED</text><text fill="#eeeeee" stroke="none" font-family="Arial" font-size="24px" font-style="normal" font-weight="normal" text-decoration="none" x="400" y="150">UNREGISTERED</text><text fill="#eeeeee" stroke="none" font-family="Arial" font-size="24px" font-style="normal" font-weight="normal" text-decoration="none" x="400" y="180">UNREGISTERED</text><text fill="#eeeeee" stroke="none" font-family="Arial" font-size="24px" font-style="normal" font-weight="normal" text-decoration="none" x="400" y="210">UNREGISTERED</text><text fill="#eeeeee" stroke="none" font-family="Arial" font-size="24px" font-style="normal" font-weight="normal" text-decoration="none" x="400" y="240">UNREGISTERED</text><text fill="#eeeeee" stroke="none" font-family="Arial" font-size="24px" font-style="normal" font-weight="normal" text-decoration="none" x="400" y="270">UNREGISTERED</text><text fill="#eeeeee" stroke="none" font-family="Arial" font-size="24px" font-style="normal" font-weight="normal" text-decoration="none" x="400" y="300">UNREGISTERED</text><text fill="#eeeeee" stroke="none" font-family="Arial" font-size="24px" font-style="normal" font-weight="normal" text-decoration="none" x="400" y="330">UNREGISTERED</text><text fill="#eeeeee" stroke="none" font-family="Arial" font-size="24px" font-style="normal" font-weight="normal" text-decoration="none" x="400" y="360">UNREGISTERED</text><text fill="#eeeeee" stroke="none" font-family="Arial" font-size="24px" font-style="normal" font-weight="normal" text-decoration="none" x="400" y="390">UNREGISTERED</text><text fill="#eeeeee" stroke="none" font-family="Arial" font-size="24px" font-style="normal" font-weight="normal" text-decoration="none" x="400" y="420">UNREGISTERED</text><text fill="#eeeeee" stroke="none" font-family="Arial" font-size="24px" font-style="normal" font-weight="normal" text-decoration="none" x="400" y="450">UNREGISTERED</text><text fill="#eeeeee" stroke="none" font-family="Arial" font-size="24px" font-style="normal" font-weight="normal" text-decoration="none" x="400" y="480">UNREGISTERED</text><text fill="#eeeeee" stroke="none" font-family="Arial" font-size="24px" font-style="normal" font-weight="normal" text-decoration="none" x="600" y="0">UNREGISTERED</text><text fill="#eeeeee" stroke="none" font-family="Arial" font-size="24px" font-style="normal" font-weight="normal" text-decoration="none" x="600" y="30">UNREGISTERED</text><text fill="#eeeeee" stroke="none" font-family="Arial" font-size="24px" font-style="normal" font-weight="normal" text-decoration="none" x="600" y="60">UNREGISTERED</text><text fill="#eeeeee" stroke="none" font-family="Arial" font-size="24px" font-style="normal" font-weight="normal" text-decoration="none" x="600" y="90">UNREGISTERED</text><text fill="#eeeeee" stroke="none" font-family="Arial" font-size="24px" font-style="normal" font-weight="normal" text-decoration="none" x="600" y="120">UNREGISTERED</text><text fill="#eeeeee" stroke="none" font-family="Arial" font-size="24px" font-style="normal" font-weight="normal" text-decoration="none" x="600" y="150">UNREGISTERED</text><text fill="#eeeeee" stroke="none" font-family="Arial" font-size="24px" font-style="normal" font-weight="normal" text-decoration="none" x="600" y="180">UNREGISTERED</text><text fill="#eeeeee" stroke="none" font-family="Arial" font-size="24px" font-style="normal" font-weight="normal" text-decoration="none" x="600" y="210">UNREGISTERED</text><text fill="#eeeeee" stroke="none" font-family="Arial" font-size="24px" font-style="normal" font-weight="normal" text-decoration="none" x="600" y="240">UNREGISTERED</text><text fill="#eeeeee" stroke="none" font-family="Arial" font-size="24px" font-style="normal" font-weight="normal" text-decoration="none" x="600" y="270">UNREGISTERED</text><text fill="#eeeeee" stroke="none" font-family="Arial" font-size="24px" font-style="normal" font-weight="normal" text-decoration="none" x="600" y="300">UNREGISTERED</text><text fill="#eeeeee" stroke="none" font-family="Arial" font-size="24px" font-style="normal" font-weight="normal" text-decoration="none" x="600" y="330">UNREGISTERED</text><text fill="#eeeeee" stroke="none" font-family="Arial" font-size="24px" font-style="normal" font-weight="normal" text-decoration="none" x="600" y="360">UNREGISTERED</text><text fill="#eeeeee" stroke="none" font-family="Arial" font-size="24px" font-style="normal" font-weight="normal" text-decoration="none" x="600" y="390">UNREGISTERED</text><text fill="#eeeeee" stroke="none" font-family="Arial" font-size="24px" font-style="normal" font-weight="normal" text-decoration="none" x="600" y="420">UNREGISTERED</text><text fill="#eeeeee" stroke="none" font-family="Arial" font-size="24px" font-style="normal" font-weight="normal" text-decoration="none" x="600" y="450">UNREGISTERED</text><text fill="#eeeeee" stroke="none" font-family="Arial" font-size="24px" font-style="normal" font-weight="normal" text-decoration="none" x="600" y="480">UNREGISTERED</text><text fill="#eeeeee" stroke="none" font-family="Arial" font-size="24px" font-style="normal" font-weight="normal" text-decoration="none" x="800" y="0">UNREGISTERED</text><text fill="#eeeeee" stroke="none" font-family="Arial" font-size="24px" font-style="normal" font-weight="normal" text-decoration="none" x="800" y="30">UNREGISTERED</text><text fill="#eeeeee" stroke="none" font-family="Arial" font-size="24px" font-style="normal" font-weight="normal" text-decoration="none" x="800" y="60">UNREGISTERED</text><text fill="#eeeeee" stroke="none" font-family="Arial" font-size="24px" font-style="normal" font-weight="normal" text-decoration="none" x="800" y="90">UNREGISTERED</text><text fill="#eeeeee" stroke="none" font-family="Arial" font-size="24px" font-style="normal" font-weight="normal" text-decoration="none" x="800" y="120">UNREGISTERED</text><text fill="#eeeeee" stroke="none" font-family="Arial" font-size="24px" font-style="normal" font-weight="normal" text-decoration="none" x="800" y="150">UNREGISTERED</text><text fill="#eeeeee" stroke="none" font-family="Arial" font-size="24px" font-style="normal" font-weight="normal" text-decoration="none" x="800" y="180">UNREGISTERED</text><text fill="#eeeeee" stroke="none" font-family="Arial" font-size="24px" font-style="normal" font-weight="normal" text-decoration="none" x="800" y="210">UNREGISTERED</text><text fill="#eeeeee" stroke="none" font-family="Arial" font-size="24px" font-style="normal" font-weight="normal" text-decoration="none" x="800" y="240">UNREGISTERED</text><text fill="#eeeeee" stroke="none" font-family="Arial" font-size="24px" font-style="normal" font-weight="normal" text-decoration="none" x="800" y="270">UNREGISTERED</text><text fill="#eeeeee" stroke="none" font-family="Arial" font-size="24px" font-style="normal" font-weight="normal" text-decoration="none" x="800" y="300">UNREGISTERED</text><text fill="#eeeeee" stroke="none" font-family="Arial" font-size="24px" font-style="normal" font-weight="normal" text-decoration="none" x="800" y="330">UNREGISTERED</text><text fill="#eeeeee" stroke="none" font-family="Arial" font-size="24px" font-style="normal" font-weight="normal" text-decoration="none" x="800" y="360">UNREGISTERED</text><text fill="#eeeeee" stroke="none" font-family="Arial" font-size="24px" font-style="normal" font-weight="normal" text-decoration="none" x="800" y="390">UNREGISTERED</text><text fill="#eeeeee" stroke="none" font-family="Arial" font-size="24px" font-style="normal" font-weight="normal" text-decoration="none" x="800" y="420">UNREGISTERED</text><text fill="#eeeeee" stroke="none" font-family="Arial" font-size="24px" font-style="normal" font-weight="normal" text-decoration="none" x="800" y="450">UNREGISTERED</text><text fill="#eeeeee" stroke="none" font-family="Arial" font-size="24px" font-style="normal" font-weight="normal" text-decoration="none" x="800" y="480">UNREGISTERED</text><g transform="translate(-246,-110) scale(1,1)"><rect fill="#C0C0C0" stroke="none" x="407" y="127" width="680" height="480" opacity="0.2"/></g><g transform="translate(-246,-110) scale(1,1)"><rect fill="#ffffff" stroke="none" x="400" y="120" width="680" height="480"/></g><g transform="translate(-246,-110) scale(1,1)"><path fill="none" stroke="#000000" d="M 400 120 L 1080 120 L 1080 600 L 400 600 L 400 120 Z Z" stroke-miterlimit="10"/></g><g transform="translate(-246,-110) scale(1,1)"><g><path fill="none" stroke="none"/><text fill="#000000" stroke="none" font-family="Arial" font-size="13px" font-style="normal" font-weight="bold" text-decoration="none" x="716.87548828125" y="138">System</text></g></g><g transform="translate(-246,-110) scale(1,1)"><path fill="#ffffff" stroke="none" d="M 288.30070774147725 305.68 C 288.30070774147725 300.886167936 292.18655006642274 297 296.97998046875 297 C 301.77341087107726 297 305.65925319602275 300.886167936 305.65925319602275 305.68 C 305.65925319602275 310.473832064 301.77341087107726 314.36 296.97998046875 314.36 C 292.18655006642274 314.36 288.30070774147725 310.473832064 288.30070774147725 305.68 Z"/></g><g transform="translate(-246,-110) scale(1,1)"><path fill="none" stroke="#000000" d="M 288.30070774147725 305.68 C 288.30070774147725 300.886167936 292.18655006642274 297 296.97998046875 297 C 301.77341087107726 297 305.65925319602275 300.886167936 305.65925319602275 305.68 C 305.65925319602275 310.473832064 301.77341087107726 314.36 296.97998046875 314.36 C 292.18655006642274 314.36 288.30070774147725 310.473832064 288.30070774147725 305.68 Z" stroke-miterlimit="10"/></g><g transform="translate(-246,-110) scale(1,1)"><path fill="none" stroke="#000000" d="M 296.97998046875 314.36 L 296.97998046875 331.64" stroke-miterlimit="10"/></g><g transform="translate(-246,-110) scale(1,1)"><path fill="none" stroke="#000000" d="M 287.79016228693183 320.84 L 306.16979865056817 320.84" stroke-miterlimit="10"/></g><g transform="translate(-246,-110) scale(1,1)"><path fill="none" stroke="#000000" d="M 296.97998046875 331.64 L 284.21634410511365 349" stroke-miterlimit="10"/></g><g transform="translate(-246,-110) scale(1,1)"><path fill="none" stroke="#000000" d="M 296.97998046875 331.64 L 309.74361683238635 349" stroke-miterlimit="10"/></g><g transform="translate(-246,-110) scale(1,1)"><g><path fill="none" stroke="none"/><text fill="#000000" stroke="none" font-family="Arial" font-size="13px" font-style="normal" font-weight="bold" text-decoration="none" x="260.5" y="368">Admin User</text></g></g><g transform="translate(-246,-110) scale(1,1)"><path fill="#C0C0C0" stroke="none" d="M 551 338.5 C 551 318.8938896 591.9659408 303 642.5 303 C 693.0340592 303 734 318.8938896 734 338.5 C 734 358.1061104 693.0340592 374 642.5 374 C 591.9659408 374 551 358.1061104 551 338.5 Z" opacity="0.2"/></g><g transform="translate(-246,-110) scale(1,1)"><path fill="#ffffff" stroke="none" d="M 544 331.5 C 544 311.8938896 584.9659408 296 635.5 296 C 686.0340592 296 727 311.8938896 727 331.5 C 727 351.1061104 686.0340592 367 635.5 367 C 584.9659408 367 544 351.1061104 544 331.5 Z"/></g><g transform="translate(-246,-110) scale(1,1)"><path fill="none" stroke="#000000" d="M 544 331.5 C 544 311.8938896 584.9659408 296 635.5 296 C 686.0340592 296 727 311.8938896 727 331.5 C 727 351.1061104 686.0340592 367 635.5 367 C 584.9659408 367 544 351.1061104 544 331.5 Z" stroke-miterlimit="10"/></g><g transform="translate(-246,-110) scale(1,1)"><g><path fill="none" stroke="none"/><text fill="#000000" stroke="none" font-family="Arial" font-size="13px" font-style="normal" font-weight="bold" text-decoration="none" x="579.8818359375" y="324">Show Admin User</text><text fill="#000000" stroke="none" font-family="Arial" font-size="13px" font-style="normal" font-weight="bold" text-decoration="none" x="584.207763671875" y="337">Dashboard Page</text><text fill="#000000" stroke="none" font-family="Arial" font-size="13px" font-style="normal" font-weight="bold" text-decoration="none" x="612.38818359375" y="350">[UH-25]</text></g></g><g transform="translate(-246,-110) scale(1,1)"><path fill="#C0C0C0" stroke="none" d="M 447 450.5 C 447 430.8938896 497.1441024 415 559 415 C 620.8558976 415 671 430.8938896 671 450.5 C 671 470.1061104 620.8558976 486 559 486 C 497.1441024 486 447 470.1061104 447 450.5 Z" opacity="0.2"/></g><g transform="translate(-246,-110) scale(1,1)"><path fill="#ffffff" stroke="none" d="M 440 443.5 C 440 423.8938896 490.1441024 408 552 408 C 613.8558976 408 664 423.8938896 664 443.5 C 664 463.1061104 613.8558976 479 552 479 C 490.1441024 479 440 463.1061104 440 443.5 Z"/></g><g transform="translate(-246,-110) scale(1,1)"><path fill="none" stroke="#000000" d="M 440 443.5 C 440 423.8938896 490.1441024 408 552 408 C 613.8558976 408 664 423.8938896 664 443.5 C 664 463.1061104 613.8558976 479 552 479 C 490.1441024 479 440 463.1061104 440 443.5 Z" stroke-miterlimit="10"/></g><g transform="translate(-246,-110) scale(1,1)"><g><path fill="none" stroke="none"/><text fill="#000000" stroke="none" font-family="Arial" font-size="13px" font-style="normal" font-weight="bold" text-decoration="none" x="500.345947265625" y="436">Access to all not</text><text fill="#000000" stroke="none" font-family="Arial" font-size="13px" font-style="normal" font-weight="bold" text-decoration="none" x="491.671875" y="449">banned Users Page</text><text fill="#000000" stroke="none" font-family="Arial" font-size="13px" font-style="normal" font-weight="bold" text-decoration="none" x="528.88818359375" y="462">[UH-26]</text></g></g><g transform="translate(-246,-110) scale(1,1)"><path fill="#C0C0C0" stroke="none" d="M 479 553 C 479 538.6405952 513.0263552 527 555 527 C 596.9736448 527 631 538.6405952 631 553 C 631 567.3594048 596.9736448 579 555 579 C 513.0263552 579 479 567.3594048 479 553 Z" opacity="0.2"/></g><g transform="translate(-246,-110) scale(1,1)"><path fill="#ffffff" stroke="none" d="M 472 546 C 472 531.6405952 506.0263552 520 548 520 C 589.9736448 520 624 531.6405952 624 546 C 624 560.3594048 589.9736448 572 548 572 C 506.0263552 572 472 560.3594048 472 546 Z"/></g><g transform="translate(-246,-110) scale(1,1)"><path fill="none" stroke="#000000" d="M 472 546 C 472 531.6405952 506.0263552 520 548 520 C 589.9736448 520 624 531.6405952 624 546 C 624 560.3594048 589.9736448 572 548 572 C 506.0263552 572 472 560.3594048 472 546 Z" stroke-miterlimit="10"/></g><g transform="translate(-246,-110) scale(1,1)"><g><path fill="none" stroke="none"/><text fill="#000000" stroke="none" font-family="Arial" font-size="13px" font-style="normal" font-weight="bold" text-decoration="none" x="510.069580078125" y="545">Ban an User</text><text fill="#000000" stroke="none" font-family="Arial" font-size="13px" font-style="normal" font-weight="bold" text-decoration="none" x="524.88818359375" y="558">[UH-27]</text></g></g><g transform="translate(-246,-110) scale(1,1)"><path fill="#C0C0C0" stroke="none" d="M 703 450.5 C 703 430.8938896 745.9806592 415 799 415 C 852.0193408 415 895 430.8938896 895 450.5 C 895 470.1061104 852.0193408 486 799 486 C 745.9806592 486 703 470.1061104 703 450.5 Z" opacity="0.2"/></g><g transform="translate(-246,-110) scale(1,1)"><path fill="#ffffff" stroke="none" d="M 696 443.5 C 696 423.8938896 738.9806592 408 792 408 C 845.0193408 408 888 423.8938896 888 443.5 C 888 463.1061104 845.0193408 479 792 479 C 738.9806592 479 696 463.1061104 696 443.5 Z"/></g><g transform="translate(-246,-110) scale(1,1)"><path fill="none" stroke="#000000" d="M 696 443.5 C 696 423.8938896 738.9806592 408 792 408 C 845.0193408 408 888 423.8938896 888 443.5 C 888 463.1061104 845.0193408 479 792 479 C 738.9806592 479 696 463.1061104 696 443.5 Z" stroke-miterlimit="10"/></g><g transform="translate(-246,-110) scale(1,1)"><g><path fill="none" stroke="none"/><text fill="#000000" stroke="none" font-family="Arial" font-size="13px" font-style="normal" font-weight="bold" text-decoration="none" x="752.25732421875" y="436">Access to all</text><text fill="#000000" stroke="none" font-family="Arial" font-size="13px" font-style="normal" font-weight="bold" text-decoration="none" x="731.671875" y="449">banned Users Page</text><text fill="#000000" stroke="none" font-family="Arial" font-size="13px" font-style="normal" font-weight="bold" text-decoration="none" x="768.88818359375" y="462">[UH-28]</text></g></g><g transform="translate(-246,-110) scale(1,1)"><path fill="#C0C0C0" stroke="none" d="M 727 553 C 727 538.6405952 762.817216 527 807 527 C 851.182784 527 887 538.6405952 887 553 C 887 567.3594048 851.182784 579 807 579 C 762.817216 579 727 567.3594048 727 553 Z" opacity="0.2"/></g><g transform="translate(-246,-110) scale(1,1)"><path fill="#ffffff" stroke="none" d="M 720 546 C 720 531.6405952 755.817216 520 800 520 C 844.182784 520 880 531.6405952 880 546 C 880 560.3594048 844.182784 572 800 572 C 755.817216 572 720 560.3594048 720 546 Z"/></g><g transform="translate(-246,-110) scale(1,1)"><path fill="none" stroke="#000000" d="M 720 546 C 720 531.6405952 755.817216 520 800 520 C 844.182784 520 880 531.6405952 880 546 C 880 560.3594048 844.182784 572 800 572 C 755.817216 572 720 560.3594048 720 546 Z" stroke-miterlimit="10"/></g><g transform="translate(-246,-110) scale(1,1)"><g><path fill="none" stroke="none"/><text fill="#000000" stroke="none" font-family="Arial" font-size="13px" font-style="normal" font-weight="bold" text-decoration="none" x="754.128662109375" y="545">Unban an User</text><text fill="#000000" stroke="none" font-family="Arial" font-size="13px" font-style="normal" font-weight="bold" text-decoration="none" x="776.88818359375" y="558">[UH-29]</text></g></g><g transform="translate(-246,-110) scale(1,1)"><path fill="#C0C0C0" stroke="none" d="M 799 218.5 C 799 198.8938896 840.6375136 183 892 183 C 943.3624864 183 985 198.8938896 985 218.5 C 985 238.1061104 943.3624864 254 892 254 C 840.6375136 254 799 238.1061104 799 218.5 Z" opacity="0.2"/></g><g transform="translate(-246,-110) scale(1,1)"><path fill="#ffffff" stroke="none" d="M 792 211.5 C 792 191.8938896 833.6375136 176 885 176 C 936.3624864 176 978 191.8938896 978 211.5 C 978 231.1061104 936.3624864 247 885 247 C 833.6375136 247 792 231.1061104 792 211.5 Z"/></g><g transform="translate(-246,-110) scale(1,1)"><path fill="none" stroke="#000000" d="M 792 211.5 C 792 191.8938896 833.6375136 176 885 176 C 936.3624864 176 978 191.8938896 978 211.5 C 978 231.1061104 936.3624864 247 885 247 C 833.6375136 247 792 231.1061104 792 211.5 Z" stroke-miterlimit="10"/></g><g transform="translate(-246,-110) scale(1,1)"><g><path fill="none" stroke="none"/><text fill="#000000" stroke="none" font-family="Arial" font-size="13px" font-style="normal" font-weight="bold" text-decoration="none" x="825.40185546875" y="204">Access to IA Model</text><text fill="#000000" stroke="none" font-family="Arial" font-size="13px" font-style="normal" font-weight="bold" text-decoration="none" x="825.055908203125" y="217">Configuration Page</text><text fill="#000000" stroke="none" font-family="Arial" font-size="13px" font-style="normal" font-weight="bold" text-decoration="none" x="861.88818359375" y="230">[UH-30]</text></g></g><g transform="translate(-246,-110) scale(1,1)"><path fill="#C0C0C0" stroke="none" d="M 439 218.5 C 439 198.8938896 473.0263552 183 515 183 C 556.9736448 183 591 198.8938896 591 218.5 C 591 238.1061104 556.9736448 254 515 254 C 473.0263552 254 439 238.1061104 439 218.5 Z" opacity="0.2"/></g><g transform="translate(-246,-110) scale(1,1)"><path fill="#ffffff" stroke="none" d="M 432 211.5 C 432 191.8938896 466.0263552 176 508 176 C 549.9736448 176 584 191.8938896 584 211.5 C 584 231.1061104 549.9736448 247 508 247 C 466.0263552 247 432 231.1061104 432 211.5 Z"/></g><g transform="translate(-246,-110) scale(1,1)"><path fill="none" stroke="#000000" d="M 432 211.5 C 432 191.8938896 466.0263552 176 508 176 C 549.9736448 176 584 191.8938896 584 211.5 C 584 231.1061104 549.9736448 247 508 247 C 466.0263552 247 432 231.1061104 432 211.5 Z" stroke-miterlimit="10"/></g><g transform="translate(-246,-110) scale(1,1)"><g><path fill="none" stroke="none"/><text fill="#000000" stroke="none" font-family="Arial" font-size="13px" font-style="normal" font-weight="bold" text-decoration="none" x="460.319580078125" y="204">See application</text><text fill="#000000" stroke="none" font-family="Arial" font-size="13px" font-style="normal" font-weight="bold" text-decoration="none" x="459.9482421875" y="217">general metrics</text><text fill="#000000" stroke="none" font-family="Arial" font-size="13px" font-style="normal" font-weight="bold" text-decoration="none" x="484.88818359375" y="230">[UH-31]</text></g></g><g transform="translate(-246,-110) scale(1,1)"><path fill="#C0C0C0" stroke="none" d="M 823 330.5 C 823 310.8938896 872.9202448 295 934.5 295 C 996.0797552 295 1046 310.8938896 1046 330.5 C 1046 350.1061104 996.0797552 366 934.5 366 C 872.9202448 366 823 350.1061104 823 330.5 Z" opacity="0.2"/></g><g transform="translate(-246,-110) scale(1,1)"><path fill="#ffffff" stroke="none" d="M 816 323.5 C 816 303.8938896 865.9202448 288 927.5 288 C 989.0797552 288 1039 303.8938896 1039 323.5 C 1039 343.1061104 989.0797552 359 927.5 359 C 865.9202448 359 816 343.1061104 816 323.5 Z"/></g><g transform="translate(-246,-110) scale(1,1)"><path fill="none" stroke="#000000" d="M 816 323.5 C 816 303.8938896 865.9202448 288 927.5 288 C 989.0797552 288 1039 303.8938896 1039 323.5 C 1039 343.1061104 989.0797552 359 927.5 359 C 865.9202448 359 816 343.1061104 816 323.5 Z" stroke-miterlimit="10"/></g><g transform="translate(-246,-110) scale(1,1)"><g><path fill="none" stroke="none"/><text fill="#000000" stroke="none" font-family="Arial" font-size="13px" font-style="normal" font-weight="bold" text-decoration="none" x="880.530517578125" y="316">Access to User</text><text fill="#000000" stroke="none" font-family="Arial" font-size="13px" font-style="normal" font-weight="bold" text-decoration="none" x="875.484130859375" y="329">DashBoard Page</text><text fill="#000000" stroke="none" font-family="Arial" font-size="13px" font-style="normal" font-weight="bold" text-decoration="none" x="902.947265625" y="342">[UH-XX]</text></g></g><g transform="translate(-246,-110) scale(1,1)"><path fill="none" stroke="#000000" d="M 338 334 L 544 334" stroke-miterlimit="10"/></g><g transform="translate(-246,-110) scale(1,1)"><path fill="none" stroke="#000000" d="M 597 295 L 547 248" stroke-miterlimit="10" stroke-dasharray="3"/></g><g transform="translate(-246,-110) scale(1,1)"><path fill="none" stroke="#000000" d="M 557.2879469345012 251.89334661607302 L 547 248 L 551.5216652481382 258.0276888356081" stroke-miterlimit="10"/></g><g transform="translate(-246,-110) scale(1,1)"><g><path fill="none" stroke="none"/><text fill="#000000" stroke="none" font-family="Arial" font-size="13px" font-style="normal" font-weight="normal" text-decoration="none" x="513.5" y="290">«include»</text></g></g><g transform="translate(-246,-110) scale(1,1)"><path fill="none" stroke="#000000" d="M 728 328 L 815 326" stroke-miterlimit="10" stroke-dasharray="3"/></g><g transform="translate(-246,-110) scale(1,1)"><path fill="none" stroke="#000000" d="M 804.9367543830172 330.4419688936638 L 815 326 L 804.7432644569564 322.025157110015" stroke-miterlimit="10"/></g><g transform="translate(-246,-110) scale(1,1)"><g><path fill="none" stroke="none"/><text fill="#000000" stroke="none" font-family="Arial" font-size="13px" font-style="normal" font-weight="normal" text-decoration="none" x="743.5" y="319">«extend»</text></g></g><g transform="translate(-246,-110) scale(1,1)"><path fill="none" stroke="#000000" d="M 808 248 L 710 295" stroke-miterlimit="10" stroke-dasharray="3"/></g><g transform="translate(-246,-110) scale(1,1)"><path fill="none" stroke="#000000" d="M 717.3430144021359 286.80975339260016 L 710 295 L 720.9836741937834 294.40091636241823" stroke-miterlimit="10"/></g><g transform="translate(-246,-110) scale(1,1)"><g><path fill="none" stroke="none"/><text fill="#000000" stroke="none" font-family="Arial" font-size="13px" font-style="normal" font-weight="normal" text-decoration="none" x="765.5" y="275">«extend»</text></g></g><g transform="translate(-246,-110) scale(1,1)"><path fill="none" stroke="#000000" d="M 579 407 L 608 368" stroke-miterlimit="10" stroke-dasharray="3"/></g><g transform="translate(-246,-110) scale(1,1)"><path fill="none" stroke="#000000" d="M 605.3138832717423 378.6669947465148 L 608 368 L 598.5579243262484 373.6433329665322" stroke-miterlimit="10"/></g><g transform="translate(-246,-110) scale(1,1)"><g><path fill="none" stroke="none"/><text fill="#000000" stroke="none" font-family="Arial" font-size="13px" font-style="normal" font-weight="normal" text-decoration="none" x="530.5" y="391">«extend»</text></g></g><g transform="translate(-246,-110) scale(1,1)"><path fill="none" stroke="#000000" d="M 549 519 L 551 480" stroke-miterlimit="10" stroke-dasharray="3"/></g><g transform="translate(-246,-110) scale(1,1)"><path fill="none" stroke="#000000" d="M 554.6835145799017 490.3649274160339 L 551 480 L 546.2755276756641 489.93374860043195" stroke-miterlimit="10"/></g><g transform="translate(-246,-110) scale(1,1)"><g><path fill="none" stroke="none"/><text fill="#000000" stroke="none" font-family="Arial" font-size="13px" font-style="normal" font-weight="normal" text-decoration="none" x="493.5" y="502">«extend»</text></g></g><g transform="translate(-246,-110) scale(1,1)"><path fill="none" stroke="#000000" d="M 798 519 L 795 480" stroke-miterlimit="10" stroke-dasharray="3"/></g><g transform="translate(-246,-110) scale(1,1)"><path fill="none" stroke="#000000" d="M 799.976560141318 489.80988527760877 L 795 480 L 791.5823230204494 490.4555958253679" stroke-miterlimit="10"/></g><g transform="translate(-246,-110) scale(1,1)"><g><path fill="none" stroke="none"/><text fill="#000000" stroke="none" font-family="Arial" font-size="13px" font-style="normal" font-weight="normal" text-decoration="none" x="739.5" y="505">«extend»</text></g></g><g transform="translate(-246,-110) scale(1,1)"><path fill="none" stroke="#000000" d="M 742 407 L 687 368" stroke-miterlimit="10" stroke-dasharray="3"/></g><g transform="translate(-246,-110) scale(1,1)"><path fill="none" stroke="#000000" d="M 697.7249343513363 370.4445415029259 L 687 368 L 692.8551219339995 377.3122256812213" stroke-miterlimit="10"/></g><g transform="translate(-246,-110) scale(1,1)"><g><path fill="none" stroke="none"/><text fill="#000000" stroke="none" font-family="Arial" font-size="13px" font-style="normal" font-weight="normal" text-decoration="none" x="726.5" y="386">«extend»</text></g></g><g transform="translate(-246,-110) scale(1,1)"><path fill="#C0C0C0" stroke="none" d="M 615 210.5 C 615 190.8938896 649.2502128 175 691.5 175 C 733.7497872 175 768 190.8938896 768 210.5 C 768 230.1061104 733.7497872 246 691.5 246 C 649.2502128 246 615 230.1061104 615 210.5 Z" opacity="0.2"/></g><g transform="translate(-246,-110) scale(1,1)"><path fill="#ffffff" stroke="none" d="M 608 203.5 C 608 183.8938896 642.2502128 168 684.5 168 C 726.7497872 168 761 183.8938896 761 203.5 C 761 223.1061104 726.7497872 239 684.5 239 C 642.2502128 239 608 223.1061104 608 203.5 Z"/></g><g transform="translate(-246,-110) scale(1,1)"><path fill="none" stroke="#000000" d="M 608 203.5 C 608 183.8938896 642.2502128 168 684.5 168 C 726.7497872 168 761 183.8938896 761 203.5 C 761 223.1061104 726.7497872 239 684.5 239 C 642.2502128 239 608 223.1061104 608 203.5 Z" stroke-miterlimit="10"/></g><g transform="translate(-246,-110) scale(1,1)"><g><path fill="none" stroke="none"/><text fill="#000000" stroke="none" font-family="Arial" font-size="13px" font-style="normal" font-weight="bold" text-decoration="none" x="653.7900390625" y="196">Access to</text><text fill="#000000" stroke="none" font-family="Arial" font-size="13px" font-style="normal" font-weight="bold" text-decoration="none" x="646.931396484375" y="209">Profile Page</text><text fill="#000000" stroke="none" font-family="Arial" font-size="13px" font-style="normal" font-weight="bold" text-decoration="none" x="662.11181640625" y="222">[RF-15]</text></g></g><g transform="translate(-246,-110) scale(1,1)"><path fill="none" stroke="#000000" d="M 670 240 L 649 295" stroke-miterlimit="10" stroke-dasharray="3"/></g><g transform="translate(-246,-110) scale(1,1)"><path fill="none" stroke="#000000" d="M 648.692433148106 284.00430072111754 L 649 295 L 656.5576509173434 287.0073838693718" stroke-miterlimit="10"/></g><g transform="translate(-246,-110) scale(1,1)"><g><path fill="none" stroke="none"/><text fill="#000000" stroke="none" font-family="Arial" font-size="13px" font-style="normal" font-weight="normal" text-decoration="none" x="615.5" y="258">«extend»</text></g></g></g></svg>