<svg xmlns="http://www.w3.org/2000/svg" xmlns:xlink="http://www.w3.org/1999/xlink" version="1.1" width="964" height="548"><defs/><g><g transform="translate(-110,-86) scale(1,1)"><rect fill="#C0C0C0" stroke="none" x="127" y="103" width="944" height="528" opacity="0.2"/></g><g transform="translate(-110,-86) scale(1,1)"><rect fill="#ffffff" stroke="none" x="120" y="96" width="944" height="528"/></g><g transform="translate(-110,-86) scale(1,1)"><path fill="none" stroke="#000000" d="M 120 96 L 1064 96 L 1064 624 L 120 624 L 120 96 Z Z" stroke-miterlimit="10"/></g><g transform="translate(-110,-86) scale(1,1)"><g><path fill="none" stroke="none"/><text fill="#000000" stroke="none" font-family="Arial" font-size="13px" font-style="normal" font-weight="bold" text-decoration="none" x="592" y="109"/></g></g><g transform="translate(-110,-86) scale(1,1)"><rect fill="#C0C0C0" stroke="none" x="295" y="127" width="712" height="480" opacity="0.2"/></g><g transform="translate(-110,-86) scale(1,1)"><rect fill="#ffffd8" stroke="none" x="288" y="120" width="712" height="480"/></g><g transform="translate(-110,-86) scale(1,1)"><path fill="none" stroke="#000000" d="M 288 120 L 1000 120 L 1000 600 L 288 600 L 288 120 Z Z" stroke-miterlimit="10"/></g><g transform="translate(-110,-86) scale(1,1)"><g><path fill="none" stroke="none"/><text fill="#000000" stroke="none" font-family="Arial" font-size="13px" font-style="normal" font-weight="bold" text-decoration="none" x="620.87548828125" y="138">System</text></g></g><g transform="translate(-110,-86) scale(1,1)"><path fill="#ffffff" stroke="none" d="M 184.30070774147728 321.68 C 184.30070774147728 316.886167936 188.18655006642274 313 192.97998046875 313 C 197.77341087107726 313 201.65925319602272 316.886167936 201.65925319602272 321.68 C 201.65925319602272 326.473832064 197.77341087107726 330.36 192.97998046875 330.36 C 188.18655006642274 330.36 184.30070774147728 326.473832064 184.30070774147728 321.68 Z"/></g><g transform="translate(-110,-86) scale(1,1)"><path fill="none" stroke="#000000" d="M 184.30070774147728 321.68 C 184.30070774147728 316.886167936 188.18655006642274 313 192.97998046875 313 C 197.77341087107726 313 201.65925319602272 316.886167936 201.65925319602272 321.68 C 201.65925319602272 326.473832064 197.77341087107726 330.36 192.97998046875 330.36 C 188.18655006642274 330.36 184.30070774147728 326.473832064 184.30070774147728 321.68 Z" stroke-miterlimit="10"/></g><g transform="translate(-110,-86) scale(1,1)"><path fill="none" stroke="#000000" d="M 192.97998046875 330.36 L 192.97998046875 347.64" stroke-miterlimit="10"/></g><g transform="translate(-110,-86) scale(1,1)"><path fill="none" stroke="#000000" d="M 183.79016228693183 336.84 L 202.16979865056817 336.84" stroke-miterlimit="10"/></g><g transform="translate(-110,-86) scale(1,1)"><path fill="none" stroke="#000000" d="M 192.97998046875 347.64 L 180.21634410511365 365" stroke-miterlimit="10"/></g><g transform="translate(-110,-86) scale(1,1)"><path fill="none" stroke="#000000" d="M 192.97998046875 347.64 L 205.74361683238635 365" stroke-miterlimit="10"/></g><g transform="translate(-110,-86) scale(1,1)"><g><path fill="none" stroke="none"/><text fill="#000000" stroke="none" font-family="Arial" font-size="13px" font-style="normal" font-weight="bold" text-decoration="none" x="156.5" y="384">Admin User</text></g></g><g transform="translate(-110,-86) scale(1,1)"><path fill="#C0C0C0" stroke="none" d="M 573 358.5 C 573 338.8938896 613.9659408 323 664.5 323 C 715.0340592 323 756 338.8938896 756 358.5 C 756 378.1061104 715.0340592 394 664.5 394 C 613.9659408 394 573 378.1061104 573 358.5 Z" opacity="0.2"/></g><g transform="translate(-110,-86) scale(1,1)"><path fill="#d1ffa3" stroke="none" d="M 566 351.5 C 566 331.8938896 606.9659408 316 657.5 316 C 708.0340592 316 749 331.8938896 749 351.5 C 749 371.1061104 708.0340592 387 657.5 387 C 606.9659408 387 566 371.1061104 566 351.5 Z"/></g><g transform="translate(-110,-86) scale(1,1)"><path fill="none" stroke="#000000" d="M 566 351.5 C 566 331.8938896 606.9659408 316 657.5 316 C 708.0340592 316 749 331.8938896 749 351.5 C 749 371.1061104 708.0340592 387 657.5 387 C 606.9659408 387 566 371.1061104 566 351.5 Z" stroke-miterlimit="10"/></g><g transform="translate(-110,-86) scale(1,1)"><g><path fill="none" stroke="none"/><text fill="#000000" stroke="none" font-family="Arial" font-size="13px" font-style="normal" font-weight="bold" text-decoration="none" x="604.763671875" y="344">Access to Admin</text><text fill="#000000" stroke="none" font-family="Arial" font-size="13px" font-style="normal" font-weight="bold" text-decoration="none" x="607.2900390625" y="357">User Dashboard</text><text fill="#000000" stroke="none" font-family="Arial" font-size="13px" font-style="normal" font-weight="bold" text-decoration="none" x="617.04638671875" y="370">Page [UH-19]</text></g></g><g transform="translate(-110,-86) scale(1,1)"><path fill="#C0C0C0" stroke="none" d="M 568 490.5 C 568 470.8938896 610.9806592 455 664 455 C 717.0193408 455 760 470.8938896 760 490.5 C 760 510.1061104 717.0193408 526 664 526 C 610.9806592 526 568 510.1061104 568 490.5 Z" opacity="0.2"/></g><g transform="translate(-110,-86) scale(1,1)"><path fill="#d1ffa3" stroke="none" d="M 561 483.5 C 561 463.8938896 603.9806592 448 657 448 C 710.0193408 448 753 463.8938896 753 483.5 C 753 503.1061104 710.0193408 519 657 519 C 603.9806592 519 561 503.1061104 561 483.5 Z"/></g><g transform="translate(-110,-86) scale(1,1)"><path fill="none" stroke="#000000" d="M 561 483.5 C 561 463.8938896 603.9806592 448 657 448 C 710.0193408 448 753 463.8938896 753 483.5 C 753 503.1061104 710.0193408 519 657 519 C 603.9806592 519 561 503.1061104 561 483.5 Z" stroke-miterlimit="10"/></g><g transform="translate(-110,-86) scale(1,1)"><g><path fill="none" stroke="none"/><text fill="#000000" stroke="none" font-family="Arial" font-size="13px" font-style="normal" font-weight="bold" text-decoration="none" x="605.345947265625" y="476">Access to all not</text><text fill="#000000" stroke="none" font-family="Arial" font-size="13px" font-style="normal" font-weight="bold" text-decoration="none" x="596.671875" y="489">banned Users Page</text><text fill="#000000" stroke="none" font-family="Arial" font-size="13px" font-style="normal" font-weight="bold" text-decoration="none" x="633.88818359375" y="502">[UH-20]</text></g></g><g transform="translate(-110,-86) scale(1,1)"><path fill="#C0C0C0" stroke="none" d="M 818 490 C 818 475.6405952 852.0263552 464 894 464 C 935.9736448 464 970 475.6405952 970 490 C 970 504.3594048 935.9736448 516 894 516 C 852.0263552 516 818 504.3594048 818 490 Z" opacity="0.2"/></g><g transform="translate(-110,-86) scale(1,1)"><path fill="#ebffd8" stroke="none" d="M 811 483 C 811 468.6405952 845.0263552 457 887 457 C 928.9736448 457 963 468.6405952 963 483 C 963 497.3594048 928.9736448 509 887 509 C 845.0263552 509 811 497.3594048 811 483 Z"/></g><g transform="translate(-110,-86) scale(1,1)"><path fill="none" stroke="#000000" d="M 811 483 C 811 468.6405952 845.0263552 457 887 457 C 928.9736448 457 963 468.6405952 963 483 C 963 497.3594048 928.9736448 509 887 509 C 845.0263552 509 811 497.3594048 811 483 Z" stroke-miterlimit="10"/></g><g transform="translate(-110,-86) scale(1,1)"><g><path fill="none" stroke="none"/><text fill="#000000" stroke="none" font-family="Arial" font-size="13px" font-style="normal" font-weight="bold" text-decoration="none" x="849.069580078125" y="482">Ban an User</text><text fill="#000000" stroke="none" font-family="Arial" font-size="13px" font-style="normal" font-weight="bold" text-decoration="none" x="863.88818359375" y="495">[UH-21]</text></g></g><g transform="translate(-110,-86) scale(1,1)"><path fill="#C0C0C0" stroke="none" d="M 572 226.5 C 572 206.8938896 613.413656 191 664.5 191 C 715.586344 191 757 206.8938896 757 226.5 C 757 246.1061104 715.586344 262 664.5 262 C 613.413656 262 572 246.1061104 572 226.5 Z" opacity="0.2"/></g><g transform="translate(-110,-86) scale(1,1)"><path fill="#d1ffa3" stroke="none" d="M 565 219.5 C 565 199.8938896 606.413656 184 657.5 184 C 708.586344 184 750 199.8938896 750 219.5 C 750 239.1061104 708.586344 255 657.5 255 C 606.413656 255 565 239.1061104 565 219.5 Z"/></g><g transform="translate(-110,-86) scale(1,1)"><path fill="none" stroke="#000000" d="M 565 219.5 C 565 199.8938896 606.413656 184 657.5 184 C 708.586344 184 750 199.8938896 750 219.5 C 750 239.1061104 708.586344 255 657.5 255 C 606.413656 255 565 239.1061104 565 219.5 Z" stroke-miterlimit="10"/></g><g transform="translate(-110,-86) scale(1,1)"><g><path fill="none" stroke="none"/><text fill="#000000" stroke="none" font-family="Arial" font-size="13px" font-style="normal" font-weight="bold" text-decoration="none" x="617.75732421875" y="212">Access to all</text><text fill="#000000" stroke="none" font-family="Arial" font-size="13px" font-style="normal" font-weight="bold" text-decoration="none" x="614.513671875" y="225">banned Users</text><text fill="#000000" stroke="none" font-family="Arial" font-size="13px" font-style="normal" font-weight="bold" text-decoration="none" x="617.04638671875" y="238">Page [UH-22]</text></g></g><g transform="translate(-110,-86) scale(1,1)"><path fill="#C0C0C0" stroke="none" d="M 814 226 C 814 211.6405952 849.817216 200 894 200 C 938.182784 200 974 211.6405952 974 226 C 974 240.3594048 938.182784 252 894 252 C 849.817216 252 814 240.3594048 814 226 Z" opacity="0.2"/></g><g transform="translate(-110,-86) scale(1,1)"><path fill="#ebffd8" stroke="none" d="M 807 219 C 807 204.6405952 842.817216 193 887 193 C 931.182784 193 967 204.6405952 967 219 C 967 233.3594048 931.182784 245 887 245 C 842.817216 245 807 233.3594048 807 219 Z"/></g><g transform="translate(-110,-86) scale(1,1)"><path fill="none" stroke="#000000" d="M 807 219 C 807 204.6405952 842.817216 193 887 193 C 931.182784 193 967 204.6405952 967 219 C 967 233.3594048 931.182784 245 887 245 C 842.817216 245 807 233.3594048 807 219 Z" stroke-miterlimit="10"/></g><g transform="translate(-110,-86) scale(1,1)"><g><path fill="none" stroke="none"/><text fill="#000000" stroke="none" font-family="Arial" font-size="13px" font-style="normal" font-weight="bold" text-decoration="none" x="841.128662109375" y="218">Unban an User</text><text fill="#000000" stroke="none" font-family="Arial" font-size="13px" font-style="normal" font-weight="bold" text-decoration="none" x="863.88818359375" y="231">[UH-23]</text></g></g><g transform="translate(-110,-86) scale(1,1)"><path fill="#C0C0C0" stroke="none" d="M 818 358.5 C 818 338.8938896 852.0263552 323 894 323 C 935.9736448 323 970 338.8938896 970 358.5 C 970 378.1061104 935.9736448 394 894 394 C 852.0263552 394 818 378.1061104 818 358.5 Z" opacity="0.2"/></g><g transform="translate(-110,-86) scale(1,1)"><path fill="#ebffd8" stroke="none" d="M 811 351.5 C 811 331.8938896 845.0263552 316 887 316 C 928.9736448 316 963 331.8938896 963 351.5 C 963 371.1061104 928.9736448 387 887 387 C 845.0263552 387 811 371.1061104 811 351.5 Z"/></g><g transform="translate(-110,-86) scale(1,1)"><path fill="none" stroke="#000000" d="M 811 351.5 C 811 331.8938896 845.0263552 316 887 316 C 928.9736448 316 963 331.8938896 963 351.5 C 963 371.1061104 928.9736448 387 887 387 C 845.0263552 387 811 371.1061104 811 351.5 Z" stroke-miterlimit="10"/></g><g transform="translate(-110,-86) scale(1,1)"><g><path fill="none" stroke="none"/><text fill="#000000" stroke="none" font-family="Arial" font-size="13px" font-style="normal" font-weight="bold" text-decoration="none" x="839.319580078125" y="344">See application</text><text fill="#000000" stroke="none" font-family="Arial" font-size="13px" font-style="normal" font-weight="bold" text-decoration="none" x="838.9482421875" y="357">general metrics</text><text fill="#000000" stroke="none" font-family="Arial" font-size="13px" font-style="normal" font-weight="bold" text-decoration="none" x="863.88818359375" y="370">[UH-24]</text></g></g><g transform="translate(-110,-86) scale(1,1)"><path fill="#C0C0C0" stroke="none" d="M 351 226.5 C 351 206.8938896 385.0263552 191 427 191 C 468.9736448 191 503 206.8938896 503 226.5 C 503 246.1061104 468.9736448 262 427 262 C 385.0263552 262 351 246.1061104 351 226.5 Z" opacity="0.2"/></g><g transform="translate(-110,-86) scale(1,1)"><path fill="#ffd8ff" stroke="none" d="M 344 219.5 C 344 199.8938896 378.0263552 184 420 184 C 461.9736448 184 496 199.8938896 496 219.5 C 496 239.1061104 461.9736448 255 420 255 C 378.0263552 255 344 239.1061104 344 219.5 Z"/></g><g transform="translate(-110,-86) scale(1,1)"><path fill="none" stroke="#000000" d="M 344 219.5 C 344 199.8938896 378.0263552 184 420 184 C 461.9736448 184 496 199.8938896 496 219.5 C 496 239.1061104 461.9736448 255 420 255 C 378.0263552 255 344 239.1061104 344 219.5 Z" stroke-miterlimit="10"/></g><g transform="translate(-110,-86) scale(1,1)"><g><path fill="none" stroke="none"/><text fill="#000000" stroke="none" font-family="Arial" font-size="13px" font-style="normal" font-weight="bold" text-decoration="none" x="373.030517578125" y="212">Access to User</text><text fill="#000000" stroke="none" font-family="Arial" font-size="13px" font-style="normal" font-weight="bold" text-decoration="none" x="384.59912109375" y="225">Home Page</text><text fill="#000000" stroke="none" font-family="Arial" font-size="13px" font-style="normal" font-weight="bold" text-decoration="none" x="396.88818359375" y="238">[UH-06]</text></g></g><g transform="translate(-110,-86) scale(1,1)"><path fill="none" stroke="#000000" d="M 234 346 L 336 346" stroke-miterlimit="10"/></g><g transform="translate(-110,-86) scale(1,1)"><path fill="none" stroke="#000000" d="M 750 351 L 810 351" stroke-miterlimit="10" stroke-dasharray="3"/></g><g transform="translate(-110,-86) scale(1,1)"><path fill="none" stroke="#000000" d="M 799.8373251423759 355.209517756016 L 810 351 L 799.8373251423758 346.790482243984" stroke-miterlimit="10"/></g><g transform="translate(-110,-86) scale(1,1)"><g><path fill="none" stroke="none"/><text fill="#000000" stroke="none" font-family="Arial" font-size="13px" font-style="normal" font-weight="normal" text-decoration="none" x="751.5" y="342">«include»</text></g></g><g transform="translate(-110,-86) scale(1,1)"><path fill="none" stroke="#000000" d="M 420 315 L 420 256" stroke-miterlimit="10" stroke-dasharray="3"/></g><g transform="translate(-110,-86) scale(1,1)"><path fill="none" stroke="#000000" d="M 424.209517756016 266.16267485762415 L 420 256 L 415.790482243984 266.16267485762415" stroke-miterlimit="10"/></g><g transform="translate(-110,-86) scale(1,1)"><g><path fill="none" stroke="none"/><text fill="#000000" stroke="none" font-family="Arial" font-size="13px" font-style="normal" font-weight="normal" text-decoration="none" x="359.5" y="291">«extend»</text></g></g><g transform="translate(-110,-86) scale(1,1)"><path fill="none" stroke="#000000" d="M 592 447 L 486 388" stroke-miterlimit="10" stroke-dasharray="3"/></g><g transform="translate(-110,-86) scale(1,1)"><path fill="none" stroke="#000000" d="M 496.9270898864954 389.2643997043855 L 486 388 L 492.8325537522746 396.62068496247707" stroke-miterlimit="10"/></g><g transform="translate(-110,-86) scale(1,1)"><g><path fill="none" stroke="none"/><text fill="#000000" stroke="none" font-family="Arial" font-size="13px" font-style="normal" font-weight="normal" text-decoration="none" x="527.5" y="401">«extend»</text></g></g><g transform="translate(-110,-86) scale(1,1)"><path fill="none" stroke="#000000" d="M 810 483 L 754 483" stroke-miterlimit="10" stroke-dasharray="3"/></g><g transform="translate(-110,-86) scale(1,1)"><path fill="none" stroke="#000000" d="M 764.1626748576241 478.790482243984 L 754 483 L 764.1626748576241 487.209517756016" stroke-miterlimit="10"/></g><g transform="translate(-110,-86) scale(1,1)"><g><path fill="none" stroke="none"/><text fill="#000000" stroke="none" font-family="Arial" font-size="13px" font-style="normal" font-weight="normal" text-decoration="none" x="754.5" y="474">«extend»</text></g></g><g transform="translate(-110,-86) scale(1,1)"><path fill="none" stroke="#000000" d="M 806 219 L 751 219" stroke-miterlimit="10" stroke-dasharray="3"/></g><g transform="translate(-110,-86) scale(1,1)"><path fill="none" stroke="#000000" d="M 761.1626748576241 214.790482243984 L 751 219 L 761.1626748576241 223.209517756016" stroke-miterlimit="10"/></g><g transform="translate(-110,-86) scale(1,1)"><g><path fill="none" stroke="none"/><text fill="#000000" stroke="none" font-family="Arial" font-size="13px" font-style="normal" font-weight="normal" text-decoration="none" x="751.5" y="211">«extend»</text></g></g><g transform="translate(-110,-86) scale(1,1)"><path fill="none" stroke="#000000" d="M 591 256 L 485 315" stroke-miterlimit="10" stroke-dasharray="3"/></g><g transform="translate(-110,-86) scale(1,1)"><path fill="none" stroke="#000000" d="M 491.8325537522746 306.37931503752293 L 485 315 L 495.9270898864954 313.7356002956145" stroke-miterlimit="10"/></g><g transform="translate(-110,-86) scale(1,1)"><g><path fill="none" stroke="none"/><text fill="#000000" stroke="none" font-family="Arial" font-size="13px" font-style="normal" font-weight="normal" text-decoration="none" x="486.5" y="274">«extend»</text></g></g><g transform="translate(-110,-86) scale(1,1)"><path fill="#C0C0C0" stroke="none" d="M 351 506.5 C 351 486.8938896 385.2502128 471 427.5 471 C 469.7497872 471 504 486.8938896 504 506.5 C 504 526.1061104 469.7497872 542 427.5 542 C 385.2502128 542 351 526.1061104 351 506.5 Z" opacity="0.2"/></g><g transform="translate(-110,-86) scale(1,1)"><path fill="#d1ffa3" stroke="none" d="M 344 499.5 C 344 479.8938896 378.2502128 464 420.5 464 C 462.7497872 464 497 479.8938896 497 499.5 C 497 519.1061104 462.7497872 535 420.5 535 C 378.2502128 535 344 519.1061104 344 499.5 Z"/></g><g transform="translate(-110,-86) scale(1,1)"><path fill="none" stroke="#000000" d="M 344 499.5 C 344 479.8938896 378.2502128 464 420.5 464 C 462.7497872 464 497 479.8938896 497 499.5 C 497 519.1061104 462.7497872 535 420.5 535 C 378.2502128 535 344 519.1061104 344 499.5 Z" stroke-miterlimit="10"/></g><g transform="translate(-110,-86) scale(1,1)"><g><path fill="none" stroke="none"/><text fill="#000000" stroke="none" font-family="Arial" font-size="13px" font-style="normal" font-weight="bold" text-decoration="none" x="389.7900390625" y="492">Access to</text><text fill="#000000" stroke="none" font-family="Arial" font-size="13px" font-style="normal" font-weight="bold" text-decoration="none" x="382.931396484375" y="505">Profile Page</text><text fill="#000000" stroke="none" font-family="Arial" font-size="13px" font-style="normal" font-weight="bold" text-decoration="none" x="397.38818359375" y="518">[UH-12]</text></g></g><g transform="translate(-110,-86) scale(1,1)"><path fill="none" stroke="#000000" d="M 420 463 L 420 388" stroke-miterlimit="10" stroke-dasharray="3"/></g><g transform="translate(-110,-86) scale(1,1)"><path fill="none" stroke="#000000" d="M 424.209517756016 398.16267485762415 L 420 388 L 415.790482243984 398.16267485762415" stroke-miterlimit="10"/></g><g transform="translate(-110,-86) scale(1,1)"><g><path fill="none" stroke="none"/><text fill="#000000" stroke="none" font-family="Arial" font-size="13px" font-style="normal" font-weight="normal" text-decoration="none" x="359.5" y="436">«extend»</text></g></g><g transform="translate(-110,-86) scale(1,1)"><path fill="#C0C0C0" stroke="none" d="M 343 358.5 C 343 338.8938896 380.6080768 323 427 323 C 473.3919232 323 511 338.8938896 511 358.5 C 511 378.1061104 473.3919232 394 427 394 C 380.6080768 394 343 378.1061104 343 358.5 Z" opacity="0.2"/></g><g transform="translate(-110,-86) scale(1,1)"><path fill="#ffa3ff" stroke="none" d="M 336 351.5 C 336 331.8938896 373.6080768 316 420 316 C 466.3919232 316 504 331.8938896 504 351.5 C 504 371.1061104 466.3919232 387 420 387 C 373.6080768 387 336 371.1061104 336 351.5 Z"/></g><g transform="translate(-110,-86) scale(1,1)"><path fill="none" stroke="#000000" d="M 336 351.5 C 336 331.8938896 373.6080768 316 420 316 C 466.3919232 316 504 331.8938896 504 351.5 C 504 371.1061104 466.3919232 387 420 387 C 373.6080768 387 336 371.1061104 336 351.5 Z" stroke-miterlimit="10"/></g><g transform="translate(-110,-86) scale(1,1)"><g><path fill="none" stroke="none"/><text fill="#000000" stroke="none" font-family="Arial" font-size="13px" font-style="normal" font-weight="bold" text-decoration="none" x="380.641357421875" y="344">Show Admin</text><text fill="#000000" stroke="none" font-family="Arial" font-size="13px" font-style="normal" font-weight="bold" text-decoration="none" x="368.339599609375" y="357">User Home Page</text><text fill="#000000" stroke="none" font-family="Arial" font-size="13px" font-style="normal" font-weight="bold" text-decoration="none" x="396.88818359375" y="370">[UH-18]</text></g></g><g transform="translate(-110,-86) scale(1,1)"><path fill="none" stroke="#000000" d="M 565 351 L 505 351" stroke-miterlimit="10" stroke-dasharray="3"/></g><g transform="translate(-110,-86) scale(1,1)"><path fill="none" stroke="#000000" d="M 515.1626748576241 346.790482243984 L 505 351 L 515.1626748576241 355.209517756016" stroke-miterlimit="10"/></g><g transform="translate(-110,-86) scale(1,1)"><g><path fill="none" stroke="none"/><text fill="#000000" stroke="none" font-family="Arial" font-size="13px" font-style="normal" font-weight="normal" text-decoration="none" x="514.5" y="339">«extend»</text></g></g></g></svg>