<svg version="1.1" xmlns="http://www.w3.org/2000/svg" xmlns:xlink="http://www.w3.org/1999/xlink" width="820" height="307"><defs/><g><text fill="#eeeeee" stroke="none" font-family="Arial" font-size="24px" font-style="normal" font-weight="normal" text-decoration="none" x="0" y="0">UNREGISTERED</text><text fill="#eeeeee" stroke="none" font-family="Arial" font-size="24px" font-style="normal" font-weight="normal" text-decoration="none" x="0" y="30">UNREGISTERED</text><text fill="#eeeeee" stroke="none" font-family="Arial" font-size="24px" font-style="normal" font-weight="normal" text-decoration="none" x="0" y="60">UNREGISTERED</text><text fill="#eeeeee" stroke="none" font-family="Arial" font-size="24px" font-style="normal" font-weight="normal" text-decoration="none" x="0" y="90">UNREGISTERED</text><text fill="#eeeeee" stroke="none" font-family="Arial" font-size="24px" font-style="normal" font-weight="normal" text-decoration="none" x="0" y="120">UNREGISTERED</text><text fill="#eeeeee" stroke="none" font-family="Arial" font-size="24px" font-style="normal" font-weight="normal" text-decoration="none" x="0" y="150">UNREGISTERED</text><text fill="#eeeeee" stroke="none" font-family="Arial" font-size="24px" font-style="normal" font-weight="normal" text-decoration="none" x="0" y="180">UNREGISTERED</text><text fill="#eeeeee" stroke="none" font-family="Arial" font-size="24px" font-style="normal" font-weight="normal" text-decoration="none" x="0" y="210">UNREGISTERED</text><text fill="#eeeeee" stroke="none" font-family="Arial" font-size="24px" font-style="normal" font-weight="normal" text-decoration="none" x="0" y="240">UNREGISTERED</text><text fill="#eeeeee" stroke="none" font-family="Arial" font-size="24px" font-style="normal" font-weight="normal" text-decoration="none" x="0" y="270">UNREGISTERED</text><text fill="#eeeeee" stroke="none" font-family="Arial" font-size="24px" font-style="normal" font-weight="normal" text-decoration="none" x="0" y="300">UNREGISTERED</text><text fill="#eeeeee" stroke="none" font-family="Arial" font-size="24px" font-style="normal" font-weight="normal" text-decoration="none" x="200" y="0">UNREGISTERED</text><text fill="#eeeeee" stroke="none" font-family="Arial" font-size="24px" font-style="normal" font-weight="normal" text-decoration="none" x="200" y="30">UNREGISTERED</text><text fill="#eeeeee" stroke="none" font-family="Arial" font-size="24px" font-style="normal" font-weight="normal" text-decoration="none" x="200" y="60">UNREGISTERED</text><text fill="#eeeeee" stroke="none" font-family="Arial" font-size="24px" font-style="normal" font-weight="normal" text-decoration="none" x="200" y="90">UNREGISTERED</text><text fill="#eeeeee" stroke="none" font-family="Arial" font-size="24px" font-style="normal" font-weight="normal" text-decoration="none" x="200" y="120">UNREGISTERED</text><text fill="#eeeeee" stroke="none" font-family="Arial" font-size="24px" font-style="normal" font-weight="normal" text-decoration="none" x="200" y="150">UNREGISTERED</text><text fill="#eeeeee" stroke="none" font-family="Arial" font-size="24px" font-style="normal" font-weight="normal" text-decoration="none" x="200" y="180">UNREGISTERED</text><text fill="#eeeeee" stroke="none" font-family="Arial" font-size="24px" font-style="normal" font-weight="normal" text-decoration="none" x="200" y="210">UNREGISTERED</text><text fill="#eeeeee" stroke="none" font-family="Arial" font-size="24px" font-style="normal" font-weight="normal" text-decoration="none" x="200" y="240">UNREGISTERED</text><text fill="#eeeeee" stroke="none" font-family="Arial" font-size="24px" font-style="normal" font-weight="normal" text-decoration="none" x="200" y="270">UNREGISTERED</text><text fill="#eeeeee" stroke="none" font-family="Arial" font-size="24px" font-style="normal" font-weight="normal" text-decoration="none" x="200" y="300">UNREGISTERED</text><text fill="#eeeeee" stroke="none" font-family="Arial" font-size="24px" font-style="normal" font-weight="normal" text-decoration="none" x="400" y="0">UNREGISTERED</text><text fill="#eeeeee" stroke="none" font-family="Arial" font-size="24px" font-style="normal" font-weight="normal" text-decoration="none" x="400" y="30">UNREGISTERED</text><text fill="#eeeeee" stroke="none" font-family="Arial" font-size="24px" font-style="normal" font-weight="normal" text-decoration="none" x="400" y="60">UNREGISTERED</text><text fill="#eeeeee" stroke="none" font-family="Arial" font-size="24px" font-style="normal" font-weight="normal" text-decoration="none" x="400" y="90">UNREGISTERED</text><text fill="#eeeeee" stroke="none" font-family="Arial" font-size="24px" font-style="normal" font-weight="normal" text-decoration="none" x="400" y="120">UNREGISTERED</text><text fill="#eeeeee" stroke="none" font-family="Arial" font-size="24px" font-style="normal" font-weight="normal" text-decoration="none" x="400" y="150">UNREGISTERED</text><text fill="#eeeeee" stroke="none" font-family="Arial" font-size="24px" font-style="normal" font-weight="normal" text-decoration="none" x="400" y="180">UNREGISTERED</text><text fill="#eeeeee" stroke="none" font-family="Arial" font-size="24px" font-style="normal" font-weight="normal" text-decoration="none" x="400" y="210">UNREGISTERED</text><text fill="#eeeeee" stroke="none" font-family="Arial" font-size="24px" font-style="normal" font-weight="normal" text-decoration="none" x="400" y="240">UNREGISTERED</text><text fill="#eeeeee" stroke="none" font-family="Arial" font-size="24px" font-style="normal" font-weight="normal" text-decoration="none" x="400" y="270">UNREGISTERED</text><text fill="#eeeeee" stroke="none" font-family="Arial" font-size="24px" font-style="normal" font-weight="normal" text-decoration="none" x="400" y="300">UNREGISTERED</text><text fill="#eeeeee" stroke="none" font-family="Arial" font-size="24px" font-style="normal" font-weight="normal" text-decoration="none" x="600" y="0">UNREGISTERED</text><text fill="#eeeeee" stroke="none" font-family="Arial" font-size="24px" font-style="normal" font-weight="normal" text-decoration="none" x="600" y="30">UNREGISTERED</text><text fill="#eeeeee" stroke="none" font-family="Arial" font-size="24px" font-style="normal" font-weight="normal" text-decoration="none" x="600" y="60">UNREGISTERED</text><text fill="#eeeeee" stroke="none" font-family="Arial" font-size="24px" font-style="normal" font-weight="normal" text-decoration="none" x="600" y="90">UNREGISTERED</text><text fill="#eeeeee" stroke="none" font-family="Arial" font-size="24px" font-style="normal" font-weight="normal" text-decoration="none" x="600" y="120">UNREGISTERED</text><text fill="#eeeeee" stroke="none" font-family="Arial" font-size="24px" font-style="normal" font-weight="normal" text-decoration="none" x="600" y="150">UNREGISTERED</text><text fill="#eeeeee" stroke="none" font-family="Arial" font-size="24px" font-style="normal" font-weight="normal" text-decoration="none" x="600" y="180">UNREGISTERED</text><text fill="#eeeeee" stroke="none" font-family="Arial" font-size="24px" font-style="normal" font-weight="normal" text-decoration="none" x="600" y="210">UNREGISTERED</text><text fill="#eeeeee" stroke="none" font-family="Arial" font-size="24px" font-style="normal" font-weight="normal" text-decoration="none" x="600" y="240">UNREGISTERED</text><text fill="#eeeeee" stroke="none" font-family="Arial" font-size="24px" font-style="normal" font-weight="normal" text-decoration="none" x="600" y="270">UNREGISTERED</text><text fill="#eeeeee" stroke="none" font-family="Arial" font-size="24px" font-style="normal" font-weight="normal" text-decoration="none" x="600" y="300">UNREGISTERED</text><text fill="#eeeeee" stroke="none" font-family="Arial" font-size="24px" font-style="normal" font-weight="normal" text-decoration="none" x="800" y="0">UNREGISTERED</text><text fill="#eeeeee" stroke="none" font-family="Arial" font-size="24px" font-style="normal" font-weight="normal" text-decoration="none" x="800" y="30">UNREGISTERED</text><text fill="#eeeeee" stroke="none" font-family="Arial" font-size="24px" font-style="normal" font-weight="normal" text-decoration="none" x="800" y="60">UNREGISTERED</text><text fill="#eeeeee" stroke="none" font-family="Arial" font-size="24px" font-style="normal" font-weight="normal" text-decoration="none" x="800" y="90">UNREGISTERED</text><text fill="#eeeeee" stroke="none" font-family="Arial" font-size="24px" font-style="normal" font-weight="normal" text-decoration="none" x="800" y="120">UNREGISTERED</text><text fill="#eeeeee" stroke="none" font-family="Arial" font-size="24px" font-style="normal" font-weight="normal" text-decoration="none" x="800" y="150">UNREGISTERED</text><text fill="#eeeeee" stroke="none" font-family="Arial" font-size="24px" font-style="normal" font-weight="normal" text-decoration="none" x="800" y="180">UNREGISTERED</text><text fill="#eeeeee" stroke="none" font-family="Arial" font-size="24px" font-style="normal" font-weight="normal" text-decoration="none" x="800" y="210">UNREGISTERED</text><text fill="#eeeeee" stroke="none" font-family="Arial" font-size="24px" font-style="normal" font-weight="normal" text-decoration="none" x="800" y="240">UNREGISTERED</text><text fill="#eeeeee" stroke="none" font-family="Arial" font-size="24px" font-style="normal" font-weight="normal" text-decoration="none" x="800" y="270">UNREGISTERED</text><text fill="#eeeeee" stroke="none" font-family="Arial" font-size="24px" font-style="normal" font-weight="normal" text-decoration="none" x="800" y="300">UNREGISTERED</text><g transform="translate(-270,-222) scale(1,1)"><rect fill="#C0C0C0" stroke="none" x="287" y="239" width="800" height="168" opacity="0.2"/></g><g transform="translate(-270,-222) scale(1,1)"><rect fill="#ffffff" stroke="none" x="280" y="232" width="800" height="168"/></g><g transform="translate(-270,-222) scale(1,1)"><path fill="none" stroke="#000000" d="M 280 232 L 1080 232 L 1080 400 L 280 400 L 280 232 Z Z" stroke-miterlimit="10"/></g><g transform="translate(-270,-222) scale(1,1)"><g><path fill="none" stroke="none"/><text fill="#000000" stroke="none" font-family="Arial" font-size="13px" font-style="normal" font-weight="bold" text-decoration="none" x="656.87548828125" y="250">System</text></g></g><g transform="translate(-270,-222) scale(1,1)"><path fill="#ffffff" stroke="none" d="M 567.5834225852273 449.68 C 567.5834225852273 444.886167936 571.4692649101727 441 576.2626953125 441 C 581.0561257148273 441 584.9419680397727 444.886167936 584.9419680397727 449.68 C 584.9419680397727 454.473832064 581.0561257148273 458.36 576.2626953125 458.36 C 571.4692649101727 458.36 567.5834225852273 454.473832064 567.5834225852273 449.68 Z"/></g><g transform="translate(-270,-222) scale(1,1)"><path fill="none" stroke="#000000" d="M 567.5834225852273 449.68 C 567.5834225852273 444.886167936 571.4692649101727 441 576.2626953125 441 C 581.0561257148273 441 584.9419680397727 444.886167936 584.9419680397727 449.68 C 584.9419680397727 454.473832064 581.0561257148273 458.36 576.2626953125 458.36 C 571.4692649101727 458.36 567.5834225852273 454.473832064 567.5834225852273 449.68 Z" stroke-miterlimit="10"/></g><g transform="translate(-270,-222) scale(1,1)"><path fill="none" stroke="#000000" d="M 576.2626953125 458.36 L 576.2626953125 475.64" stroke-miterlimit="10"/></g><g transform="translate(-270,-222) scale(1,1)"><path fill="none" stroke="#000000" d="M 567.0728771306818 464.84 L 585.4525134943182 464.84" stroke-miterlimit="10"/></g><g transform="translate(-270,-222) scale(1,1)"><path fill="none" stroke="#000000" d="M 576.2626953125 475.64 L 563.4990589488636 493" stroke-miterlimit="10"/></g><g transform="translate(-270,-222) scale(1,1)"><path fill="none" stroke="#000000" d="M 576.2626953125 475.64 L 589.0263316761364 493" stroke-miterlimit="10"/></g><g transform="translate(-270,-222) scale(1,1)"><g><path fill="none" stroke="none"/><text fill="#000000" stroke="none" font-family="Arial" font-size="13px" font-style="normal" font-weight="bold" text-decoration="none" x="540.5" y="512">Public User</text></g></g><g transform="translate(-270,-222) scale(1,1)"><path fill="#ffffff" stroke="none" d="M 781.6752194602273 449.68 C 781.6752194602273 444.886167936 785.5610617851727 441 790.3544921875 441 C 795.1479225898273 441 799.0337649147727 444.886167936 799.0337649147727 449.68 C 799.0337649147727 454.473832064 795.1479225898273 458.36 790.3544921875 458.36 C 785.5610617851727 458.36 781.6752194602273 454.473832064 781.6752194602273 449.68 Z"/></g><g transform="translate(-270,-222) scale(1,1)"><path fill="none" stroke="#000000" d="M 781.6752194602273 449.68 C 781.6752194602273 444.886167936 785.5610617851727 441 790.3544921875 441 C 795.1479225898273 441 799.0337649147727 444.886167936 799.0337649147727 449.68 C 799.0337649147727 454.473832064 795.1479225898273 458.36 790.3544921875 458.36 C 785.5610617851727 458.36 781.6752194602273 454.473832064 781.6752194602273 449.68 Z" stroke-miterlimit="10"/></g><g transform="translate(-270,-222) scale(1,1)"><path fill="none" stroke="#000000" d="M 790.3544921875 458.36 L 790.3544921875 475.64" stroke-miterlimit="10"/></g><g transform="translate(-270,-222) scale(1,1)"><path fill="none" stroke="#000000" d="M 781.1646740056818 464.84 L 799.5443103693182 464.84" stroke-miterlimit="10"/></g><g transform="translate(-270,-222) scale(1,1)"><path fill="none" stroke="#000000" d="M 790.3544921875 475.64 L 777.5908558238636 493" stroke-miterlimit="10"/></g><g transform="translate(-270,-222) scale(1,1)"><path fill="none" stroke="#000000" d="M 790.3544921875 475.64 L 803.1181285511364 493" stroke-miterlimit="10"/></g><g transform="translate(-270,-222) scale(1,1)"><g><path fill="none" stroke="none"/><text fill="#000000" stroke="none" font-family="Arial" font-size="13px" font-style="normal" font-weight="bold" text-decoration="none" x="740.5" y="512">Registered User</text></g></g><g transform="translate(-270,-222) scale(1,1)"><path fill="#C0C0C0" stroke="none" d="M 327 329 C 327 314.6405952 375.3532416 303 435 303 C 494.6467584 303 543 314.6405952 543 329 C 543 343.3594048 494.6467584 355 435 355 C 375.3532416 355 327 343.3594048 327 329 Z" opacity="0.2"/></g><g transform="translate(-270,-222) scale(1,1)"><path fill="#ffffff" stroke="none" d="M 320 322 C 320 307.6405952 368.3532416 296 428 296 C 487.6467584 296 536 307.6405952 536 322 C 536 336.3594048 487.6467584 348 428 348 C 368.3532416 348 320 336.3594048 320 322 Z"/></g><g transform="translate(-270,-222) scale(1,1)"><path fill="none" stroke="#000000" d="M 320 322 C 320 307.6405952 368.3532416 296 428 296 C 487.6467584 296 536 307.6405952 536 322 C 536 336.3594048 487.6467584 348 428 348 C 368.3532416 348 320 336.3594048 320 322 Z" stroke-miterlimit="10"/></g><g transform="translate(-270,-222) scale(1,1)"><g><path fill="none" stroke="none"/><text fill="#000000" stroke="none" font-family="Arial" font-size="13px" font-style="normal" font-weight="bold" text-decoration="none" x="357.56640625" y="321">Access to Config Page</text><text fill="#000000" stroke="none" font-family="Arial" font-size="13px" font-style="normal" font-weight="bold" text-decoration="none" x="404.88818359375" y="334">[UH-37]</text></g></g><g transform="translate(-270,-222) scale(1,1)"><path fill="#C0C0C0" stroke="none" d="M 591 330.5 C 591 310.8938896 633.9806592 295 687 295 C 740.0193408 295 783 310.8938896 783 330.5 C 783 350.1061104 740.0193408 366 687 366 C 633.9806592 366 591 350.1061104 591 330.5 Z" opacity="0.2"/></g><g transform="translate(-270,-222) scale(1,1)"><path fill="#ffffff" stroke="none" d="M 584 323.5 C 584 303.8938896 626.9806592 288 680 288 C 733.0193408 288 776 303.8938896 776 323.5 C 776 343.1061104 733.0193408 359 680 359 C 626.9806592 359 584 343.1061104 584 323.5 Z"/></g><g transform="translate(-270,-222) scale(1,1)"><path fill="none" stroke="#000000" d="M 584 323.5 C 584 303.8938896 626.9806592 288 680 288 C 733.0193408 288 776 303.8938896 776 323.5 C 776 343.1061104 733.0193408 359 680 359 C 626.9806592 359 584 343.1061104 584 323.5 Z" stroke-miterlimit="10"/></g><g transform="translate(-270,-222) scale(1,1)"><g><path fill="none" stroke="none"/><text fill="#000000" stroke="none" font-family="Arial" font-size="13px" font-style="normal" font-weight="bold" text-decoration="none" x="649.2900390625" y="316">Access to</text><text fill="#000000" stroke="none" font-family="Arial" font-size="13px" font-style="normal" font-weight="bold" text-decoration="none" x="631.9609375" y="329">Language Page</text><text fill="#000000" stroke="none" font-family="Arial" font-size="13px" font-style="normal" font-weight="bold" text-decoration="none" x="656.88818359375" y="342">[UH-38]</text></g></g><g transform="translate(-270,-222) scale(1,1)"><path fill="#C0C0C0" stroke="none" d="M 831 329 C 831 314.6405952 875.77152 303 931 303 C 986.22848 303 1031 314.6405952 1031 329 C 1031 343.3594048 986.22848 355 931 355 C 875.77152 355 831 343.3594048 831 329 Z" opacity="0.2"/></g><g transform="translate(-270,-222) scale(1,1)"><path fill="#ffffff" stroke="none" d="M 824 322 C 824 307.6405952 868.77152 296 924 296 C 979.22848 296 1024 307.6405952 1024 322 C 1024 336.3594048 979.22848 348 924 348 C 868.77152 348 824 336.3594048 824 322 Z"/></g><g transform="translate(-270,-222) scale(1,1)"><path fill="none" stroke="#000000" d="M 824 322 C 824 307.6405952 868.77152 296 924 296 C 979.22848 296 1024 307.6405952 1024 322 C 1024 336.3594048 979.22848 348 924 348 C 868.77152 348 824 336.3594048 824 322 Z" stroke-miterlimit="10"/></g><g transform="translate(-270,-222) scale(1,1)"><g><path fill="none" stroke="none"/><text fill="#000000" stroke="none" font-family="Arial" font-size="13px" font-style="normal" font-weight="bold" text-decoration="none" x="860.056884765625" y="321">Access to Help Page</text><text fill="#000000" stroke="none" font-family="Arial" font-size="13px" font-style="normal" font-weight="bold" text-decoration="none" x="900.88818359375" y="334">[UH-39]</text></g></g><g transform="translate(-270,-222) scale(1,1)"><path fill="none" stroke="#000000" d="M 538 439 L 453 349" stroke-miterlimit="10"/></g><g transform="translate(-270,-222) scale(1,1)"><path fill="none" stroke="#000000" d="M 603 439 L 655 360" stroke-miterlimit="10"/></g><g transform="translate(-270,-222) scale(1,1)"><path fill="none" stroke="#000000" d="M 618 460 L 864 349" stroke-miterlimit="10"/></g><g transform="translate(-270,-222) scale(1,1)"><path fill="none" stroke="#000000" d="M 824 439 L 901 349" stroke-miterlimit="10"/></g><g transform="translate(-270,-222) scale(1,1)"><path fill="none" stroke="#000000" d="M 762 439 L 706 360" stroke-miterlimit="10"/></g><g transform="translate(-270,-222) scale(1,1)"><path fill="none" stroke="#000000" d="M 735 455 L 490 349" stroke-miterlimit="10"/></g><g transform="translate(-270,-222) scale(1,1)"><path fill="none" stroke="#000000" d="M 537 322 L 583 323" stroke-miterlimit="10" stroke-dasharray="3"/></g><g transform="translate(-270,-222) scale(1,1)"><path fill="none" stroke="#000000" d="M 572.7482360401718 326.9876478921751 L 583 323 L 572.9312153193404 318.57060105042297" stroke-miterlimit="10"/></g><g transform="translate(-270,-222) scale(1,1)"><g><path fill="none" stroke="none"/><text fill="#000000" stroke="none" font-family="Arial" font-size="13px" font-style="normal" font-weight="normal" text-decoration="none" x="534.5" y="297">«extend»</text></g></g><g transform="translate(-270,-222) scale(1,1)"><path fill="none" stroke="#000000" d="M 583 323 L 537 322" stroke-miterlimit="10" stroke-dasharray="3"/></g><g transform="translate(-270,-222) scale(1,1)"><path fill="none" stroke="#000000" d="M 547.2517639598282 318.0123521078249 L 537 322 L 547.0687846806596 326.42939894957703" stroke-miterlimit="10"/></g><g transform="translate(-270,-222) scale(1,1)"><g><path fill="none" stroke="none"/><text fill="#000000" stroke="none" font-family="Arial" font-size="13px" font-style="normal" font-weight="normal" text-decoration="none" x="532.5" y="357">«extend»</text></g></g><g transform="translate(-270,-222) scale(1,1)"><path fill="none" stroke="#000000" d="M 777 323 L 823 322" stroke-miterlimit="10" stroke-dasharray="3"/></g><g transform="translate(-270,-222) scale(1,1)"><path fill="none" stroke="#000000" d="M 812.9312153193404 326.42939894957703 L 823 322 L 812.7482360401718 318.0123521078249" stroke-miterlimit="10"/></g><g transform="translate(-270,-222) scale(1,1)"><g><path fill="none" stroke="none"/><text fill="#000000" stroke="none" font-family="Arial" font-size="13px" font-style="normal" font-weight="normal" text-decoration="none" x="773.5" y="297">«extend»</text></g></g><g transform="translate(-270,-222) scale(1,1)"><path fill="none" stroke="#000000" d="M 823 322 L 777 323" stroke-miterlimit="10" stroke-dasharray="3"/></g><g transform="translate(-270,-222) scale(1,1)"><path fill="none" stroke="#000000" d="M 787.0687846806596 318.57060105042297 L 777 323 L 787.2517639598282 326.9876478921751" stroke-miterlimit="10"/></g><g transform="translate(-270,-222) scale(1,1)"><g><path fill="none" stroke="none"/><text fill="#000000" stroke="none" font-family="Arial" font-size="13px" font-style="normal" font-weight="normal" text-decoration="none" x="774.5" y="356">«extend»</text></g></g></g></svg>