<svg xmlns="http://www.w3.org/2000/svg" xmlns:xlink="http://www.w3.org/1999/xlink" version="1.1" width="852" height="596"><defs/><g><g transform="translate(-62,-142) scale(1,1)"><rect fill="#C0C0C0" stroke="none" x="79" y="159" width="832" height="576" opacity="0.2"/></g><g transform="translate(-62,-142) scale(1,1)"><rect fill="#ffffff" stroke="none" x="72" y="152" width="832" height="576"/></g><g transform="translate(-62,-142) scale(1,1)"><path fill="none" stroke="#000000" d="M 72 152 L 904 152 L 904 728 L 72 728 L 72 152 Z Z" stroke-miterlimit="10"/></g><g transform="translate(-62,-142) scale(1,1)"><g><path fill="none" stroke="none"/><text fill="#000000" stroke="none" font-family="Arial" font-size="13px" font-style="normal" font-weight="bold" text-decoration="none" x="488" y="165"/></g></g><g transform="translate(-62,-142) scale(1,1)"><rect fill="#C0C0C0" stroke="none" x="263" y="183" width="592" height="528" opacity="0.2"/></g><g transform="translate(-62,-142) scale(1,1)"><rect fill="#ffffd8" stroke="none" x="256" y="176" width="592" height="528"/></g><g transform="translate(-62,-142) scale(1,1)"><path fill="none" stroke="#000000" d="M 256 176 L 848 176 L 848 704 L 256 704 L 256 176 Z Z" stroke-miterlimit="10"/></g><g transform="translate(-62,-142) scale(1,1)"><g><path fill="none" stroke="none"/><text fill="#000000" stroke="none" font-family="Arial" font-size="13px" font-style="normal" font-weight="bold" text-decoration="none" x="528.87548828125" y="194">System</text></g></g><g transform="translate(-62,-142) scale(1,1)"><path fill="#ffffff" stroke="none" d="M 154.42839328835228 377.68 C 154.42839328835228 372.886167936 158.31423561329774 369 163.107666015625 369 C 167.90109641795226 369 171.78693874289772 372.886167936 171.78693874289772 377.68 C 171.78693874289772 382.473832064 167.90109641795226 386.36 163.107666015625 386.36 C 158.31423561329774 386.36 154.42839328835228 382.473832064 154.42839328835228 377.68 Z"/></g><g transform="translate(-62,-142) scale(1,1)"><path fill="none" stroke="#000000" d="M 154.42839328835228 377.68 C 154.42839328835228 372.886167936 158.31423561329774 369 163.107666015625 369 C 167.90109641795226 369 171.78693874289772 372.886167936 171.78693874289772 377.68 C 171.78693874289772 382.473832064 167.90109641795226 386.36 163.107666015625 386.36 C 158.31423561329774 386.36 154.42839328835228 382.473832064 154.42839328835228 377.68 Z" stroke-miterlimit="10"/></g><g transform="translate(-62,-142) scale(1,1)"><path fill="none" stroke="#000000" d="M 163.107666015625 386.36 L 163.107666015625 403.64" stroke-miterlimit="10"/></g><g transform="translate(-62,-142) scale(1,1)"><path fill="none" stroke="#000000" d="M 153.91784783380683 392.84 L 172.29748419744317 392.84" stroke-miterlimit="10"/></g><g transform="translate(-62,-142) scale(1,1)"><path fill="none" stroke="#000000" d="M 163.107666015625 403.64 L 150.34402965198865 421" stroke-miterlimit="10"/></g><g transform="translate(-62,-142) scale(1,1)"><path fill="none" stroke="#000000" d="M 163.107666015625 403.64 L 175.87130237926135 421" stroke-miterlimit="10"/></g><g transform="translate(-62,-142) scale(1,1)"><g><path fill="none" stroke="none"/><text fill="#000000" stroke="none" font-family="Arial" font-size="13px" font-style="normal" font-weight="bold" text-decoration="none" x="128.42724609375" y="440">Medic User</text></g></g><g transform="translate(-62,-142) scale(1,1)"><path fill="#C0C0C0" stroke="none" d="M 318 554.5 C 318 534.8938896 366.3532416 519 426 519 C 485.6467584 519 534 534.8938896 534 554.5 C 534 574.1061104 485.6467584 590 426 590 C 366.3532416 590 318 574.1061104 318 554.5 Z" opacity="0.2"/></g><g transform="translate(-62,-142) scale(1,1)"><path fill="#d1ffa3" stroke="none" d="M 311 547.5 C 311 527.8938896 359.3532416 512 419 512 C 478.6467584 512 527 527.8938896 527 547.5 C 527 567.1061104 478.6467584 583 419 583 C 359.3532416 583 311 567.1061104 311 547.5 Z"/></g><g transform="translate(-62,-142) scale(1,1)"><path fill="none" stroke="#000000" d="M 311 547.5 C 311 527.8938896 359.3532416 512 419 512 C 478.6467584 512 527 527.8938896 527 547.5 C 527 567.1061104 478.6467584 583 419 583 C 359.3532416 583 311 567.1061104 311 547.5 Z" stroke-miterlimit="10"/></g><g transform="translate(-62,-142) scale(1,1)"><g><path fill="none" stroke="none"/><text fill="#000000" stroke="none" font-family="Arial" font-size="13px" font-style="normal" font-weight="bold" text-decoration="none" x="351.8037109375" y="540">Access to Medic User</text><text fill="#000000" stroke="none" font-family="Arial" font-size="13px" font-style="normal" font-weight="bold" text-decoration="none" x="367.707763671875" y="553">Dashboard Page</text><text fill="#000000" stroke="none" font-family="Arial" font-size="13px" font-style="normal" font-weight="bold" text-decoration="none" x="395.88818359375" y="566">[UH-14]</text></g></g><g transform="translate(-62,-142) scale(1,1)"><path fill="#C0C0C0" stroke="none" d="M 612 416.5 C 612 396.8938896 649.6080768 381 696 381 C 742.3919232 381 780 396.8938896 780 416.5 C 780 436.1061104 742.3919232 452 696 452 C 649.6080768 452 612 436.1061104 612 416.5 Z" opacity="0.2"/></g><g transform="translate(-62,-142) scale(1,1)"><path fill="#d1ffa3" stroke="none" d="M 605 409.5 C 605 389.8938896 642.6080768 374 689 374 C 735.3919232 374 773 389.8938896 773 409.5 C 773 429.1061104 735.3919232 445 689 445 C 642.6080768 445 605 429.1061104 605 409.5 Z"/></g><g transform="translate(-62,-142) scale(1,1)"><path fill="none" stroke="#000000" d="M 605 409.5 C 605 389.8938896 642.6080768 374 689 374 C 735.3919232 374 773 389.8938896 773 409.5 C 773 429.1061104 735.3919232 445 689 445 C 642.6080768 445 605 429.1061104 605 409.5 Z" stroke-miterlimit="10"/></g><g transform="translate(-62,-142) scale(1,1)"><g><path fill="none" stroke="none"/><text fill="#000000" stroke="none" font-family="Arial" font-size="13px" font-style="normal" font-weight="bold" text-decoration="none" x="636.254150390625" y="402">Access to record</text><text fill="#000000" stroke="none" font-family="Arial" font-size="13px" font-style="normal" font-weight="bold" text-decoration="none" x="646.740478515625" y="415">of all Patients</text><text fill="#000000" stroke="none" font-family="Arial" font-size="13px" font-style="normal" font-weight="bold" text-decoration="none" x="665.88818359375" y="428">[UH-16]</text></g></g><g transform="translate(-62,-142) scale(1,1)"><path fill="#C0C0C0" stroke="none" d="M 580 291.5 C 580 266.9233264 631.9349632 247 696 247 C 760.0650368 247 812 266.9233264 812 291.5 C 812 316.0766736 760.0650368 336 696 336 C 631.9349632 336 580 316.0766736 580 291.5 Z" opacity="0.2"/></g><g transform="translate(-62,-142) scale(1,1)"><path fill="#ebffd8" stroke="none" d="M 573 284.5 C 573 259.9233264 624.9349632 240 689 240 C 753.0650368 240 805 259.9233264 805 284.5 C 805 309.0766736 753.0650368 329 689 329 C 624.9349632 329 573 309.0766736 573 284.5 Z"/></g><g transform="translate(-62,-142) scale(1,1)"><path fill="none" stroke="#000000" d="M 573 284.5 C 573 259.9233264 624.9349632 240 689 240 C 753.0650368 240 805 259.9233264 805 284.5 C 805 309.0766736 753.0650368 329 689 329 C 624.9349632 329 573 309.0766736 573 284.5 Z" stroke-miterlimit="10"/></g><g transform="translate(-62,-142) scale(1,1)"><g><path fill="none" stroke="none"/><text fill="#000000" stroke="none" font-family="Arial" font-size="13px" font-style="normal" font-weight="bold" text-decoration="none" x="622.181396484375" y="277">See more information</text><text fill="#000000" stroke="none" font-family="Arial" font-size="13px" font-style="normal" font-weight="bold" text-decoration="none" x="626.15185546875" y="290">about a Patient User</text><text fill="#000000" stroke="none" font-family="Arial" font-size="13px" font-style="normal" font-weight="bold" text-decoration="none" x="665.88818359375" y="303">[UH-17]</text></g></g><g transform="translate(-62,-142) scale(1,1)"><path fill="#C0C0C0" stroke="none" d="M 613 627.5 C 613 602.9233264 650.1603616 583 696 583 C 741.8396384 583 779 602.9233264 779 627.5 C 779 652.0766736 741.8396384 672 696 672 C 650.1603616 672 613 652.0766736 613 627.5 Z" opacity="0.2"/></g><g transform="translate(-62,-142) scale(1,1)"><path fill="#ebffd8" stroke="none" d="M 606 620.5 C 606 595.9233264 643.1603616 576 689 576 C 734.8396384 576 772 595.9233264 772 620.5 C 772 645.0766736 734.8396384 665 689 665 C 643.1603616 665 606 645.0766736 606 620.5 Z"/></g><g transform="translate(-62,-142) scale(1,1)"><path fill="none" stroke="#000000" d="M 606 620.5 C 606 595.9233264 643.1603616 576 689 576 C 734.8396384 576 772 595.9233264 772 620.5 C 772 645.0766736 734.8396384 665 689 665 C 643.1603616 665 606 645.0766736 606 620.5 Z" stroke-miterlimit="10"/></g><g transform="translate(-62,-142) scale(1,1)"><g><path fill="none" stroke="none"/><text fill="#000000" stroke="none" font-family="Arial" font-size="13px" font-style="normal" font-weight="bold" text-decoration="none" x="638.063232421875" y="613">Access to Medic</text><text fill="#000000" stroke="none" font-family="Arial" font-size="13px" font-style="normal" font-weight="bold" text-decoration="none" x="649.98095703125" y="626">User Metrics</text><text fill="#000000" stroke="none" font-family="Arial" font-size="13px" font-style="normal" font-weight="bold" text-decoration="none" x="665.88818359375" y="639">[UH-15]</text></g></g><g transform="translate(-62,-142) scale(1,1)"><path fill="#C0C0C0" stroke="none" d="M 318 274.5 C 318 254.8938896 366.3532416 239 426 239 C 485.6467584 239 534 254.8938896 534 274.5 C 534 294.1061104 485.6467584 310 426 310 C 366.3532416 310 318 294.1061104 318 274.5 Z" opacity="0.2"/></g><g transform="translate(-62,-142) scale(1,1)"><path fill="#ffd8ff" stroke="none" d="M 311 267.5 C 311 247.8938896 359.3532416 232 419 232 C 478.6467584 232 527 247.8938896 527 267.5 C 527 287.1061104 478.6467584 303 419 303 C 359.3532416 303 311 287.1061104 311 267.5 Z"/></g><g transform="translate(-62,-142) scale(1,1)"><path fill="none" stroke="#000000" d="M 311 267.5 C 311 247.8938896 359.3532416 232 419 232 C 478.6467584 232 527 247.8938896 527 267.5 C 527 287.1061104 478.6467584 303 419 303 C 359.3532416 303 311 287.1061104 311 267.5 Z" stroke-miterlimit="10"/></g><g transform="translate(-62,-142) scale(1,1)"><g><path fill="none" stroke="none"/><text fill="#000000" stroke="none" font-family="Arial" font-size="13px" font-style="normal" font-weight="bold" text-decoration="none" x="352.16552734375" y="266.5">Access to User Home</text><text fill="#000000" stroke="none" font-family="Arial" font-size="13px" font-style="normal" font-weight="bold" text-decoration="none" x="378.54638671875" y="279.5">Page [UH-06]</text></g></g><g transform="translate(-62,-142) scale(1,1)"><path fill="none" stroke="#000000" d="M 214 408 L 303 408" stroke-miterlimit="10"/></g><g transform="translate(-62,-142) scale(1,1)"><path fill="none" stroke="#000000" d="M 419 373 L 419 304" stroke-miterlimit="10" stroke-dasharray="3"/></g><g transform="translate(-62,-142) scale(1,1)"><path fill="none" stroke="#000000" d="M 423.209517756016 314.16267485762415 L 419 304 L 414.790482243984 314.16267485762415" stroke-miterlimit="10"/></g><g transform="translate(-62,-142) scale(1,1)"><g><path fill="none" stroke="none"/><text fill="#000000" stroke="none" font-family="Arial" font-size="13px" font-style="normal" font-weight="normal" text-decoration="none" x="351.5" y="348">«extend»</text></g></g><g transform="translate(-62,-142) scale(1,1)"><path fill="none" stroke="#000000" d="M 528 576 L 605 597" stroke-miterlimit="10" stroke-dasharray="3"/></g><g transform="translate(-62,-142) scale(1,1)"><path fill="none" stroke="#000000" d="M 594.0878215787632 598.3872137914153 L 605 597 L 596.3030163619607 590.2648329196912" stroke-miterlimit="10"/></g><g transform="translate(-62,-142) scale(1,1)"><g><path fill="none" stroke="none"/><text fill="#000000" stroke="none" font-family="Arial" font-size="13px" font-style="normal" font-weight="normal" text-decoration="none" x="559.5" y="567">«include»</text></g></g><g transform="translate(-62,-142) scale(1,1)"><path fill="none" stroke="#000000" d="M 604 409 L 536 409" stroke-miterlimit="10" stroke-dasharray="3"/></g><g transform="translate(-62,-142) scale(1,1)"><path fill="none" stroke="#000000" d="M 546.1626748576241 404.790482243984 L 536 409 L 546.1626748576241 413.209517756016" stroke-miterlimit="10"/></g><g transform="translate(-62,-142) scale(1,1)"><g><path fill="none" stroke="none"/><text fill="#000000" stroke="none" font-family="Arial" font-size="13px" font-style="normal" font-weight="normal" text-decoration="none" x="550.5" y="395">«extend»</text></g></g><g transform="translate(-62,-142) scale(1,1)"><path fill="none" stroke="#000000" d="M 689 330 L 689 373" stroke-miterlimit="10" stroke-dasharray="3"/></g><g transform="translate(-62,-142) scale(1,1)"><path fill="none" stroke="#000000" d="M 684.790482243984 362.83732514237585 L 689 373 L 693.209517756016 362.83732514237585" stroke-miterlimit="10"/></g><g transform="translate(-62,-142) scale(1,1)"><g><path fill="none" stroke="none"/><text fill="#000000" stroke="none" font-family="Arial" font-size="13px" font-style="normal" font-weight="normal" text-decoration="none" x="705.5" y="369">«extend»</text></g></g><g transform="translate(-62,-142) scale(1,1)"><path fill="#C0C0C0" stroke="none" d="M 624 514.5 C 624 494.8938896 656.2354944 479 696 479 C 735.7645056 479 768 494.8938896 768 514.5 C 768 534.1061104 735.7645056 550 696 550 C 656.2354944 550 624 534.1061104 624 514.5 Z" opacity="0.2"/></g><g transform="translate(-62,-142) scale(1,1)"><path fill="#d1ffa3" stroke="none" d="M 617 507.5 C 617 487.8938896 649.2354944 472 689 472 C 728.7645056 472 761 487.8938896 761 507.5 C 761 527.1061104 728.7645056 543 689 543 C 649.2354944 543 617 527.1061104 617 507.5 Z"/></g><g transform="translate(-62,-142) scale(1,1)"><path fill="none" stroke="#000000" d="M 617 507.5 C 617 487.8938896 649.2354944 472 689 472 C 728.7645056 472 761 487.8938896 761 507.5 C 761 527.1061104 728.7645056 543 689 543 C 649.2354944 543 617 527.1061104 617 507.5 Z" stroke-miterlimit="10"/></g><g transform="translate(-62,-142) scale(1,1)"><g><path fill="none" stroke="none"/><text fill="#000000" stroke="none" font-family="Arial" font-size="13px" font-style="normal" font-weight="bold" text-decoration="none" x="658.2900390625" y="500">Access to</text><text fill="#000000" stroke="none" font-family="Arial" font-size="13px" font-style="normal" font-weight="bold" text-decoration="none" x="651.431396484375" y="513">Profile Page</text><text fill="#000000" stroke="none" font-family="Arial" font-size="13px" font-style="normal" font-weight="bold" text-decoration="none" x="665.88818359375" y="526">[UH-12]</text></g></g><g transform="translate(-62,-142) scale(1,1)"><path fill="none" stroke="#000000" d="M 616 481 L 521 446" stroke-miterlimit="10" stroke-dasharray="3"/></g><g transform="translate(-62,-142) scale(1,1)"><path fill="none" stroke="#000000" d="M 531.9913288474355 445.5633191468237 L 521 446 L 529.0808231547683 453.46326316977775" stroke-miterlimit="10"/></g><g transform="translate(-62,-142) scale(1,1)"><g><path fill="none" stroke="none"/><text fill="#000000" stroke="none" font-family="Arial" font-size="13px" font-style="normal" font-weight="normal" text-decoration="none" x="515.5" y="485">«extend»</text></g></g><g transform="translate(-62,-142) scale(1,1)"><path fill="#C0C0C0" stroke="none" d="M 310 416.5 C 310 396.8938896 361.93496319999997 381 426 381 C 490.06503680000003 381 542 396.8938896 542 416.5 C 542 436.1061104 490.06503680000003 452 426 452 C 361.93496319999997 452 310 436.1061104 310 416.5 Z" opacity="0.2"/></g><g transform="translate(-62,-142) scale(1,1)"><path fill="#ffa3ff" stroke="none" d="M 303 409.5 C 303 389.8938896 354.93496319999997 374 419 374 C 483.06503680000003 374 535 389.8938896 535 409.5 C 535 429.1061104 483.06503680000003 445 419 445 C 354.93496319999997 445 303 429.1061104 303 409.5 Z"/></g><g transform="translate(-62,-142) scale(1,1)"><path fill="none" stroke="#000000" d="M 303 409.5 C 303 389.8938896 354.93496319999997 374 419 374 C 483.06503680000003 374 535 389.8938896 535 409.5 C 535 429.1061104 483.06503680000003 445 419 445 C 354.93496319999997 445 303 429.1061104 303 409.5 Z" stroke-miterlimit="10"/></g><g transform="translate(-62,-142) scale(1,1)"><g><path fill="none" stroke="none"/><text fill="#000000" stroke="none" font-family="Arial" font-size="13px" font-style="normal" font-weight="bold" text-decoration="none" x="345.31640625" y="408.5">Show Medic User Home</text><text fill="#000000" stroke="none" font-family="Arial" font-size="13px" font-style="normal" font-weight="bold" text-decoration="none" x="378.54638671875" y="421.5">Page [UH-13]</text></g></g><g transform="translate(-62,-142) scale(1,1)"><path fill="none" stroke="#000000" d="M 419 511 L 419 446" stroke-miterlimit="10" stroke-dasharray="3"/></g><g transform="translate(-62,-142) scale(1,1)"><path fill="none" stroke="#000000" d="M 423.209517756016 456.16267485762415 L 419 446 L 414.790482243984 456.16267485762415" stroke-miterlimit="10"/></g><g transform="translate(-62,-142) scale(1,1)"><g><path fill="none" stroke="none"/><text fill="#000000" stroke="none" font-family="Arial" font-size="13px" font-style="normal" font-weight="normal" text-decoration="none" x="351.5" y="484">«extend»</text></g></g></g></svg>