<svg xmlns="http://www.w3.org/2000/svg" xmlns:xlink="http://www.w3.org/1999/xlink" version="1.1" width="883" height="428"><defs/><g><g transform="translate(-102,-150) scale(1,1)"><rect fill="#C0C0C0" stroke="none" x="119" y="167" width="863" height="408" opacity="0.2"/></g><g transform="translate(-102,-150) scale(1,1)"><rect fill="#ffffff" stroke="none" x="112" y="160" width="863" height="408"/></g><g transform="translate(-102,-150) scale(1,1)"><path fill="none" stroke="#000000" d="M 112 160 L 975 160 L 975 568 L 112 568 L 112 160 Z Z" stroke-miterlimit="10"/></g><g transform="translate(-102,-150) scale(1,1)"><g><path fill="none" stroke="none"/><text fill="#000000" stroke="none" font-family="Arial" font-size="13px" font-style="normal" font-weight="bold" text-decoration="none" x="543.5" y="173"/></g></g><g transform="translate(-102,-150) scale(1,1)"><rect fill="#C0C0C0" stroke="none" x="319" y="199" width="600" height="336" opacity="0.2"/></g><g transform="translate(-102,-150) scale(1,1)"><rect fill="#ffffd8" stroke="none" x="312" y="192" width="600" height="336"/></g><g transform="translate(-102,-150) scale(1,1)"><path fill="none" stroke="#000000" d="M 312 192 L 912 192 L 912 528 L 312 528 L 312 192 Z Z" stroke-miterlimit="10"/></g><g transform="translate(-102,-150) scale(1,1)"><g><path fill="none" stroke="none"/><text fill="#000000" stroke="none" font-family="Arial" font-size="13px" font-style="normal" font-weight="bold" text-decoration="none" x="588.87548828125" y="210">System</text></g></g><g transform="translate(-102,-150) scale(1,1)"><path fill="#ffffff" stroke="none" d="M 196.58342258522728 256.68 C 196.58342258522728 251.886167936 200.46926491017274 248 205.2626953125 248 C 210.05612571482726 248 213.94196803977272 251.886167936 213.94196803977272 256.68 C 213.94196803977272 261.473832064 210.05612571482726 265.36 205.2626953125 265.36 C 200.46926491017274 265.36 196.58342258522728 261.473832064 196.58342258522728 256.68 Z"/></g><g transform="translate(-102,-150) scale(1,1)"><path fill="none" stroke="#000000" d="M 196.58342258522728 256.68 C 196.58342258522728 251.886167936 200.46926491017274 248 205.2626953125 248 C 210.05612571482726 248 213.94196803977272 251.886167936 213.94196803977272 256.68 C 213.94196803977272 261.473832064 210.05612571482726 265.36 205.2626953125 265.36 C 200.46926491017274 265.36 196.58342258522728 261.473832064 196.58342258522728 256.68 Z" stroke-miterlimit="10"/></g><g transform="translate(-102,-150) scale(1,1)"><path fill="none" stroke="#000000" d="M 205.2626953125 265.36 L 205.2626953125 282.64" stroke-miterlimit="10"/></g><g transform="translate(-102,-150) scale(1,1)"><path fill="none" stroke="#000000" d="M 196.07287713068183 271.84 L 214.45251349431817 271.84" stroke-miterlimit="10"/></g><g transform="translate(-102,-150) scale(1,1)"><path fill="none" stroke="#000000" d="M 205.2626953125 282.64 L 192.49905894886365 300" stroke-miterlimit="10"/></g><g transform="translate(-102,-150) scale(1,1)"><path fill="none" stroke="#000000" d="M 205.2626953125 282.64 L 218.02633167613635 300" stroke-miterlimit="10"/></g><g transform="translate(-102,-150) scale(1,1)"><g><path fill="none" stroke="none"/><text fill="#000000" stroke="none" font-family="Arial" font-size="13px" font-style="normal" font-weight="bold" text-decoration="none" x="169.5" y="319">Public User</text></g></g><g transform="translate(-102,-150) scale(1,1)"><path fill="#ffffff" stroke="none" d="M 196.67521946022728 385.68 C 196.67521946022728 380.886167936 200.56106178517274 377 205.3544921875 377 C 210.14792258982726 377 214.03376491477272 380.886167936 214.03376491477272 385.68 C 214.03376491477272 390.473832064 210.14792258982726 394.36 205.3544921875 394.36 C 200.56106178517274 394.36 196.67521946022728 390.473832064 196.67521946022728 385.68 Z"/></g><g transform="translate(-102,-150) scale(1,1)"><path fill="none" stroke="#000000" d="M 196.67521946022728 385.68 C 196.67521946022728 380.886167936 200.56106178517274 377 205.3544921875 377 C 210.14792258982726 377 214.03376491477272 380.886167936 214.03376491477272 385.68 C 214.03376491477272 390.473832064 210.14792258982726 394.36 205.3544921875 394.36 C 200.56106178517274 394.36 196.67521946022728 390.473832064 196.67521946022728 385.68 Z" stroke-miterlimit="10"/></g><g transform="translate(-102,-150) scale(1,1)"><path fill="none" stroke="#000000" d="M 205.3544921875 394.36 L 205.3544921875 411.64" stroke-miterlimit="10"/></g><g transform="translate(-102,-150) scale(1,1)"><path fill="none" stroke="#000000" d="M 196.16467400568183 400.84 L 214.54431036931817 400.84" stroke-miterlimit="10"/></g><g transform="translate(-102,-150) scale(1,1)"><path fill="none" stroke="#000000" d="M 205.3544921875 411.64 L 192.59085582386365 429" stroke-miterlimit="10"/></g><g transform="translate(-102,-150) scale(1,1)"><path fill="none" stroke="#000000" d="M 205.3544921875 411.64 L 218.11812855113635 429" stroke-miterlimit="10"/></g><g transform="translate(-102,-150) scale(1,1)"><g><path fill="none" stroke="none"/><text fill="#000000" stroke="none" font-family="Arial" font-size="13px" font-style="normal" font-weight="bold" text-decoration="none" x="155.5" y="448">Registered User</text></g></g><g transform="translate(-102,-150) scale(1,1)"><path fill="#C0C0C0" stroke="none" d="M 386 293 C 386 278.6405952 428.9806592 267 482 267 C 535.0193408 267 578 278.6405952 578 293 C 578 307.3594048 535.0193408 319 482 319 C 428.9806592 319 386 307.3594048 386 293 Z" opacity="0.2"/></g><g transform="translate(-102,-150) scale(1,1)"><path fill="#ffa3ff" stroke="none" d="M 379 286 C 379 271.6405952 421.9806592 260 475 260 C 528.0193408 260 571 271.6405952 571 286 C 571 300.3594048 528.0193408 312 475 312 C 421.9806592 312 379 300.3594048 379 286 Z"/></g><g transform="translate(-102,-150) scale(1,1)"><path fill="none" stroke="#000000" d="M 379 286 C 379 271.6405952 421.9806592 260 475 260 C 528.0193408 260 571 271.6405952 571 286 C 571 300.3594048 528.0193408 312 475 312 C 421.9806592 312 379 300.3594048 379 286 Z" stroke-miterlimit="10"/></g><g transform="translate(-102,-150) scale(1,1)"><g><path fill="none" stroke="none"/><text fill="#000000" stroke="none" font-family="Arial" font-size="13px" font-style="normal" font-weight="bold" text-decoration="none" x="427.67822265625" y="285">Access to Main</text><text fill="#000000" stroke="none" font-family="Arial" font-size="13px" font-style="normal" font-weight="bold" text-decoration="none" x="434.54638671875" y="298">Page [UH-04]</text></g></g><g transform="translate(-102,-150) scale(1,1)"><path fill="none" stroke="#000000" d="M 247 286 L 378 286" stroke-miterlimit="10"/></g><g transform="translate(-102,-150) scale(1,1)"><path fill="#C0C0C0" stroke="none" d="M 374 422 C 374 407.6405952 422.3532416 396 482 396 C 541.6467584 396 590 407.6405952 590 422 C 590 436.3594048 541.6467584 448 482 448 C 422.3532416 448 374 436.3594048 374 422 Z" opacity="0.2"/></g><g transform="translate(-102,-150) scale(1,1)"><path fill="#ffa3ff" stroke="none" d="M 367 415 C 367 400.6405952 415.3532416 389 475 389 C 534.6467584 389 583 400.6405952 583 415 C 583 429.3594048 534.6467584 441 475 441 C 415.3532416 441 367 429.3594048 367 415 Z"/></g><g transform="translate(-102,-150) scale(1,1)"><path fill="none" stroke="#000000" d="M 367 415 C 367 400.6405952 415.3532416 389 475 389 C 534.6467584 389 583 400.6405952 583 415 C 583 429.3594048 534.6467584 441 475 441 C 415.3532416 441 367 429.3594048 367 415 Z" stroke-miterlimit="10"/></g><g transform="translate(-102,-150) scale(1,1)"><g><path fill="none" stroke="none"/><text fill="#000000" stroke="none" font-family="Arial" font-size="13px" font-style="normal" font-weight="bold" text-decoration="none" x="408.16552734375" y="414">Access to User Home</text><text fill="#000000" stroke="none" font-family="Arial" font-size="13px" font-style="normal" font-weight="bold" text-decoration="none" x="434.54638671875" y="427">Page [UH-06]</text></g></g><g transform="translate(-102,-150) scale(1,1)"><path fill="none" stroke="#000000" d="M 261 415 L 366 415" stroke-miterlimit="10"/></g><g transform="translate(-102,-150) scale(1,1)"><path fill="#C0C0C0" stroke="none" d="M 662 353 C 662 338.6405952 706.77152 327 762 327 C 817.22848 327 862 338.6405952 862 353 C 862 367.3594048 817.22848 379 762 379 C 706.77152 379 662 367.3594048 662 353 Z" opacity="0.2"/></g><g transform="translate(-102,-150) scale(1,1)"><path fill="#d1ffa3" stroke="none" d="M 655 346 C 655 331.6405952 699.77152 320 755 320 C 810.22848 320 855 331.6405952 855 346 C 855 360.3594048 810.22848 372 755 372 C 699.77152 372 655 360.3594048 655 346 Z"/></g><g transform="translate(-102,-150) scale(1,1)"><path fill="none" stroke="#000000" d="M 655 346 C 655 331.6405952 699.77152 320 755 320 C 810.22848 320 855 331.6405952 855 346 C 855 360.3594048 810.22848 372 755 372 C 699.77152 372 655 360.3594048 655 346 Z" stroke-miterlimit="10"/></g><g transform="translate(-102,-150) scale(1,1)"><g><path fill="none" stroke="none"/><text fill="#000000" stroke="none" font-family="Arial" font-size="13px" font-style="normal" font-weight="bold" text-decoration="none" x="693.59912109375" y="345">Access to About Us</text><text fill="#000000" stroke="none" font-family="Arial" font-size="13px" font-style="normal" font-weight="bold" text-decoration="none" x="713.10546875" y="358">Page [UH-XX]</text></g></g><g transform="translate(-102,-150) scale(1,1)"><path fill="none" stroke="#000000" d="M 654 371 L 584 388" stroke-miterlimit="10" stroke-dasharray="3"/></g><g transform="translate(-102,-150) scale(1,1)"><path fill="none" stroke="#000000" d="M 592.8821819918646 381.51102141601666 L 584 388 L 594.8690518778894 389.69225035847165" stroke-miterlimit="10"/></g><g transform="translate(-102,-150) scale(1,1)"><g><path fill="none" stroke="none"/><text fill="#000000" stroke="none" font-family="Arial" font-size="13px" font-style="normal" font-weight="normal" text-decoration="none" x="615.5" y="394">«extend»</text></g></g><g transform="translate(-102,-150) scale(1,1)"><path fill="none" stroke="#000000" d="M 654 324 L 572 307" stroke-miterlimit="10" stroke-dasharray="3"/></g><g transform="translate(-102,-150) scale(1,1)"><path fill="none" stroke="#000000" d="M 582.8056081887811 304.94115768681837 L 572 307 L 581.0965401861765 313.1848974640875" stroke-miterlimit="10"/></g><g transform="translate(-102,-150) scale(1,1)"><g><path fill="none" stroke="none"/><text fill="#000000" stroke="none" font-family="Arial" font-size="13px" font-style="normal" font-weight="normal" text-decoration="none" x="559.5" y="331">«extend»</text></g></g><g transform="translate(-102,-150) scale(1,1)"><path fill="none" stroke="#000000" d="M 572 307 L 654 324" stroke-miterlimit="10" stroke-dasharray="3"/></g><g transform="translate(-102,-150) scale(1,1)"><path fill="none" stroke="#000000" d="M 643.1943918112189 326.05884231318163 L 654 324 L 644.9034598138235 317.81510253591256" stroke-miterlimit="10"/></g><g transform="translate(-102,-150) scale(1,1)"><g><path fill="none" stroke="none"/><text fill="#000000" stroke="none" font-family="Arial" font-size="13px" font-style="normal" font-weight="normal" text-decoration="none" x="623.5" y="307">«extend»</text></g></g><g transform="translate(-102,-150) scale(1,1)"><path fill="none" stroke="#000000" d="M 584 388 L 654 371" stroke-miterlimit="10" stroke-dasharray="3"/></g><g transform="translate(-102,-150) scale(1,1)"><path fill="none" stroke="#000000" d="M 645.1178180081354 377.48897858398334 L 654 371 L 643.1309481221106 369.30774964152835" stroke-miterlimit="10"/></g><g transform="translate(-102,-150) scale(1,1)"><g><path fill="none" stroke="none"/><text fill="#000000" stroke="none" font-family="Arial" font-size="13px" font-style="normal" font-weight="normal" text-decoration="none" x="558.5" y="371">«extend»</text></g></g><g transform="translate(-102,-150) scale(1,1)"><path fill="#C0C0C0" stroke="none" d="M 685 465 C 685 450.6405952 719.4740704 439 762 439 C 804.5259296 439 839 450.6405952 839 465 C 839 479.3594048 804.5259296 491 762 491 C 719.4740704 491 685 479.3594048 685 465 Z" opacity="0.2"/></g><g transform="translate(-102,-150) scale(1,1)"><path fill="#d1ffa3" stroke="none" d="M 678 458 C 678 443.6405952 712.4740704 432 755 432 C 797.5259296 432 832 443.6405952 832 458 C 832 472.3594048 797.5259296 484 755 484 C 712.4740704 484 678 472.3594048 678 458 Z"/></g><g transform="translate(-102,-150) scale(1,1)"><path fill="none" stroke="#000000" d="M 678 458 C 678 443.6405952 712.4740704 432 755 432 C 797.5259296 432 832 443.6405952 832 458 C 832 472.3594048 797.5259296 484 755 484 C 712.4740704 484 678 472.3594048 678 458 Z" stroke-miterlimit="10"/></g><g transform="translate(-102,-150) scale(1,1)"><g><path fill="none" stroke="none"/><text fill="#000000" stroke="none" font-family="Arial" font-size="13px" font-style="normal" font-weight="bold" text-decoration="none" x="730.091796875" y="457">Log Out</text><text fill="#000000" stroke="none" font-family="Arial" font-size="13px" font-style="normal" font-weight="bold" text-decoration="none" x="731.88818359375" y="470">[UH-03]</text></g></g><g transform="translate(-102,-150) scale(1,1)"><path fill="none" stroke="#000000" d="M 677 446 L 584 432" stroke-miterlimit="10" stroke-dasharray="3"/></g><g transform="translate(-102,-150) scale(1,1)"><path fill="none" stroke="#000000" d="M 594.67607501833 429.35020336573007 L 584 432 L 593.4228142107751 437.67543587305994" stroke-miterlimit="10"/></g><g transform="translate(-102,-150) scale(1,1)"><g><path fill="none" stroke="none"/><text fill="#000000" stroke="none" font-family="Arial" font-size="13px" font-style="normal" font-weight="normal" text-decoration="none" x="558.5" y="455">«extend»</text></g></g></g></svg>