<svg version="1.1" xmlns="http://www.w3.org/2000/svg" xmlns:xlink="http://www.w3.org/1999/xlink" width="964" height="572"><defs/><g><text fill="#eeeeee" stroke="none" font-family="Arial" font-size="24px" font-style="normal" font-weight="normal" text-decoration="none" x="0" y="0">UNREGISTERED</text><text fill="#eeeeee" stroke="none" font-family="Arial" font-size="24px" font-style="normal" font-weight="normal" text-decoration="none" x="0" y="30">UNREGISTERED</text><text fill="#eeeeee" stroke="none" font-family="Arial" font-size="24px" font-style="normal" font-weight="normal" text-decoration="none" x="0" y="60">UNREGISTERED</text><text fill="#eeeeee" stroke="none" font-family="Arial" font-size="24px" font-style="normal" font-weight="normal" text-decoration="none" x="0" y="90">UNREGISTERED</text><text fill="#eeeeee" stroke="none" font-family="Arial" font-size="24px" font-style="normal" font-weight="normal" text-decoration="none" x="0" y="120">UNREGISTERED</text><text fill="#eeeeee" stroke="none" font-family="Arial" font-size="24px" font-style="normal" font-weight="normal" text-decoration="none" x="0" y="150">UNREGISTERED</text><text fill="#eeeeee" stroke="none" font-family="Arial" font-size="24px" font-style="normal" font-weight="normal" text-decoration="none" x="0" y="180">UNREGISTERED</text><text fill="#eeeeee" stroke="none" font-family="Arial" font-size="24px" font-style="normal" font-weight="normal" text-decoration="none" x="0" y="210">UNREGISTERED</text><text fill="#eeeeee" stroke="none" font-family="Arial" font-size="24px" font-style="normal" font-weight="normal" text-decoration="none" x="0" y="240">UNREGISTERED</text><text fill="#eeeeee" stroke="none" font-family="Arial" font-size="24px" font-style="normal" font-weight="normal" text-decoration="none" x="0" y="270">UNREGISTERED</text><text fill="#eeeeee" stroke="none" font-family="Arial" font-size="24px" font-style="normal" font-weight="normal" text-decoration="none" x="0" y="300">UNREGISTERED</text><text fill="#eeeeee" stroke="none" font-family="Arial" font-size="24px" font-style="normal" font-weight="normal" text-decoration="none" x="0" y="330">UNREGISTERED</text><text fill="#eeeeee" stroke="none" font-family="Arial" font-size="24px" font-style="normal" font-weight="normal" text-decoration="none" x="0" y="360">UNREGISTERED</text><text fill="#eeeeee" stroke="none" font-family="Arial" font-size="24px" font-style="normal" font-weight="normal" text-decoration="none" x="0" y="390">UNREGISTERED</text><text fill="#eeeeee" stroke="none" font-family="Arial" font-size="24px" font-style="normal" font-weight="normal" text-decoration="none" x="0" y="420">UNREGISTERED</text><text fill="#eeeeee" stroke="none" font-family="Arial" font-size="24px" font-style="normal" font-weight="normal" text-decoration="none" x="0" y="450">UNREGISTERED</text><text fill="#eeeeee" stroke="none" font-family="Arial" font-size="24px" font-style="normal" font-weight="normal" text-decoration="none" x="0" y="480">UNREGISTERED</text><text fill="#eeeeee" stroke="none" font-family="Arial" font-size="24px" font-style="normal" font-weight="normal" text-decoration="none" x="0" y="510">UNREGISTERED</text><text fill="#eeeeee" stroke="none" font-family="Arial" font-size="24px" font-style="normal" font-weight="normal" text-decoration="none" x="0" y="540">UNREGISTERED</text><text fill="#eeeeee" stroke="none" font-family="Arial" font-size="24px" font-style="normal" font-weight="normal" text-decoration="none" x="0" y="570">UNREGISTERED</text><text fill="#eeeeee" stroke="none" font-family="Arial" font-size="24px" font-style="normal" font-weight="normal" text-decoration="none" x="200" y="0">UNREGISTERED</text><text fill="#eeeeee" stroke="none" font-family="Arial" font-size="24px" font-style="normal" font-weight="normal" text-decoration="none" x="200" y="30">UNREGISTERED</text><text fill="#eeeeee" stroke="none" font-family="Arial" font-size="24px" font-style="normal" font-weight="normal" text-decoration="none" x="200" y="60">UNREGISTERED</text><text fill="#eeeeee" stroke="none" font-family="Arial" font-size="24px" font-style="normal" font-weight="normal" text-decoration="none" x="200" y="90">UNREGISTERED</text><text fill="#eeeeee" stroke="none" font-family="Arial" font-size="24px" font-style="normal" font-weight="normal" text-decoration="none" x="200" y="120">UNREGISTERED</text><text fill="#eeeeee" stroke="none" font-family="Arial" font-size="24px" font-style="normal" font-weight="normal" text-decoration="none" x="200" y="150">UNREGISTERED</text><text fill="#eeeeee" stroke="none" font-family="Arial" font-size="24px" font-style="normal" font-weight="normal" text-decoration="none" x="200" y="180">UNREGISTERED</text><text fill="#eeeeee" stroke="none" font-family="Arial" font-size="24px" font-style="normal" font-weight="normal" text-decoration="none" x="200" y="210">UNREGISTERED</text><text fill="#eeeeee" stroke="none" font-family="Arial" font-size="24px" font-style="normal" font-weight="normal" text-decoration="none" x="200" y="240">UNREGISTERED</text><text fill="#eeeeee" stroke="none" font-family="Arial" font-size="24px" font-style="normal" font-weight="normal" text-decoration="none" x="200" y="270">UNREGISTERED</text><text fill="#eeeeee" stroke="none" font-family="Arial" font-size="24px" font-style="normal" font-weight="normal" text-decoration="none" x="200" y="300">UNREGISTERED</text><text fill="#eeeeee" stroke="none" font-family="Arial" font-size="24px" font-style="normal" font-weight="normal" text-decoration="none" x="200" y="330">UNREGISTERED</text><text fill="#eeeeee" stroke="none" font-family="Arial" font-size="24px" font-style="normal" font-weight="normal" text-decoration="none" x="200" y="360">UNREGISTERED</text><text fill="#eeeeee" stroke="none" font-family="Arial" font-size="24px" font-style="normal" font-weight="normal" text-decoration="none" x="200" y="390">UNREGISTERED</text><text fill="#eeeeee" stroke="none" font-family="Arial" font-size="24px" font-style="normal" font-weight="normal" text-decoration="none" x="200" y="420">UNREGISTERED</text><text fill="#eeeeee" stroke="none" font-family="Arial" font-size="24px" font-style="normal" font-weight="normal" text-decoration="none" x="200" y="450">UNREGISTERED</text><text fill="#eeeeee" stroke="none" font-family="Arial" font-size="24px" font-style="normal" font-weight="normal" text-decoration="none" x="200" y="480">UNREGISTERED</text><text fill="#eeeeee" stroke="none" font-family="Arial" font-size="24px" font-style="normal" font-weight="normal" text-decoration="none" x="200" y="510">UNREGISTERED</text><text fill="#eeeeee" stroke="none" font-family="Arial" font-size="24px" font-style="normal" font-weight="normal" text-decoration="none" x="200" y="540">UNREGISTERED</text><text fill="#eeeeee" stroke="none" font-family="Arial" font-size="24px" font-style="normal" font-weight="normal" text-decoration="none" x="200" y="570">UNREGISTERED</text><text fill="#eeeeee" stroke="none" font-family="Arial" font-size="24px" font-style="normal" font-weight="normal" text-decoration="none" x="400" y="0">UNREGISTERED</text><text fill="#eeeeee" stroke="none" font-family="Arial" font-size="24px" font-style="normal" font-weight="normal" text-decoration="none" x="400" y="30">UNREGISTERED</text><text fill="#eeeeee" stroke="none" font-family="Arial" font-size="24px" font-style="normal" font-weight="normal" text-decoration="none" x="400" y="60">UNREGISTERED</text><text fill="#eeeeee" stroke="none" font-family="Arial" font-size="24px" font-style="normal" font-weight="normal" text-decoration="none" x="400" y="90">UNREGISTERED</text><text fill="#eeeeee" stroke="none" font-family="Arial" font-size="24px" font-style="normal" font-weight="normal" text-decoration="none" x="400" y="120">UNREGISTERED</text><text fill="#eeeeee" stroke="none" font-family="Arial" font-size="24px" font-style="normal" font-weight="normal" text-decoration="none" x="400" y="150">UNREGISTERED</text><text fill="#eeeeee" stroke="none" font-family="Arial" font-size="24px" font-style="normal" font-weight="normal" text-decoration="none" x="400" y="180">UNREGISTERED</text><text fill="#eeeeee" stroke="none" font-family="Arial" font-size="24px" font-style="normal" font-weight="normal" text-decoration="none" x="400" y="210">UNREGISTERED</text><text fill="#eeeeee" stroke="none" font-family="Arial" font-size="24px" font-style="normal" font-weight="normal" text-decoration="none" x="400" y="240">UNREGISTERED</text><text fill="#eeeeee" stroke="none" font-family="Arial" font-size="24px" font-style="normal" font-weight="normal" text-decoration="none" x="400" y="270">UNREGISTERED</text><text fill="#eeeeee" stroke="none" font-family="Arial" font-size="24px" font-style="normal" font-weight="normal" text-decoration="none" x="400" y="300">UNREGISTERED</text><text fill="#eeeeee" stroke="none" font-family="Arial" font-size="24px" font-style="normal" font-weight="normal" text-decoration="none" x="400" y="330">UNREGISTERED</text><text fill="#eeeeee" stroke="none" font-family="Arial" font-size="24px" font-style="normal" font-weight="normal" text-decoration="none" x="400" y="360">UNREGISTERED</text><text fill="#eeeeee" stroke="none" font-family="Arial" font-size="24px" font-style="normal" font-weight="normal" text-decoration="none" x="400" y="390">UNREGISTERED</text><text fill="#eeeeee" stroke="none" font-family="Arial" font-size="24px" font-style="normal" font-weight="normal" text-decoration="none" x="400" y="420">UNREGISTERED</text><text fill="#eeeeee" stroke="none" font-family="Arial" font-size="24px" font-style="normal" font-weight="normal" text-decoration="none" x="400" y="450">UNREGISTERED</text><text fill="#eeeeee" stroke="none" font-family="Arial" font-size="24px" font-style="normal" font-weight="normal" text-decoration="none" x="400" y="480">UNREGISTERED</text><text fill="#eeeeee" stroke="none" font-family="Arial" font-size="24px" font-style="normal" font-weight="normal" text-decoration="none" x="400" y="510">UNREGISTERED</text><text fill="#eeeeee" stroke="none" font-family="Arial" font-size="24px" font-style="normal" font-weight="normal" text-decoration="none" x="400" y="540">UNREGISTERED</text><text fill="#eeeeee" stroke="none" font-family="Arial" font-size="24px" font-style="normal" font-weight="normal" text-decoration="none" x="400" y="570">UNREGISTERED</text><text fill="#eeeeee" stroke="none" font-family="Arial" font-size="24px" font-style="normal" font-weight="normal" text-decoration="none" x="600" y="0">UNREGISTERED</text><text fill="#eeeeee" stroke="none" font-family="Arial" font-size="24px" font-style="normal" font-weight="normal" text-decoration="none" x="600" y="30">UNREGISTERED</text><text fill="#eeeeee" stroke="none" font-family="Arial" font-size="24px" font-style="normal" font-weight="normal" text-decoration="none" x="600" y="60">UNREGISTERED</text><text fill="#eeeeee" stroke="none" font-family="Arial" font-size="24px" font-style="normal" font-weight="normal" text-decoration="none" x="600" y="90">UNREGISTERED</text><text fill="#eeeeee" stroke="none" font-family="Arial" font-size="24px" font-style="normal" font-weight="normal" text-decoration="none" x="600" y="120">UNREGISTERED</text><text fill="#eeeeee" stroke="none" font-family="Arial" font-size="24px" font-style="normal" font-weight="normal" text-decoration="none" x="600" y="150">UNREGISTERED</text><text fill="#eeeeee" stroke="none" font-family="Arial" font-size="24px" font-style="normal" font-weight="normal" text-decoration="none" x="600" y="180">UNREGISTERED</text><text fill="#eeeeee" stroke="none" font-family="Arial" font-size="24px" font-style="normal" font-weight="normal" text-decoration="none" x="600" y="210">UNREGISTERED</text><text fill="#eeeeee" stroke="none" font-family="Arial" font-size="24px" font-style="normal" font-weight="normal" text-decoration="none" x="600" y="240">UNREGISTERED</text><text fill="#eeeeee" stroke="none" font-family="Arial" font-size="24px" font-style="normal" font-weight="normal" text-decoration="none" x="600" y="270">UNREGISTERED</text><text fill="#eeeeee" stroke="none" font-family="Arial" font-size="24px" font-style="normal" font-weight="normal" text-decoration="none" x="600" y="300">UNREGISTERED</text><text fill="#eeeeee" stroke="none" font-family="Arial" font-size="24px" font-style="normal" font-weight="normal" text-decoration="none" x="600" y="330">UNREGISTERED</text><text fill="#eeeeee" stroke="none" font-family="Arial" font-size="24px" font-style="normal" font-weight="normal" text-decoration="none" x="600" y="360">UNREGISTERED</text><text fill="#eeeeee" stroke="none" font-family="Arial" font-size="24px" font-style="normal" font-weight="normal" text-decoration="none" x="600" y="390">UNREGISTERED</text><text fill="#eeeeee" stroke="none" font-family="Arial" font-size="24px" font-style="normal" font-weight="normal" text-decoration="none" x="600" y="420">UNREGISTERED</text><text fill="#eeeeee" stroke="none" font-family="Arial" font-size="24px" font-style="normal" font-weight="normal" text-decoration="none" x="600" y="450">UNREGISTERED</text><text fill="#eeeeee" stroke="none" font-family="Arial" font-size="24px" font-style="normal" font-weight="normal" text-decoration="none" x="600" y="480">UNREGISTERED</text><text fill="#eeeeee" stroke="none" font-family="Arial" font-size="24px" font-style="normal" font-weight="normal" text-decoration="none" x="600" y="510">UNREGISTERED</text><text fill="#eeeeee" stroke="none" font-family="Arial" font-size="24px" font-style="normal" font-weight="normal" text-decoration="none" x="600" y="540">UNREGISTERED</text><text fill="#eeeeee" stroke="none" font-family="Arial" font-size="24px" font-style="normal" font-weight="normal" text-decoration="none" x="600" y="570">UNREGISTERED</text><text fill="#eeeeee" stroke="none" font-family="Arial" font-size="24px" font-style="normal" font-weight="normal" text-decoration="none" x="800" y="0">UNREGISTERED</text><text fill="#eeeeee" stroke="none" font-family="Arial" font-size="24px" font-style="normal" font-weight="normal" text-decoration="none" x="800" y="30">UNREGISTERED</text><text fill="#eeeeee" stroke="none" font-family="Arial" font-size="24px" font-style="normal" font-weight="normal" text-decoration="none" x="800" y="60">UNREGISTERED</text><text fill="#eeeeee" stroke="none" font-family="Arial" font-size="24px" font-style="normal" font-weight="normal" text-decoration="none" x="800" y="90">UNREGISTERED</text><text fill="#eeeeee" stroke="none" font-family="Arial" font-size="24px" font-style="normal" font-weight="normal" text-decoration="none" x="800" y="120">UNREGISTERED</text><text fill="#eeeeee" stroke="none" font-family="Arial" font-size="24px" font-style="normal" font-weight="normal" text-decoration="none" x="800" y="150">UNREGISTERED</text><text fill="#eeeeee" stroke="none" font-family="Arial" font-size="24px" font-style="normal" font-weight="normal" text-decoration="none" x="800" y="180">UNREGISTERED</text><text fill="#eeeeee" stroke="none" font-family="Arial" font-size="24px" font-style="normal" font-weight="normal" text-decoration="none" x="800" y="210">UNREGISTERED</text><text fill="#eeeeee" stroke="none" font-family="Arial" font-size="24px" font-style="normal" font-weight="normal" text-decoration="none" x="800" y="240">UNREGISTERED</text><text fill="#eeeeee" stroke="none" font-family="Arial" font-size="24px" font-style="normal" font-weight="normal" text-decoration="none" x="800" y="270">UNREGISTERED</text><text fill="#eeeeee" stroke="none" font-family="Arial" font-size="24px" font-style="normal" font-weight="normal" text-decoration="none" x="800" y="300">UNREGISTERED</text><text fill="#eeeeee" stroke="none" font-family="Arial" font-size="24px" font-style="normal" font-weight="normal" text-decoration="none" x="800" y="330">UNREGISTERED</text><text fill="#eeeeee" stroke="none" font-family="Arial" font-size="24px" font-style="normal" font-weight="normal" text-decoration="none" x="800" y="360">UNREGISTERED</text><text fill="#eeeeee" stroke="none" font-family="Arial" font-size="24px" font-style="normal" font-weight="normal" text-decoration="none" x="800" y="390">UNREGISTERED</text><text fill="#eeeeee" stroke="none" font-family="Arial" font-size="24px" font-style="normal" font-weight="normal" text-decoration="none" x="800" y="420">UNREGISTERED</text><text fill="#eeeeee" stroke="none" font-family="Arial" font-size="24px" font-style="normal" font-weight="normal" text-decoration="none" x="800" y="450">UNREGISTERED</text><text fill="#eeeeee" stroke="none" font-family="Arial" font-size="24px" font-style="normal" font-weight="normal" text-decoration="none" x="800" y="480">UNREGISTERED</text><text fill="#eeeeee" stroke="none" font-family="Arial" font-size="24px" font-style="normal" font-weight="normal" text-decoration="none" x="800" y="510">UNREGISTERED</text><text fill="#eeeeee" stroke="none" font-family="Arial" font-size="24px" font-style="normal" font-weight="normal" text-decoration="none" x="800" y="540">UNREGISTERED</text><text fill="#eeeeee" stroke="none" font-family="Arial" font-size="24px" font-style="normal" font-weight="normal" text-decoration="none" x="800" y="570">UNREGISTERED</text><g transform="translate(-118,-230) scale(1,1)"><rect fill="#C0C0C0" stroke="none" x="271" y="247" width="808" height="552" opacity="0.2"/></g><g transform="translate(-118,-230) scale(1,1)"><rect fill="#ffffff" stroke="none" x="264" y="240" width="808" height="552"/></g><g transform="translate(-118,-230) scale(1,1)"><path fill="none" stroke="#000000" d="M 264 240 L 1072 240 L 1072 792 L 264 792 L 264 240 Z Z" stroke-miterlimit="10"/></g><g transform="translate(-118,-230) scale(1,1)"><g><path fill="none" stroke="none"/><text fill="#000000" stroke="none" font-family="Arial" font-size="13px" font-style="normal" font-weight="bold" text-decoration="none" x="644.87548828125" y="258">System</text></g></g><g transform="translate(-118,-230) scale(1,1)"><path fill="#ffffff" stroke="none" d="M 163.92204563210228 473.68 C 163.92204563210228 468.886167936 167.80788795704774 465 172.601318359375 465 C 177.39474876170226 465 181.28059108664772 468.886167936 181.28059108664772 473.68 C 181.28059108664772 478.473832064 177.39474876170226 482.36 172.601318359375 482.36 C 167.80788795704774 482.36 163.92204563210228 478.473832064 163.92204563210228 473.68 Z"/></g><g transform="translate(-118,-230) scale(1,1)"><path fill="none" stroke="#000000" d="M 163.92204563210228 473.68 C 163.92204563210228 468.886167936 167.80788795704774 465 172.601318359375 465 C 177.39474876170226 465 181.28059108664772 468.886167936 181.28059108664772 473.68 C 181.28059108664772 478.473832064 177.39474876170226 482.36 172.601318359375 482.36 C 167.80788795704774 482.36 163.92204563210228 478.473832064 163.92204563210228 473.68 Z" stroke-miterlimit="10"/></g><g transform="translate(-118,-230) scale(1,1)"><path fill="none" stroke="#000000" d="M 172.601318359375 482.36 L 172.601318359375 499.64" stroke-miterlimit="10"/></g><g transform="translate(-118,-230) scale(1,1)"><path fill="none" stroke="#000000" d="M 163.41150017755683 488.84 L 181.79113654119317 488.84" stroke-miterlimit="10"/></g><g transform="translate(-118,-230) scale(1,1)"><path fill="none" stroke="#000000" d="M 172.601318359375 499.64 L 159.83768199573865 517" stroke-miterlimit="10"/></g><g transform="translate(-118,-230) scale(1,1)"><path fill="none" stroke="#000000" d="M 172.601318359375 499.64 L 185.36495472301135 517" stroke-miterlimit="10"/></g><g transform="translate(-118,-230) scale(1,1)"><g><path fill="none" stroke="none"/><text fill="#000000" stroke="none" font-family="Arial" font-size="13px" font-style="normal" font-weight="bold" text-decoration="none" x="133.220458984375" y="536">Pacient User</text></g></g><g transform="translate(-118,-230) scale(1,1)"><path fill="#C0C0C0" stroke="none" d="M 391 514.5 C 391 494.8938896 471.588736 479 571 479 C 670.411264 479 751 494.8938896 751 514.5 C 751 534.1061104 670.411264 550 571 550 C 471.588736 550 391 534.1061104 391 514.5 Z" opacity="0.2"/></g><g transform="translate(-118,-230) scale(1,1)"><path fill="#ffffff" stroke="none" d="M 384 507.5 C 384 487.8938896 464.588736 472 564 472 C 663.411264 472 744 487.8938896 744 507.5 C 744 527.1061104 663.411264 543 564 543 C 464.588736 543 384 527.1061104 384 507.5 Z"/></g><g transform="translate(-118,-230) scale(1,1)"><path fill="none" stroke="#000000" d="M 384 507.5 C 384 487.8938896 464.588736 472 564 472 C 663.411264 472 744 487.8938896 744 507.5 C 744 527.1061104 663.411264 543 564 543 C 464.588736 543 384 527.1061104 384 507.5 Z" stroke-miterlimit="10"/></g><g transform="translate(-118,-230) scale(1,1)"><g><path fill="none" stroke="none"/><text fill="#000000" stroke="none" font-family="Arial" font-size="13px" font-style="normal" font-weight="bold" text-decoration="none" x="452.3828125" y="506.5">Show Pacient User Dashboard Page</text><text fill="#000000" stroke="none" font-family="Arial" font-size="13px" font-style="normal" font-weight="bold" text-decoration="none" x="541.61181640625" y="519.5">[FR-09]</text></g></g><g transform="translate(-118,-230) scale(1,1)"><path fill="#C0C0C0" stroke="none" d="M 319 402.5 C 319 382.8938896 358.3989376 367 407 367 C 455.6010624 367 495 382.8938896 495 402.5 C 495 422.1061104 455.6010624 438 407 438 C 358.3989376 438 319 422.1061104 319 402.5 Z" opacity="0.2"/></g><g transform="translate(-118,-230) scale(1,1)"><path fill="#ffffff" stroke="none" d="M 312 395.5 C 312 375.8938896 351.3989376 360 400 360 C 448.6010624 360 488 375.8938896 488 395.5 C 488 415.1061104 448.6010624 431 400 431 C 351.3989376 431 312 415.1061104 312 395.5 Z"/></g><g transform="translate(-118,-230) scale(1,1)"><path fill="none" stroke="#000000" d="M 312 395.5 C 312 375.8938896 351.3989376 360 400 360 C 448.6010624 360 488 375.8938896 488 395.5 C 488 415.1061104 448.6010624 431 400 431 C 351.3989376 431 312 415.1061104 312 395.5 Z" stroke-miterlimit="10"/></g><g transform="translate(-118,-230) scale(1,1)"><g><path fill="none" stroke="none"/><text fill="#000000" stroke="none" font-family="Arial" font-size="13px" font-style="normal" font-weight="bold" text-decoration="none" x="369.2900390625" y="388">Access to</text><text fill="#000000" stroke="none" font-family="Arial" font-size="13px" font-style="normal" font-weight="bold" text-decoration="none" x="350.872314453125" y="401">Formulary Page</text><text fill="#000000" stroke="none" font-family="Arial" font-size="13px" font-style="normal" font-weight="bold" text-decoration="none" x="377.61181640625" y="414">[RF-10]</text></g></g><g transform="translate(-118,-230) scale(1,1)"><path fill="#C0C0C0" stroke="none" d="M 671 617 C 671 602.6405952 718.2339536 591 776.5 591 C 834.7660464 591 882 602.6405952 882 617 C 882 631.3594048 834.7660464 643 776.5 643 C 718.2339536 643 671 631.3594048 671 617 Z" opacity="0.2"/></g><g transform="translate(-118,-230) scale(1,1)"><path fill="#ffffff" stroke="none" d="M 664 610 C 664 595.6405952 711.2339536 584 769.5 584 C 827.7660464 584 875 595.6405952 875 610 C 875 624.3594048 827.7660464 636 769.5 636 C 711.2339536 636 664 624.3594048 664 610 Z"/></g><g transform="translate(-118,-230) scale(1,1)"><path fill="none" stroke="#000000" d="M 664 610 C 664 595.6405952 711.2339536 584 769.5 584 C 827.7660464 584 875 595.6405952 875 610 C 875 624.3594048 827.7660464 636 769.5 636 C 711.2339536 636 664 624.3594048 664 610 Z" stroke-miterlimit="10"/></g><g transform="translate(-118,-230) scale(1,1)"><g><path fill="none" stroke="none"/><text fill="#000000" stroke="none" font-family="Arial" font-size="13px" font-style="normal" font-weight="bold" text-decoration="none" x="716.75732421875" y="609">Access to Profile</text><text fill="#000000" stroke="none" font-family="Arial" font-size="13px" font-style="normal" font-weight="bold" text-decoration="none" x="729.77001953125" y="622">Page [RF-15]</text></g></g><g transform="translate(-118,-230) scale(1,1)"><path fill="#C0C0C0" stroke="none" d="M 503 338.5 C 503 318.8938896 537.0263552 303 579 303 C 620.9736448 303 655 318.8938896 655 338.5 C 655 358.1061104 620.9736448 374 579 374 C 537.0263552 374 503 358.1061104 503 338.5 Z" opacity="0.2"/></g><g transform="translate(-118,-230) scale(1,1)"><path fill="#ffffff" stroke="none" d="M 496 331.5 C 496 311.8938896 530.0263552 296 572 296 C 613.9736448 296 648 311.8938896 648 331.5 C 648 351.1061104 613.9736448 367 572 367 C 530.0263552 367 496 351.1061104 496 331.5 Z"/></g><g transform="translate(-118,-230) scale(1,1)"><path fill="none" stroke="#000000" d="M 496 331.5 C 496 311.8938896 530.0263552 296 572 296 C 613.9736448 296 648 311.8938896 648 331.5 C 648 351.1061104 613.9736448 367 572 367 C 530.0263552 367 496 351.1061104 496 331.5 Z" stroke-miterlimit="10"/></g><g transform="translate(-118,-230) scale(1,1)"><g><path fill="none" stroke="none"/><text fill="#000000" stroke="none" font-family="Arial" font-size="13px" font-style="normal" font-weight="bold" text-decoration="none" x="541.2900390625" y="324">Access to</text><text fill="#000000" stroke="none" font-family="Arial" font-size="13px" font-style="normal" font-weight="bold" text-decoration="none" x="523.595947265625" y="337">Diagnosis Page</text><text fill="#000000" stroke="none" font-family="Arial" font-size="13px" font-style="normal" font-weight="bold" text-decoration="none" x="549.970458984375" y="350">[FR-11]</text></g></g><g transform="translate(-118,-230) scale(1,1)"><path fill="#C0C0C0" stroke="none" d="M 671 378.5 C 671 358.8938896 724.725824 343 791 343 C 857.274176 343 911 358.8938896 911 378.5 C 911 398.1061104 857.274176 414 791 414 C 724.725824 414 671 398.1061104 671 378.5 Z" opacity="0.2"/></g><g transform="translate(-118,-230) scale(1,1)"><path fill="#ffffff" stroke="none" d="M 664 371.5 C 664 351.8938896 717.725824 336 784 336 C 850.274176 336 904 351.8938896 904 371.5 C 904 391.1061104 850.274176 407 784 407 C 717.725824 407 664 391.1061104 664 371.5 Z"/></g><g transform="translate(-118,-230) scale(1,1)"><path fill="none" stroke="#000000" d="M 664 371.5 C 664 351.8938896 717.725824 336 784 336 C 850.274176 336 904 351.8938896 904 371.5 C 904 391.1061104 850.274176 407 784 407 C 717.725824 407 664 391.1061104 664 371.5 Z" stroke-miterlimit="10"/></g><g transform="translate(-118,-230) scale(1,1)"><g><path fill="none" stroke="none"/><text fill="#000000" stroke="none" font-family="Arial" font-size="13px" font-style="normal" font-weight="bold" text-decoration="none" x="753.2900390625" y="364">Access to</text><text fill="#000000" stroke="none" font-family="Arial" font-size="13px" font-style="normal" font-weight="bold" text-decoration="none" x="708.50732421875" y="377">Recommendations Page</text><text fill="#000000" stroke="none" font-family="Arial" font-size="13px" font-style="normal" font-weight="bold" text-decoration="none" x="761.61181640625" y="390">[RF-12]</text></g></g><g transform="translate(-118,-230) scale(1,1)"><path fill="none" stroke="#000000" d="M 217 505 L 384 505" stroke-miterlimit="10"/></g><g transform="translate(-118,-230) scale(1,1)"><path fill="#C0C0C0" stroke="none" d="M 823 514.5 C 823 494.8938896 869.5623808 479 927 479 C 984.4376192 479 1031 494.8938896 1031 514.5 C 1031 534.1061104 984.4376192 550 927 550 C 869.5623808 550 823 534.1061104 823 514.5 Z" opacity="0.2"/></g><g transform="translate(-118,-230) scale(1,1)"><path fill="#ffffff" stroke="none" d="M 816 507.5 C 816 487.8938896 862.5623808 472 920 472 C 977.4376192 472 1024 487.8938896 1024 507.5 C 1024 527.1061104 977.4376192 543 920 543 C 862.5623808 543 816 527.1061104 816 507.5 Z"/></g><g transform="translate(-118,-230) scale(1,1)"><path fill="none" stroke="#000000" d="M 816 507.5 C 816 487.8938896 862.5623808 472 920 472 C 977.4376192 472 1024 487.8938896 1024 507.5 C 1024 527.1061104 977.4376192 543 920 543 C 862.5623808 543 816 527.1061104 816 507.5 Z" stroke-miterlimit="10"/></g><g transform="translate(-118,-230) scale(1,1)"><g><path fill="none" stroke="none"/><text fill="#000000" stroke="none" font-family="Arial" font-size="13px" font-style="normal" font-weight="bold" text-decoration="none" x="873.030517578125" y="500">Access to User</text><text fill="#000000" stroke="none" font-family="Arial" font-size="13px" font-style="normal" font-weight="bold" text-decoration="none" x="867.984130859375" y="513">DashBoard Page</text><text fill="#000000" stroke="none" font-family="Arial" font-size="13px" font-style="normal" font-weight="bold" text-decoration="none" x="895.447265625" y="526">[UH-XX]</text></g></g><g transform="translate(-118,-230) scale(1,1)"><path fill="none" stroke="#000000" d="M 745 507 L 815 507" stroke-miterlimit="10" stroke-dasharray="3"/></g><g transform="translate(-118,-230) scale(1,1)"><path fill="none" stroke="#000000" d="M 804.8373251423759 511.209517756016 L 815 507 L 804.8373251423758 502.790482243984" stroke-miterlimit="10"/></g><g transform="translate(-118,-230) scale(1,1)"><g><path fill="none" stroke="none"/><text fill="#000000" stroke="none" font-family="Arial" font-size="13px" font-style="normal" font-weight="normal" text-decoration="none" x="753.5" y="482">«extend»</text></g></g><g transform="translate(-118,-230) scale(1,1)"><path fill="#C0C0C0" stroke="none" d="M 303 642.5 C 303 622.8938896 354.93496319999997 607 419 607 C 483.06503680000003 607 535 622.8938896 535 642.5 C 535 662.1061104 483.06503680000003 678 419 678 C 354.93496319999997 678 303 662.1061104 303 642.5 Z" opacity="0.2"/></g><g transform="translate(-118,-230) scale(1,1)"><path fill="#ffffff" stroke="none" d="M 296 635.5 C 296 615.8938896 347.93496319999997 600 412 600 C 476.06503680000003 600 528 615.8938896 528 635.5 C 528 655.1061104 476.06503680000003 671 412 671 C 347.93496319999997 671 296 655.1061104 296 635.5 Z"/></g><g transform="translate(-118,-230) scale(1,1)"><path fill="none" stroke="#000000" d="M 296 635.5 C 296 615.8938896 347.93496319999997 600 412 600 C 476.06503680000003 600 528 615.8938896 528 635.5 C 528 655.1061104 476.06503680000003 671 412 671 C 347.93496319999997 671 296 655.1061104 296 635.5 Z" stroke-miterlimit="10"/></g><g transform="translate(-118,-230) scale(1,1)"><g><path fill="none" stroke="none"/><text fill="#000000" stroke="none" font-family="Arial" font-size="13px" font-style="normal" font-weight="bold" text-decoration="none" x="381.2900390625" y="628">Access to</text><text fill="#000000" stroke="none" font-family="Arial" font-size="13px" font-style="normal" font-weight="bold" text-decoration="none" x="336.50732421875" y="641">Recommendations Page</text><text fill="#000000" stroke="none" font-family="Arial" font-size="13px" font-style="normal" font-weight="bold" text-decoration="none" x="388.88818359375" y="654">[UH-13]</text></g></g><g transform="translate(-118,-230) scale(1,1)"><path fill="#C0C0C0" stroke="none" d="M 543 722.5 C 543 702.8938896 578.817216 687 623 687 C 667.182784 687 703 702.8938896 703 722.5 C 703 742.1061104 667.182784 758 623 758 C 578.817216 758 543 742.1061104 543 722.5 Z" opacity="0.2"/></g><g transform="translate(-118,-230) scale(1,1)"><path fill="#ffffff" stroke="none" d="M 536 715.5 C 536 695.8938896 571.817216 680 616 680 C 660.182784 680 696 695.8938896 696 715.5 C 696 735.1061104 660.182784 751 616 751 C 571.817216 751 536 735.1061104 536 715.5 Z"/></g><g transform="translate(-118,-230) scale(1,1)"><path fill="none" stroke="#000000" d="M 536 715.5 C 536 695.8938896 571.817216 680 616 680 C 660.182784 680 696 695.8938896 696 715.5 C 696 735.1061104 660.182784 751 616 751 C 571.817216 751 536 735.1061104 536 715.5 Z" stroke-miterlimit="10"/></g><g transform="translate(-118,-230) scale(1,1)"><g><path fill="none" stroke="none"/><text fill="#000000" stroke="none" font-family="Arial" font-size="13px" font-style="normal" font-weight="bold" text-decoration="none" x="585.2900390625" y="708">Access to</text><text fill="#000000" stroke="none" font-family="Arial" font-size="13px" font-style="normal" font-weight="bold" text-decoration="none" x="578.437744140625" y="721">Forum Page</text><text fill="#000000" stroke="none" font-family="Arial" font-size="13px" font-style="normal" font-weight="bold" text-decoration="none" x="592.88818359375" y="734">[UH-14]</text></g></g><g transform="translate(-118,-230) scale(1,1)"><path fill="none" stroke="#000000" d="M 455 599 L 520 544" stroke-miterlimit="10" stroke-dasharray="3"/></g><g transform="translate(-118,-230) scale(1,1)"><path fill="none" stroke="#000000" d="M 514.9610587258368 553.777989099786 L 520 544 L 509.52284805621156 547.3510128538653" stroke-miterlimit="10"/></g><g transform="translate(-118,-230) scale(1,1)"><g><path fill="none" stroke="none"/><text fill="#000000" stroke="none" font-family="Arial" font-size="13px" font-style="normal" font-weight="normal" text-decoration="none" x="441.5" y="552">«extend»</text></g></g><g transform="translate(-118,-230) scale(1,1)"><path fill="none" stroke="#000000" d="M 607 679 L 573 544" stroke-miterlimit="10" stroke-dasharray="3"/></g><g transform="translate(-118,-230) scale(1,1)"><path fill="none" stroke="#000000" d="M 579.5640305262182 552.8268625938595 L 573 544 L 571.3999361002844 554.8830048937243" stroke-miterlimit="10"/></g><g transform="translate(-118,-230) scale(1,1)"><g><path fill="none" stroke="none"/><text fill="#000000" stroke="none" font-family="Arial" font-size="13px" font-style="normal" font-weight="normal" text-decoration="none" x="612.5" y="668">«extend»</text></g></g><g transform="translate(-118,-230) scale(1,1)"><path fill="none" stroke="#000000" d="M 715 583 L 638 544" stroke-miterlimit="10" stroke-dasharray="3"/></g><g transform="translate(-118,-230) scale(1,1)"><path fill="none" stroke="#000000" d="M 648.9681387637911 544.8366194225708 L 638 544 L 645.1640660298996 552.347224563844" stroke-miterlimit="10"/></g><g transform="translate(-118,-230) scale(1,1)"><g><path fill="none" stroke="none"/><text fill="#000000" stroke="none" font-family="Arial" font-size="13px" font-style="normal" font-weight="normal" text-decoration="none" x="635.5" y="594">«extend»</text></g></g><g transform="translate(-118,-230) scale(1,1)"><path fill="none" stroke="#000000" d="M 724 408 L 622 471" stroke-miterlimit="10" stroke-dasharray="3"/></g><g transform="translate(-118,-230) scale(1,1)"><path fill="none" stroke="#000000" d="M 628.4343118046214 462.0781374365601 L 622 471 L 632.8584550287392 469.2410359898937" stroke-miterlimit="10"/></g><g transform="translate(-118,-230) scale(1,1)"><g><path fill="none" stroke="none"/><text fill="#000000" stroke="none" font-family="Arial" font-size="13px" font-style="normal" font-weight="normal" text-decoration="none" x="661.5" y="469">«extend»</text></g></g><g transform="translate(-118,-230) scale(1,1)"><path fill="none" stroke="#000000" d="M 570 368 L 566 471" stroke-miterlimit="10" stroke-dasharray="3"/></g><g transform="translate(-118,-230) scale(1,1)"><path fill="none" stroke="#000000" d="M 562.1880226691472 460.6816266384151 L 566 471 L 570.6007167544159 461.0083332048333" stroke-miterlimit="10"/></g><g transform="translate(-118,-230) scale(1,1)"><g><path fill="none" stroke="none"/><text fill="#000000" stroke="none" font-family="Arial" font-size="13px" font-style="normal" font-weight="normal" text-decoration="none" x="570.5" y="425">«extend»</text></g></g><g transform="translate(-118,-230) scale(1,1)"><path fill="none" stroke="#000000" d="M 454 432 L 511 471" stroke-miterlimit="10" stroke-dasharray="3"/></g><g transform="translate(-118,-230) scale(1,1)"><path fill="none" stroke="#000000" d="M 500.2356236770606 468.7354465389086 L 511 471 L 504.9897176155028 461.78715539810844" stroke-miterlimit="10"/></g><g transform="translate(-118,-230) scale(1,1)"><g><path fill="none" stroke="none"/><text fill="#000000" stroke="none" font-family="Arial" font-size="13px" font-style="normal" font-weight="normal" text-decoration="none" x="472.5" y="431">«extend»</text></g></g></g></svg>