<svg xmlns="http://www.w3.org/2000/svg" xmlns:xlink="http://www.w3.org/1999/xlink" version="1.1" width="828" height="540"><defs/><g><g transform="translate(-94,-230) scale(1,1)"><rect fill="#C0C0C0" stroke="none" x="111" y="247" width="808" height="520" opacity="0.2"/></g><g transform="translate(-94,-230) scale(1,1)"><rect fill="#ffffff" stroke="none" x="104" y="240" width="808" height="520"/></g><g transform="translate(-94,-230) scale(1,1)"><path fill="none" stroke="#000000" d="M 104 240 L 912 240 L 912 760 L 104 760 L 104 240 Z Z" stroke-miterlimit="10"/></g><g transform="translate(-94,-230) scale(1,1)"><g><path fill="none" stroke="none"/><text fill="#000000" stroke="none" font-family="Arial" font-size="13px" font-style="normal" font-weight="bold" text-decoration="none" x="508" y="253"/></g></g><g transform="translate(-94,-230) scale(1,1)"><rect fill="#C0C0C0" stroke="none" x="271" y="271" width="592" height="472" opacity="0.2"/></g><g transform="translate(-94,-230) scale(1,1)"><rect fill="#ffffd8" stroke="none" x="264" y="264" width="592" height="472"/></g><g transform="translate(-94,-230) scale(1,1)"><path fill="none" stroke="#000000" d="M 264 264 L 856 264 L 856 736 L 264 736 L 264 264 Z Z" stroke-miterlimit="10"/></g><g transform="translate(-94,-230) scale(1,1)"><g><path fill="none" stroke="none"/><text fill="#000000" stroke="none" font-family="Arial" font-size="13px" font-style="normal" font-weight="bold" text-decoration="none" x="536.87548828125" y="282">System</text></g></g><g transform="translate(-94,-230) scale(1,1)"><path fill="#ffffff" stroke="none" d="M 179.92204563210228 481.68 C 179.92204563210228 476.886167936 183.80788795704774 473 188.601318359375 473 C 193.39474876170226 473 197.28059108664772 476.886167936 197.28059108664772 481.68 C 197.28059108664772 486.473832064 193.39474876170226 490.36 188.601318359375 490.36 C 183.80788795704774 490.36 179.92204563210228 486.473832064 179.92204563210228 481.68 Z"/></g><g transform="translate(-94,-230) scale(1,1)"><path fill="none" stroke="#000000" d="M 179.92204563210228 481.68 C 179.92204563210228 476.886167936 183.80788795704774 473 188.601318359375 473 C 193.39474876170226 473 197.28059108664772 476.886167936 197.28059108664772 481.68 C 197.28059108664772 486.473832064 193.39474876170226 490.36 188.601318359375 490.36 C 183.80788795704774 490.36 179.92204563210228 486.473832064 179.92204563210228 481.68 Z" stroke-miterlimit="10"/></g><g transform="translate(-94,-230) scale(1,1)"><path fill="none" stroke="#000000" d="M 188.601318359375 490.36 L 188.601318359375 507.64" stroke-miterlimit="10"/></g><g transform="translate(-94,-230) scale(1,1)"><path fill="none" stroke="#000000" d="M 179.41150017755683 496.84 L 197.79113654119317 496.84" stroke-miterlimit="10"/></g><g transform="translate(-94,-230) scale(1,1)"><path fill="none" stroke="#000000" d="M 188.601318359375 507.64 L 175.83768199573865 525" stroke-miterlimit="10"/></g><g transform="translate(-94,-230) scale(1,1)"><path fill="none" stroke="#000000" d="M 188.601318359375 507.64 L 201.36495472301135 525" stroke-miterlimit="10"/></g><g transform="translate(-94,-230) scale(1,1)"><g><path fill="none" stroke="none"/><text fill="#000000" stroke="none" font-family="Arial" font-size="13px" font-style="normal" font-weight="bold" text-decoration="none" x="150.6708984375" y="544">Patient User</text></g></g><g transform="translate(-94,-230) scale(1,1)"><path fill="#C0C0C0" stroke="none" d="M 306 514.5 C 306 494.8938896 361.5166848 479 430 479 C 498.4833152 479 554 494.8938896 554 514.5 C 554 534.1061104 498.4833152 550 430 550 C 361.5166848 550 306 534.1061104 306 514.5 Z" opacity="0.2"/></g><g transform="translate(-94,-230) scale(1,1)"><path fill="#ffa3ff" stroke="none" d="M 299 507.5 C 299 487.8938896 354.5166848 472 423 472 C 491.4833152 472 547 487.8938896 547 507.5 C 547 527.1061104 491.4833152 543 423 543 C 354.5166848 543 299 527.1061104 299 507.5 Z"/></g><g transform="translate(-94,-230) scale(1,1)"><path fill="none" stroke="#000000" d="M 299 507.5 C 299 487.8938896 354.5166848 472 423 472 C 491.4833152 472 547 487.8938896 547 507.5 C 547 527.1061104 491.4833152 543 423 543 C 354.5166848 543 299 527.1061104 299 507.5 Z" stroke-miterlimit="10"/></g><g transform="translate(-94,-230) scale(1,1)"><g><path fill="none" stroke="none"/><text fill="#000000" stroke="none" font-family="Arial" font-size="13px" font-style="normal" font-weight="bold" text-decoration="none" x="346.06640625" y="506.5">Show Patient User Home</text><text fill="#000000" stroke="none" font-family="Arial" font-size="13px" font-style="normal" font-weight="bold" text-decoration="none" x="382.54638671875" y="519.5">Page [UH-07]</text></g></g><g transform="translate(-94,-230) scale(1,1)"><path fill="#C0C0C0" stroke="none" d="M 639 458.5 C 639 438.8938896 678.3989376 423 727 423 C 775.6010624 423 815 438.8938896 815 458.5 C 815 478.1061104 775.6010624 494 727 494 C 678.3989376 494 639 478.1061104 639 458.5 Z" opacity="0.2"/></g><g transform="translate(-94,-230) scale(1,1)"><path fill="#d1ffa3" stroke="none" d="M 632 451.5 C 632 431.8938896 671.3989376 416 720 416 C 768.6010624 416 808 431.8938896 808 451.5 C 808 471.1061104 768.6010624 487 720 487 C 671.3989376 487 632 471.1061104 632 451.5 Z"/></g><g transform="translate(-94,-230) scale(1,1)"><path fill="none" stroke="#000000" d="M 632 451.5 C 632 431.8938896 671.3989376 416 720 416 C 768.6010624 416 808 431.8938896 808 451.5 C 808 471.1061104 768.6010624 487 720 487 C 671.3989376 487 632 471.1061104 632 451.5 Z" stroke-miterlimit="10"/></g><g transform="translate(-94,-230) scale(1,1)"><g><path fill="none" stroke="none"/><text fill="#000000" stroke="none" font-family="Arial" font-size="13px" font-style="normal" font-weight="bold" text-decoration="none" x="689.2900390625" y="444">Access to</text><text fill="#000000" stroke="none" font-family="Arial" font-size="13px" font-style="normal" font-weight="bold" text-decoration="none" x="670.872314453125" y="457">Formulary Page</text><text fill="#000000" stroke="none" font-family="Arial" font-size="13px" font-style="normal" font-weight="bold" text-decoration="none" x="696.88818359375" y="470">[UH-08]</text></g></g><g transform="translate(-94,-230) scale(1,1)"><path fill="#C0C0C0" stroke="none" d="M 566 658.5 C 566 638.8938896 600.0263552 623 642 623 C 683.9736448 623 718 638.8938896 718 658.5 C 718 678.1061104 683.9736448 694 642 694 C 600.0263552 694 566 678.1061104 566 658.5 Z" opacity="0.2"/></g><g transform="translate(-94,-230) scale(1,1)"><path fill="#d1ffa3" stroke="none" d="M 559 651.5 C 559 631.8938896 593.0263552 616 635 616 C 676.9736448 616 711 631.8938896 711 651.5 C 711 671.1061104 676.9736448 687 635 687 C 593.0263552 687 559 671.1061104 559 651.5 Z"/></g><g transform="translate(-94,-230) scale(1,1)"><path fill="none" stroke="#000000" d="M 559 651.5 C 559 631.8938896 593.0263552 616 635 616 C 676.9736448 616 711 631.8938896 711 651.5 C 711 671.1061104 676.9736448 687 635 687 C 593.0263552 687 559 671.1061104 559 651.5 Z" stroke-miterlimit="10"/></g><g transform="translate(-94,-230) scale(1,1)"><g><path fill="none" stroke="none"/><text fill="#000000" stroke="none" font-family="Arial" font-size="13px" font-style="normal" font-weight="bold" text-decoration="none" x="604.2900390625" y="644">Access to</text><text fill="#000000" stroke="none" font-family="Arial" font-size="13px" font-style="normal" font-weight="bold" text-decoration="none" x="597.431396484375" y="657">Profile Page</text><text fill="#000000" stroke="none" font-family="Arial" font-size="13px" font-style="normal" font-weight="bold" text-decoration="none" x="611.88818359375" y="670">[UH-12]</text></g></g><g transform="translate(-94,-230) scale(1,1)"><path fill="#C0C0C0" stroke="none" d="M 566 370.5 C 566 350.8938896 600.0263552 335 642 335 C 683.9736448 335 718 350.8938896 718 370.5 C 718 390.1061104 683.9736448 406 642 406 C 600.0263552 406 566 390.1061104 566 370.5 Z" opacity="0.2"/></g><g transform="translate(-94,-230) scale(1,1)"><path fill="#d1ffa3" stroke="none" d="M 559 363.5 C 559 343.8938896 593.0263552 328 635 328 C 676.9736448 328 711 343.8938896 711 363.5 C 711 383.1061104 676.9736448 399 635 399 C 593.0263552 399 559 383.1061104 559 363.5 Z"/></g><g transform="translate(-94,-230) scale(1,1)"><path fill="none" stroke="#000000" d="M 559 363.5 C 559 343.8938896 593.0263552 328 635 328 C 676.9736448 328 711 343.8938896 711 363.5 C 711 383.1061104 676.9736448 399 635 399 C 593.0263552 399 559 383.1061104 559 363.5 Z" stroke-miterlimit="10"/></g><g transform="translate(-94,-230) scale(1,1)"><g><path fill="none" stroke="none"/><text fill="#000000" stroke="none" font-family="Arial" font-size="13px" font-style="normal" font-weight="bold" text-decoration="none" x="604.2900390625" y="356">Access to</text><text fill="#000000" stroke="none" font-family="Arial" font-size="13px" font-style="normal" font-weight="bold" text-decoration="none" x="586.595947265625" y="369">Diagnosis Page</text><text fill="#000000" stroke="none" font-family="Arial" font-size="13px" font-style="normal" font-weight="bold" text-decoration="none" x="611.88818359375" y="382">[UH-09]</text></g></g><g transform="translate(-94,-230) scale(1,1)"><path fill="#C0C0C0" stroke="none" d="M 639 554.5 C 639 534.8938896 678.6227952 519 727.5 519 C 776.3772048 519 816 534.8938896 816 554.5 C 816 574.1061104 776.3772048 590 727.5 590 C 678.6227952 590 639 574.1061104 639 554.5 Z" opacity="0.2"/></g><g transform="translate(-94,-230) scale(1,1)"><path fill="#d1ffa3" stroke="none" d="M 632 547.5 C 632 527.8938896 671.6227952 512 720.5 512 C 769.3772048 512 809 527.8938896 809 547.5 C 809 567.1061104 769.3772048 583 720.5 583 C 671.6227952 583 632 567.1061104 632 547.5 Z"/></g><g transform="translate(-94,-230) scale(1,1)"><path fill="none" stroke="#000000" d="M 632 547.5 C 632 527.8938896 671.6227952 512 720.5 512 C 769.3772048 512 809 527.8938896 809 547.5 C 809 567.1061104 769.3772048 583 720.5 583 C 671.6227952 583 632 567.1061104 632 547.5 Z" stroke-miterlimit="10"/></g><g transform="translate(-94,-230) scale(1,1)"><g><path fill="none" stroke="none"/><text fill="#000000" stroke="none" font-family="Arial" font-size="13px" font-style="normal" font-weight="bold" text-decoration="none" x="689.7900390625" y="540">Access to</text><text fill="#000000" stroke="none" font-family="Arial" font-size="13px" font-style="normal" font-weight="bold" text-decoration="none" x="662.34912109375" y="553">Recommendations</text><text fill="#000000" stroke="none" font-family="Arial" font-size="13px" font-style="normal" font-weight="bold" text-decoration="none" x="680.04638671875" y="566">Page [UH-10]</text></g></g><g transform="translate(-94,-230) scale(1,1)"><path fill="none" stroke="#000000" d="M 233 505 L 299 505" stroke-miterlimit="10"/></g><g transform="translate(-94,-230) scale(1,1)"><path fill="#C0C0C0" stroke="none" d="M 326 370.5 C 326 350.8938896 372.5623808 335 430 335 C 487.4376192 335 534 350.8938896 534 370.5 C 534 390.1061104 487.4376192 406 430 406 C 372.5623808 406 326 390.1061104 326 370.5 Z" opacity="0.2"/></g><g transform="translate(-94,-230) scale(1,1)"><path fill="#ffd8ff" stroke="none" d="M 319 363.5 C 319 343.8938896 365.5623808 328 423 328 C 480.4376192 328 527 343.8938896 527 363.5 C 527 383.1061104 480.4376192 399 423 399 C 365.5623808 399 319 383.1061104 319 363.5 Z"/></g><g transform="translate(-94,-230) scale(1,1)"><path fill="none" stroke="#000000" d="M 319 363.5 C 319 343.8938896 365.5623808 328 423 328 C 480.4376192 328 527 343.8938896 527 363.5 C 527 383.1061104 480.4376192 399 423 399 C 365.5623808 399 319 383.1061104 319 363.5 Z" stroke-miterlimit="10"/></g><g transform="translate(-94,-230) scale(1,1)"><g><path fill="none" stroke="none"/><text fill="#000000" stroke="none" font-family="Arial" font-size="13px" font-style="normal" font-weight="bold" text-decoration="none" x="356.16552734375" y="362.5">Access to User Home</text><text fill="#000000" stroke="none" font-family="Arial" font-size="13px" font-style="normal" font-weight="bold" text-decoration="none" x="382.54638671875" y="375.5">Page [UH-06]</text></g></g><g transform="translate(-94,-230) scale(1,1)"><path fill="none" stroke="#000000" d="M 423 471 L 423 400" stroke-miterlimit="10" stroke-dasharray="3"/></g><g transform="translate(-94,-230) scale(1,1)"><path fill="none" stroke="#000000" d="M 427.209517756016 410.16267485762415 L 423 400 L 418.790482243984 410.16267485762415" stroke-miterlimit="10"/></g><g transform="translate(-94,-230) scale(1,1)"><g><path fill="none" stroke="none"/><text fill="#000000" stroke="none" font-family="Arial" font-size="13px" font-style="normal" font-weight="normal" text-decoration="none" x="358.5" y="439">«extend»</text></g></g><g transform="translate(-94,-230) scale(1,1)"><path fill="none" stroke="#000000" d="M 582 615 L 477 544" stroke-miterlimit="10" stroke-dasharray="3"/></g><g transform="translate(-94,-230) scale(1,1)"><path fill="none" stroke="#000000" d="M 487.7766313383161 546.2054969956959 L 477 544 L 483.0607072161277 553.1797509792138" stroke-miterlimit="10"/></g><g transform="translate(-94,-230) scale(1,1)"><g><path fill="none" stroke="none"/><text fill="#000000" stroke="none" font-family="Arial" font-size="13px" font-style="normal" font-weight="normal" text-decoration="none" x="485.5" y="603">«extend»</text></g></g><g transform="translate(-94,-230) scale(1,1)"><path fill="none" stroke="#000000" d="M 631 535 L 548 524" stroke-miterlimit="10" stroke-dasharray="3"/></g><g transform="translate(-94,-230) scale(1,1)"><path fill="none" stroke="#000000" d="M 558.6276358884616 521.1621565543032 L 548 524 L 557.5215317491106 529.5082150603147" stroke-miterlimit="10"/></g><g transform="translate(-94,-230) scale(1,1)"><g><path fill="none" stroke="none"/><text fill="#000000" stroke="none" font-family="Arial" font-size="13px" font-style="normal" font-weight="normal" text-decoration="none" x="558.5" y="563">«extend»</text></g></g><g transform="translate(-94,-230) scale(1,1)"><path fill="none" stroke="#000000" d="M 581 400 L 476 471" stroke-miterlimit="10" stroke-dasharray="3"/></g><g transform="translate(-94,-230) scale(1,1)"><path fill="none" stroke="#000000" d="M 482.0607072161277 461.82024902078615 L 476 471 L 486.7766313383161 468.7945030043042" stroke-miterlimit="10"/></g><g transform="translate(-94,-230) scale(1,1)"><g><path fill="none" stroke="none"/><text fill="#000000" stroke="none" font-family="Arial" font-size="13px" font-style="normal" font-weight="normal" text-decoration="none" x="467.5" y="434">«extend»</text></g></g><g transform="translate(-94,-230) scale(1,1)"><path fill="none" stroke="#000000" d="M 631 468 L 548 483" stroke-miterlimit="10" stroke-dasharray="3"/></g><g transform="translate(-94,-230) scale(1,1)"><path fill="none" stroke="#000000" d="M 557.2520431690464 477.0502355342331 L 548 483 L 558.7493012648699 485.33506366445675" stroke-miterlimit="10"/></g><g transform="translate(-94,-230) scale(1,1)"><g><path fill="none" stroke="none"/><text fill="#000000" stroke="none" font-family="Arial" font-size="13px" font-style="normal" font-weight="normal" text-decoration="none" x="551.5" y="458">«extend»</text></g></g><g transform="translate(-94,-230) scale(1,1)"><path fill="#C0C0C0" stroke="none" d="M 318 658.5 C 318 638.8938896 368.1441024 623 430 623 C 491.8558976 623 542 638.8938896 542 658.5 C 542 678.1061104 491.8558976 694 430 694 C 368.1441024 694 318 678.1061104 318 658.5 Z" opacity="0.2"/></g><g transform="translate(-94,-230) scale(1,1)"><path fill="#d1ffa3" stroke="none" d="M 311 651.5 C 311 631.8938896 361.1441024 616 423 616 C 484.8558976 616 535 631.8938896 535 651.5 C 535 671.1061104 484.8558976 687 423 687 C 361.1441024 687 311 671.1061104 311 651.5 Z"/></g><g transform="translate(-94,-230) scale(1,1)"><path fill="none" stroke="#000000" d="M 311 651.5 C 311 631.8938896 361.1441024 616 423 616 C 484.8558976 616 535 631.8938896 535 651.5 C 535 671.1061104 484.8558976 687 423 687 C 361.1441024 687 311 671.1061104 311 651.5 Z" stroke-miterlimit="10"/></g><g transform="translate(-94,-230) scale(1,1)"><g><path fill="none" stroke="none"/><text fill="#000000" stroke="none" font-family="Arial" font-size="13px" font-style="normal" font-weight="bold" text-decoration="none" x="352.2109375" y="650.5">Show to Psychological</text><text fill="#000000" stroke="none" font-family="Arial" font-size="13px" font-style="normal" font-weight="bold" text-decoration="none" x="360.53271484375" y="663.5">Help pop-up [UH-11]</text></g></g><g transform="translate(-94,-230) scale(1,1)"><path fill="none" stroke="#000000" d="M 423 615 L 423 544" stroke-miterlimit="10" stroke-dasharray="3"/></g><g transform="translate(-94,-230) scale(1,1)"><path fill="none" stroke="#000000" d="M 427.209517756016 554.1626748576241 L 423 544 L 418.790482243984 554.1626748576241" stroke-miterlimit="10"/></g><g transform="translate(-94,-230) scale(1,1)"><g><path fill="none" stroke="none"/><text fill="#000000" stroke="none" font-family="Arial" font-size="13px" font-style="normal" font-weight="normal" text-decoration="none" x="350.5" y="583">«extend»</text></g></g></g></svg> 