<svg xmlns="http://www.w3.org/2000/svg" xmlns:xlink="http://www.w3.org/1999/xlink" version="1.1" width="620" height="428"><defs/><g><g transform="translate(-134,-126) scale(1,1)"><rect fill="#C0C0C0" stroke="none" x="151" y="143" width="600" height="408" opacity="0.2"/></g><g transform="translate(-134,-126) scale(1,1)"><rect fill="#ffffff" stroke="none" x="144" y="136" width="600" height="408"/></g><g transform="translate(-134,-126) scale(1,1)"><path fill="none" stroke="#000000" d="M 144 136 L 744 136 L 744 544 L 144 544 L 144 136 Z Z" stroke-miterlimit="10"/></g><g transform="translate(-134,-126) scale(1,1)"><g><path fill="none" stroke="none"/><text fill="#000000" stroke="none" font-family="Arial" font-size="13px" font-style="normal" font-weight="bold" text-decoration="none" x="444" y="149"/></g></g><g transform="translate(-134,-126) scale(1,1)"><rect fill="#C0C0C0" stroke="none" x="287" y="167" width="408" height="360" opacity="0.2"/></g><g transform="translate(-134,-126) scale(1,1)"><rect fill="#ffffd8" stroke="none" x="280" y="160" width="408" height="360"/></g><g transform="translate(-134,-126) scale(1,1)"><path fill="none" stroke="#000000" d="M 280 160 L 688 160 L 688 520 L 280 520 L 280 160 Z Z" stroke-miterlimit="10"/></g><g transform="translate(-134,-126) scale(1,1)"><g><path fill="none" stroke="none"/><text fill="#000000" stroke="none" font-family="Arial" font-size="13px" font-style="normal" font-weight="bold" text-decoration="none" x="460.87548828125" y="178">System</text></g></g><g transform="translate(-134,-126) scale(1,1)"><path fill="#ffffff" stroke="none" d="M 207.58342258522728 321.68 C 207.58342258522728 316.886167936 211.46926491017274 313 216.2626953125 313 C 221.05612571482726 313 224.94196803977272 316.886167936 224.94196803977272 321.68 C 224.94196803977272 326.473832064 221.05612571482726 330.36 216.2626953125 330.36 C 211.46926491017274 330.36 207.58342258522728 326.473832064 207.58342258522728 321.68 Z"/></g><g transform="translate(-134,-126) scale(1,1)"><path fill="none" stroke="#000000" d="M 207.58342258522728 321.68 C 207.58342258522728 316.886167936 211.46926491017274 313 216.2626953125 313 C 221.05612571482726 313 224.94196803977272 316.886167936 224.94196803977272 321.68 C 224.94196803977272 326.473832064 221.05612571482726 330.36 216.2626953125 330.36 C 211.46926491017274 330.36 207.58342258522728 326.473832064 207.58342258522728 321.68 Z" stroke-miterlimit="10"/></g><g transform="translate(-134,-126) scale(1,1)"><path fill="none" stroke="#000000" d="M 216.2626953125 330.36 L 216.2626953125 347.64" stroke-miterlimit="10"/></g><g transform="translate(-134,-126) scale(1,1)"><path fill="none" stroke="#000000" d="M 207.07287713068183 336.84 L 225.45251349431817 336.84" stroke-miterlimit="10"/></g><g transform="translate(-134,-126) scale(1,1)"><path fill="none" stroke="#000000" d="M 216.2626953125 347.64 L 203.49905894886365 365" stroke-miterlimit="10"/></g><g transform="translate(-134,-126) scale(1,1)"><path fill="none" stroke="#000000" d="M 216.2626953125 347.64 L 229.02633167613635 365" stroke-miterlimit="10"/></g><g transform="translate(-134,-126) scale(1,1)"><g><path fill="none" stroke="none"/><text fill="#000000" stroke="none" font-family="Arial" font-size="13px" font-style="normal" font-weight="bold" text-decoration="none" x="180.5" y="384">Public User</text></g></g><g transform="translate(-134,-126) scale(1,1)"><path fill="#C0C0C0" stroke="none" d="M 386 353 C 386 338.6405952 432.5623808 327 490 327 C 547.4376192 327 594 338.6405952 594 353 C 594 367.3594048 547.4376192 379 490 379 C 432.5623808 379 386 367.3594048 386 353 Z" opacity="0.2"/></g><g transform="translate(-134,-126) scale(1,1)"><path fill="#ffa3ff" stroke="none" d="M 379 346 C 379 331.6405952 425.5623808 320 483 320 C 540.4376192 320 587 331.6405952 587 346 C 587 360.3594048 540.4376192 372 483 372 C 425.5623808 372 379 360.3594048 379 346 Z"/></g><g transform="translate(-134,-126) scale(1,1)"><path fill="none" stroke="#000000" d="M 379 346 C 379 331.6405952 425.5623808 320 483 320 C 540.4376192 320 587 331.6405952 587 346 C 587 360.3594048 540.4376192 372 483 372 C 425.5623808 372 379 360.3594048 379 346 Z" stroke-miterlimit="10"/></g><g transform="translate(-134,-126) scale(1,1)"><g><path fill="none" stroke="none"/><text fill="#000000" stroke="none" font-family="Arial" font-size="13px" font-style="normal" font-weight="bold" text-decoration="none" x="418.33642578125" y="345">Access to Main Page</text><text fill="#000000" stroke="none" font-family="Arial" font-size="13px" font-style="normal" font-weight="bold" text-decoration="none" x="459.88818359375" y="358">[UH-04]</text></g></g><g transform="translate(-134,-126) scale(1,1)"><path fill="#C0C0C0" stroke="none" d="M 527 249 C 527 234.6405952 557.4446336 223 595 223 C 632.5553664 223 663 234.6405952 663 249 C 663 263.3594048 632.5553664 275 595 275 C 557.4446336 275 527 263.3594048 527 249 Z" opacity="0.2"/></g><g transform="translate(-134,-126) scale(1,1)"><path fill="#d1ffa3" stroke="none" d="M 520 242 C 520 227.6405952 550.4446336 216 588 216 C 625.5553664 216 656 227.6405952 656 242 C 656 256.3594048 625.5553664 268 588 268 C 550.4446336 268 520 256.3594048 520 242 Z"/></g><g transform="translate(-134,-126) scale(1,1)"><path fill="none" stroke="#000000" d="M 520 242 C 520 227.6405952 550.4446336 216 588 216 C 625.5553664 216 656 227.6405952 656 242 C 656 256.3594048 625.5553664 268 588 268 C 550.4446336 268 520 256.3594048 520 242 Z" stroke-miterlimit="10"/></g><g transform="translate(-134,-126) scale(1,1)"><g><path fill="none" stroke="none"/><text fill="#000000" stroke="none" font-family="Arial" font-size="13px" font-style="normal" font-weight="bold" text-decoration="none" x="563.447265625" y="241">Sign Up</text><text fill="#000000" stroke="none" font-family="Arial" font-size="13px" font-style="normal" font-weight="bold" text-decoration="none" x="564.88818359375" y="254">[UH-01]</text></g></g><g transform="translate(-134,-126) scale(1,1)"><path fill="#C0C0C0" stroke="none" d="M 311 249 C 311 234.6405952 341.4446336 223 379 223 C 416.5553664 223 447 234.6405952 447 249 C 447 263.3594048 416.5553664 275 379 275 C 341.4446336 275 311 263.3594048 311 249 Z" opacity="0.2"/></g><g transform="translate(-134,-126) scale(1,1)"><path fill="#d1ffa3" stroke="none" d="M 304 242 C 304 227.6405952 334.4446336 216 372 216 C 409.5553664 216 440 227.6405952 440 242 C 440 256.3594048 409.5553664 268 372 268 C 334.4446336 268 304 256.3594048 304 242 Z"/></g><g transform="translate(-134,-126) scale(1,1)"><path fill="none" stroke="#000000" d="M 304 242 C 304 227.6405952 334.4446336 216 372 216 C 409.5553664 216 440 227.6405952 440 242 C 440 256.3594048 409.5553664 268 372 268 C 334.4446336 268 304 256.3594048 304 242 Z" stroke-miterlimit="10"/></g><g transform="translate(-134,-126) scale(1,1)"><g><path fill="none" stroke="none"/><text fill="#000000" stroke="none" font-family="Arial" font-size="13px" font-style="normal" font-weight="bold" text-decoration="none" x="352.50634765625" y="241">Log In</text><text fill="#000000" stroke="none" font-family="Arial" font-size="13px" font-style="normal" font-weight="bold" text-decoration="none" x="348.88818359375" y="254">[UH-02]</text></g></g><g transform="translate(-134,-126) scale(1,1)"><path fill="none" stroke="#000000" d="M 257 344 L 379 344" stroke-miterlimit="10"/></g><g transform="translate(-134,-126) scale(1,1)"><path fill="none" stroke="#000000" d="M 561 269 L 510 319" stroke-miterlimit="10" stroke-dasharray="3"/></g><g transform="translate(-134,-126) scale(1,1)"><path fill="none" stroke="#000000" d="M 514.3099270541145 308.87949957817244 L 510 319 L 520.2038531236593 314.89130416910814" stroke-miterlimit="10"/></g><g transform="translate(-134,-126) scale(1,1)"><g><path fill="none" stroke="none"/><text fill="#000000" stroke="none" font-family="Arial" font-size="13px" font-style="normal" font-weight="normal" text-decoration="none" x="540.5" y="305">«extend»</text></g></g><g transform="translate(-134,-126) scale(1,1)"><path fill="none" stroke="#000000" d="M 401 269 L 454 319" stroke-miterlimit="10" stroke-dasharray="3"/></g><g transform="translate(-134,-126) scale(1,1)"><path fill="none" stroke="#000000" d="M 443.7190777444883 315.08814141665067 L 454 319 L 449.49639188760506 308.9641884249469" stroke-miterlimit="10"/></g><g transform="translate(-134,-126) scale(1,1)"><g><path fill="none" stroke="none"/><text fill="#000000" stroke="none" font-family="Arial" font-size="13px" font-style="normal" font-weight="normal" text-decoration="none" x="367.5" y="305">«extend»</text></g></g><g transform="translate(-134,-126) scale(1,1)"><path fill="#C0C0C0" stroke="none" d="M 366 457 C 366 442.6405952 421.5166848 431 490 431 C 558.4833152 431 614 442.6405952 614 457 C 614 471.3594048 558.4833152 483 490 483 C 421.5166848 483 366 471.3594048 366 457 Z" opacity="0.2"/></g><g transform="translate(-134,-126) scale(1,1)"><path fill="#d1ffa3" stroke="none" d="M 359 450 C 359 435.6405952 414.5166848 424 483 424 C 551.4833152 424 607 435.6405952 607 450 C 607 464.3594048 551.4833152 476 483 476 C 414.5166848 476 359 464.3594048 359 450 Z"/></g><g transform="translate(-134,-126) scale(1,1)"><path fill="none" stroke="#000000" d="M 359 450 C 359 435.6405952 414.5166848 424 483 424 C 551.4833152 424 607 435.6405952 607 450 C 607 464.3594048 551.4833152 476 483 476 C 414.5166848 476 359 464.3594048 359 450 Z" stroke-miterlimit="10"/></g><g transform="translate(-134,-126) scale(1,1)"><g><path fill="none" stroke="none"/><text fill="#000000" stroke="none" font-family="Arial" font-size="13px" font-style="normal" font-weight="bold" text-decoration="none" x="401.2548828125" y="449">See Project's Presentation</text><text fill="#000000" stroke="none" font-family="Arial" font-size="13px" font-style="normal" font-weight="bold" text-decoration="none" x="459.88818359375" y="462">[UH-05]</text></g></g><g transform="translate(-134,-126) scale(1,1)"><path fill="none" stroke="#000000" d="M 483 373 L 483 423" stroke-miterlimit="10" stroke-dasharray="3"/></g><g transform="translate(-134,-126) scale(1,1)"><path fill="none" stroke="#000000" d="M 478.790482243984 412.83732514237585 L 483 423 L 487.209517756016 412.83732514237585" stroke-miterlimit="10"/></g><g transform="translate(-134,-126) scale(1,1)"><g><path fill="none" stroke="none"/><text fill="#000000" stroke="none" font-family="Arial" font-size="13px" font-style="normal" font-weight="normal" text-decoration="none" x="491.5" y="406">«include»</text></g></g></g></svg>