<svg version="1.1" xmlns="http://www.w3.org/2000/svg" xmlns:xlink="http://www.w3.org/1999/xlink" width="660" height="404"><defs/><g><text fill="#eeeeee" stroke="none" font-family="Arial" font-size="24px" font-style="normal" font-weight="normal" text-decoration="none" x="0" y="0">UNREGISTERED</text><text fill="#eeeeee" stroke="none" font-family="Arial" font-size="24px" font-style="normal" font-weight="normal" text-decoration="none" x="0" y="30">UNREGISTERED</text><text fill="#eeeeee" stroke="none" font-family="Arial" font-size="24px" font-style="normal" font-weight="normal" text-decoration="none" x="0" y="60">UNREGISTERED</text><text fill="#eeeeee" stroke="none" font-family="Arial" font-size="24px" font-style="normal" font-weight="normal" text-decoration="none" x="0" y="90">UNREGISTERED</text><text fill="#eeeeee" stroke="none" font-family="Arial" font-size="24px" font-style="normal" font-weight="normal" text-decoration="none" x="0" y="120">UNREGISTERED</text><text fill="#eeeeee" stroke="none" font-family="Arial" font-size="24px" font-style="normal" font-weight="normal" text-decoration="none" x="0" y="150">UNREGISTERED</text><text fill="#eeeeee" stroke="none" font-family="Arial" font-size="24px" font-style="normal" font-weight="normal" text-decoration="none" x="0" y="180">UNREGISTERED</text><text fill="#eeeeee" stroke="none" font-family="Arial" font-size="24px" font-style="normal" font-weight="normal" text-decoration="none" x="0" y="210">UNREGISTERED</text><text fill="#eeeeee" stroke="none" font-family="Arial" font-size="24px" font-style="normal" font-weight="normal" text-decoration="none" x="0" y="240">UNREGISTERED</text><text fill="#eeeeee" stroke="none" font-family="Arial" font-size="24px" font-style="normal" font-weight="normal" text-decoration="none" x="0" y="270">UNREGISTERED</text><text fill="#eeeeee" stroke="none" font-family="Arial" font-size="24px" font-style="normal" font-weight="normal" text-decoration="none" x="0" y="300">UNREGISTERED</text><text fill="#eeeeee" stroke="none" font-family="Arial" font-size="24px" font-style="normal" font-weight="normal" text-decoration="none" x="0" y="330">UNREGISTERED</text><text fill="#eeeeee" stroke="none" font-family="Arial" font-size="24px" font-style="normal" font-weight="normal" text-decoration="none" x="0" y="360">UNREGISTERED</text><text fill="#eeeeee" stroke="none" font-family="Arial" font-size="24px" font-style="normal" font-weight="normal" text-decoration="none" x="0" y="390">UNREGISTERED</text><text fill="#eeeeee" stroke="none" font-family="Arial" font-size="24px" font-style="normal" font-weight="normal" text-decoration="none" x="200" y="0">UNREGISTERED</text><text fill="#eeeeee" stroke="none" font-family="Arial" font-size="24px" font-style="normal" font-weight="normal" text-decoration="none" x="200" y="30">UNREGISTERED</text><text fill="#eeeeee" stroke="none" font-family="Arial" font-size="24px" font-style="normal" font-weight="normal" text-decoration="none" x="200" y="60">UNREGISTERED</text><text fill="#eeeeee" stroke="none" font-family="Arial" font-size="24px" font-style="normal" font-weight="normal" text-decoration="none" x="200" y="90">UNREGISTERED</text><text fill="#eeeeee" stroke="none" font-family="Arial" font-size="24px" font-style="normal" font-weight="normal" text-decoration="none" x="200" y="120">UNREGISTERED</text><text fill="#eeeeee" stroke="none" font-family="Arial" font-size="24px" font-style="normal" font-weight="normal" text-decoration="none" x="200" y="150">UNREGISTERED</text><text fill="#eeeeee" stroke="none" font-family="Arial" font-size="24px" font-style="normal" font-weight="normal" text-decoration="none" x="200" y="180">UNREGISTERED</text><text fill="#eeeeee" stroke="none" font-family="Arial" font-size="24px" font-style="normal" font-weight="normal" text-decoration="none" x="200" y="210">UNREGISTERED</text><text fill="#eeeeee" stroke="none" font-family="Arial" font-size="24px" font-style="normal" font-weight="normal" text-decoration="none" x="200" y="240">UNREGISTERED</text><text fill="#eeeeee" stroke="none" font-family="Arial" font-size="24px" font-style="normal" font-weight="normal" text-decoration="none" x="200" y="270">UNREGISTERED</text><text fill="#eeeeee" stroke="none" font-family="Arial" font-size="24px" font-style="normal" font-weight="normal" text-decoration="none" x="200" y="300">UNREGISTERED</text><text fill="#eeeeee" stroke="none" font-family="Arial" font-size="24px" font-style="normal" font-weight="normal" text-decoration="none" x="200" y="330">UNREGISTERED</text><text fill="#eeeeee" stroke="none" font-family="Arial" font-size="24px" font-style="normal" font-weight="normal" text-decoration="none" x="200" y="360">UNREGISTERED</text><text fill="#eeeeee" stroke="none" font-family="Arial" font-size="24px" font-style="normal" font-weight="normal" text-decoration="none" x="200" y="390">UNREGISTERED</text><text fill="#eeeeee" stroke="none" font-family="Arial" font-size="24px" font-style="normal" font-weight="normal" text-decoration="none" x="400" y="0">UNREGISTERED</text><text fill="#eeeeee" stroke="none" font-family="Arial" font-size="24px" font-style="normal" font-weight="normal" text-decoration="none" x="400" y="30">UNREGISTERED</text><text fill="#eeeeee" stroke="none" font-family="Arial" font-size="24px" font-style="normal" font-weight="normal" text-decoration="none" x="400" y="60">UNREGISTERED</text><text fill="#eeeeee" stroke="none" font-family="Arial" font-size="24px" font-style="normal" font-weight="normal" text-decoration="none" x="400" y="90">UNREGISTERED</text><text fill="#eeeeee" stroke="none" font-family="Arial" font-size="24px" font-style="normal" font-weight="normal" text-decoration="none" x="400" y="120">UNREGISTERED</text><text fill="#eeeeee" stroke="none" font-family="Arial" font-size="24px" font-style="normal" font-weight="normal" text-decoration="none" x="400" y="150">UNREGISTERED</text><text fill="#eeeeee" stroke="none" font-family="Arial" font-size="24px" font-style="normal" font-weight="normal" text-decoration="none" x="400" y="180">UNREGISTERED</text><text fill="#eeeeee" stroke="none" font-family="Arial" font-size="24px" font-style="normal" font-weight="normal" text-decoration="none" x="400" y="210">UNREGISTERED</text><text fill="#eeeeee" stroke="none" font-family="Arial" font-size="24px" font-style="normal" font-weight="normal" text-decoration="none" x="400" y="240">UNREGISTERED</text><text fill="#eeeeee" stroke="none" font-family="Arial" font-size="24px" font-style="normal" font-weight="normal" text-decoration="none" x="400" y="270">UNREGISTERED</text><text fill="#eeeeee" stroke="none" font-family="Arial" font-size="24px" font-style="normal" font-weight="normal" text-decoration="none" x="400" y="300">UNREGISTERED</text><text fill="#eeeeee" stroke="none" font-family="Arial" font-size="24px" font-style="normal" font-weight="normal" text-decoration="none" x="400" y="330">UNREGISTERED</text><text fill="#eeeeee" stroke="none" font-family="Arial" font-size="24px" font-style="normal" font-weight="normal" text-decoration="none" x="400" y="360">UNREGISTERED</text><text fill="#eeeeee" stroke="none" font-family="Arial" font-size="24px" font-style="normal" font-weight="normal" text-decoration="none" x="400" y="390">UNREGISTERED</text><text fill="#eeeeee" stroke="none" font-family="Arial" font-size="24px" font-style="normal" font-weight="normal" text-decoration="none" x="600" y="0">UNREGISTERED</text><text fill="#eeeeee" stroke="none" font-family="Arial" font-size="24px" font-style="normal" font-weight="normal" text-decoration="none" x="600" y="30">UNREGISTERED</text><text fill="#eeeeee" stroke="none" font-family="Arial" font-size="24px" font-style="normal" font-weight="normal" text-decoration="none" x="600" y="60">UNREGISTERED</text><text fill="#eeeeee" stroke="none" font-family="Arial" font-size="24px" font-style="normal" font-weight="normal" text-decoration="none" x="600" y="90">UNREGISTERED</text><text fill="#eeeeee" stroke="none" font-family="Arial" font-size="24px" font-style="normal" font-weight="normal" text-decoration="none" x="600" y="120">UNREGISTERED</text><text fill="#eeeeee" stroke="none" font-family="Arial" font-size="24px" font-style="normal" font-weight="normal" text-decoration="none" x="600" y="150">UNREGISTERED</text><text fill="#eeeeee" stroke="none" font-family="Arial" font-size="24px" font-style="normal" font-weight="normal" text-decoration="none" x="600" y="180">UNREGISTERED</text><text fill="#eeeeee" stroke="none" font-family="Arial" font-size="24px" font-style="normal" font-weight="normal" text-decoration="none" x="600" y="210">UNREGISTERED</text><text fill="#eeeeee" stroke="none" font-family="Arial" font-size="24px" font-style="normal" font-weight="normal" text-decoration="none" x="600" y="240">UNREGISTERED</text><text fill="#eeeeee" stroke="none" font-family="Arial" font-size="24px" font-style="normal" font-weight="normal" text-decoration="none" x="600" y="270">UNREGISTERED</text><text fill="#eeeeee" stroke="none" font-family="Arial" font-size="24px" font-style="normal" font-weight="normal" text-decoration="none" x="600" y="300">UNREGISTERED</text><text fill="#eeeeee" stroke="none" font-family="Arial" font-size="24px" font-style="normal" font-weight="normal" text-decoration="none" x="600" y="330">UNREGISTERED</text><text fill="#eeeeee" stroke="none" font-family="Arial" font-size="24px" font-style="normal" font-weight="normal" text-decoration="none" x="600" y="360">UNREGISTERED</text><text fill="#eeeeee" stroke="none" font-family="Arial" font-size="24px" font-style="normal" font-weight="normal" text-decoration="none" x="600" y="390">UNREGISTERED</text><g transform="translate(-102,-150) scale(1,1)"><rect fill="#C0C0C0" stroke="none" x="263" y="167" width="496" height="384" opacity="0.2"/></g><g transform="translate(-102,-150) scale(1,1)"><rect fill="#ffffff" stroke="none" x="256" y="160" width="496" height="384"/></g><g transform="translate(-102,-150) scale(1,1)"><path fill="none" stroke="#000000" d="M 256 160 L 752 160 L 752 544 L 256 544 L 256 160 Z Z" stroke-miterlimit="10"/></g><g transform="translate(-102,-150) scale(1,1)"><g><path fill="none" stroke="none"/><text fill="#000000" stroke="none" font-family="Arial" font-size="13px" font-style="normal" font-weight="bold" text-decoration="none" x="480.87548828125" y="178">System</text></g></g><g transform="translate(-102,-150) scale(1,1)"><path fill="#ffffff" stroke="none" d="M 143.58342258522728 321.68 C 143.58342258522728 316.886167936 147.46926491017274 313 152.2626953125 313 C 157.05612571482726 313 160.94196803977272 316.886167936 160.94196803977272 321.68 C 160.94196803977272 326.473832064 157.05612571482726 330.36 152.2626953125 330.36 C 147.46926491017274 330.36 143.58342258522728 326.473832064 143.58342258522728 321.68 Z"/></g><g transform="translate(-102,-150) scale(1,1)"><path fill="none" stroke="#000000" d="M 143.58342258522728 321.68 C 143.58342258522728 316.886167936 147.46926491017274 313 152.2626953125 313 C 157.05612571482726 313 160.94196803977272 316.886167936 160.94196803977272 321.68 C 160.94196803977272 326.473832064 157.05612571482726 330.36 152.2626953125 330.36 C 147.46926491017274 330.36 143.58342258522728 326.473832064 143.58342258522728 321.68 Z" stroke-miterlimit="10"/></g><g transform="translate(-102,-150) scale(1,1)"><path fill="none" stroke="#000000" d="M 152.2626953125 330.36 L 152.2626953125 347.64" stroke-miterlimit="10"/></g><g transform="translate(-102,-150) scale(1,1)"><path fill="none" stroke="#000000" d="M 143.07287713068183 336.84 L 161.45251349431817 336.84" stroke-miterlimit="10"/></g><g transform="translate(-102,-150) scale(1,1)"><path fill="none" stroke="#000000" d="M 152.2626953125 347.64 L 139.49905894886365 365" stroke-miterlimit="10"/></g><g transform="translate(-102,-150) scale(1,1)"><path fill="none" stroke="#000000" d="M 152.2626953125 347.64 L 165.02633167613635 365" stroke-miterlimit="10"/></g><g transform="translate(-102,-150) scale(1,1)"><g><path fill="none" stroke="none"/><text fill="#000000" stroke="none" font-family="Arial" font-size="13px" font-style="normal" font-weight="bold" text-decoration="none" x="116.5" y="384">Public User</text></g></g><g transform="translate(-102,-150) scale(1,1)"><path fill="#C0C0C0" stroke="none" d="M 303 353 C 303 338.6405952 349.5623808 327 407 327 C 464.4376192 327 511 338.6405952 511 353 C 511 367.3594048 464.4376192 379 407 379 C 349.5623808 379 303 367.3594048 303 353 Z" opacity="0.2"/></g><g transform="translate(-102,-150) scale(1,1)"><path fill="#ffffff" stroke="none" d="M 296 346 C 296 331.6405952 342.5623808 320 400 320 C 457.4376192 320 504 331.6405952 504 346 C 504 360.3594048 457.4376192 372 400 372 C 342.5623808 372 296 360.3594048 296 346 Z"/></g><g transform="translate(-102,-150) scale(1,1)"><path fill="none" stroke="#000000" d="M 296 346 C 296 331.6405952 342.5623808 320 400 320 C 457.4376192 320 504 331.6405952 504 346 C 504 360.3594048 457.4376192 372 400 372 C 342.5623808 372 296 360.3594048 296 346 Z" stroke-miterlimit="10"/></g><g transform="translate(-102,-150) scale(1,1)"><g><path fill="none" stroke="none"/><text fill="#000000" stroke="none" font-family="Arial" font-size="13px" font-style="normal" font-weight="bold" text-decoration="none" x="335.33642578125" y="345">Access to Main Page</text><text fill="#000000" stroke="none" font-family="Arial" font-size="13px" font-style="normal" font-weight="bold" text-decoration="none" x="377.61181640625" y="358">[FR-06]</text></g></g><g transform="translate(-102,-150) scale(1,1)"><path fill="#C0C0C0" stroke="none" d="M 567 409 C 567 394.6405952 600.8024976 383 642.5 383 C 684.1975024 383 718 394.6405952 718 409 C 718 423.3594048 684.1975024 435 642.5 435 C 600.8024976 435 567 423.3594048 567 409 Z" opacity="0.2"/></g><g transform="translate(-102,-150) scale(1,1)"><path fill="#ffffff" stroke="none" d="M 560 402 C 560 387.6405952 593.8024976 376 635.5 376 C 677.1975024 376 711 387.6405952 711 402 C 711 416.3594048 677.1975024 428 635.5 428 C 593.8024976 428 560 416.3594048 560 402 Z"/></g><g transform="translate(-102,-150) scale(1,1)"><path fill="none" stroke="#000000" d="M 560 402 C 560 387.6405952 593.8024976 376 635.5 376 C 677.1975024 376 711 387.6405952 711 402 C 711 416.3594048 677.1975024 428 635.5 428 C 593.8024976 428 560 416.3594048 560 402 Z" stroke-miterlimit="10"/></g><g transform="translate(-102,-150) scale(1,1)"><g><path fill="none" stroke="none"/><text fill="#000000" stroke="none" font-family="Arial" font-size="13px" font-style="normal" font-weight="bold" text-decoration="none" x="610.947265625" y="401">Sign Up</text><text fill="#000000" stroke="none" font-family="Arial" font-size="13px" font-style="normal" font-weight="bold" text-decoration="none" x="613.11181640625" y="414">[FR-01]</text></g></g><g transform="translate(-102,-150) scale(1,1)"><path fill="#C0C0C0" stroke="none" d="M 575 273 C 575 258.6405952 605.4446336 247 643 247 C 680.5553664 247 711 258.6405952 711 273 C 711 287.3594048 680.5553664 299 643 299 C 605.4446336 299 575 287.3594048 575 273 Z" opacity="0.2"/></g><g transform="translate(-102,-150) scale(1,1)"><path fill="#ffffff" stroke="none" d="M 568 266 C 568 251.6405952 598.4446336 240 636 240 C 673.5553664 240 704 251.6405952 704 266 C 704 280.3594048 673.5553664 292 636 292 C 598.4446336 292 568 280.3594048 568 266 Z"/></g><g transform="translate(-102,-150) scale(1,1)"><path fill="none" stroke="#000000" d="M 568 266 C 568 251.6405952 598.4446336 240 636 240 C 673.5553664 240 704 251.6405952 704 266 C 704 280.3594048 673.5553664 292 636 292 C 598.4446336 292 568 280.3594048 568 266 Z" stroke-miterlimit="10"/></g><g transform="translate(-102,-150) scale(1,1)"><g><path fill="none" stroke="none"/><text fill="#000000" stroke="none" font-family="Arial" font-size="13px" font-style="normal" font-weight="bold" text-decoration="none" x="616.50634765625" y="265">Log In</text><text fill="#000000" stroke="none" font-family="Arial" font-size="13px" font-style="normal" font-weight="bold" text-decoration="none" x="613.61181640625" y="278">[FR-02]</text></g></g><g transform="translate(-102,-150) scale(1,1)"><path fill="#C0C0C0" stroke="none" d="M 311 249 C 311 234.6405952 355.77152 223 411 223 C 466.22848 223 511 234.6405952 511 249 C 511 263.3594048 466.22848 275 411 275 C 355.77152 275 311 263.3594048 311 249 Z" opacity="0.2"/></g><g transform="translate(-102,-150) scale(1,1)"><path fill="#ffffff" stroke="none" d="M 304 242 C 304 227.6405952 348.77152 216 404 216 C 459.22848 216 504 227.6405952 504 242 C 504 256.3594048 459.22848 268 404 268 C 348.77152 268 304 256.3594048 304 242 Z"/></g><g transform="translate(-102,-150) scale(1,1)"><path fill="none" stroke="#000000" d="M 304 242 C 304 227.6405952 348.77152 216 404 216 C 459.22848 216 504 227.6405952 504 242 C 504 256.3594048 459.22848 268 404 268 C 348.77152 268 304 256.3594048 304 242 Z" stroke-miterlimit="10"/></g><g transform="translate(-102,-150) scale(1,1)"><g><path fill="none" stroke="none"/><text fill="#000000" stroke="none" font-family="Arial" font-size="13px" font-style="normal" font-weight="bold" text-decoration="none" x="342.576904296875" y="241">See general metrics</text><text fill="#000000" stroke="none" font-family="Arial" font-size="13px" font-style="normal" font-weight="bold" text-decoration="none" x="381.61181640625" y="254">[FR-07]</text></g></g><g transform="translate(-102,-150) scale(1,1)"><path fill="none" stroke="#000000" d="M 193 344 L 296 344" stroke-miterlimit="10"/></g><g transform="translate(-102,-150) scale(1,1)"><path fill="none" stroke="#000000" d="M 559 384 L 505 371" stroke-miterlimit="10" stroke-dasharray="3"/></g><g transform="translate(-102,-150) scale(1,1)"><path fill="none" stroke="#000000" d="M 515.8656465026766 369.28602039718265 L 505 371 L 513.895138923986 377.4712057240509" stroke-miterlimit="10"/></g><g transform="translate(-102,-150) scale(1,1)"><g><path fill="none" stroke="none"/><text fill="#000000" stroke="none" font-family="Arial" font-size="13px" font-style="normal" font-weight="normal" text-decoration="none" x="498.5" y="395">«extend»</text></g></g><g transform="translate(-102,-150) scale(1,1)"><path fill="none" stroke="#000000" d="M 567 289 L 480 319" stroke-miterlimit="10" stroke-dasharray="3"/></g><g transform="translate(-102,-150) scale(1,1)"><path fill="none" stroke="#000000" d="M 488.2352546617217 311.7074983265966 L 480 319 L 490.97978180117934 319.6666270310237" stroke-miterlimit="10"/></g><g transform="translate(-102,-150) scale(1,1)"><g><path fill="none" stroke="none"/><text fill="#000000" stroke="none" font-family="Arial" font-size="13px" font-style="normal" font-weight="normal" text-decoration="none" x="525.5" y="322">«extend»</text></g></g><g transform="translate(-102,-150) scale(1,1)"><path fill="none" stroke="#000000" d="M 401 319 L 403 269" stroke-miterlimit="10" stroke-dasharray="3"/></g><g transform="translate(-102,-150) scale(1,1)"><path fill="none" stroke="#000000" d="M 406.79997199913095 279.32280062801857 L 403 269 L 398.3876636439958 278.9863082938132" stroke-miterlimit="10"/></g><g transform="translate(-102,-150) scale(1,1)"><g><path fill="none" stroke="none"/><text fill="#000000" stroke="none" font-family="Arial" font-size="13px" font-style="normal" font-weight="normal" text-decoration="none" x="406.5" y="298">«include»</text></g></g><g transform="translate(-102,-150) scale(1,1)"><path fill="#C0C0C0" stroke="none" d="M 295 489 C 295 474.6405952 350.5166848 463 419 463 C 487.4833152 463 543 474.6405952 543 489 C 543 503.3594048 487.4833152 515 419 515 C 350.5166848 515 295 503.3594048 295 489 Z" opacity="0.2"/></g><g transform="translate(-102,-150) scale(1,1)"><path fill="#ffffff" stroke="none" d="M 288 482 C 288 467.6405952 343.5166848 456 412 456 C 480.4833152 456 536 467.6405952 536 482 C 536 496.3594048 480.4833152 508 412 508 C 343.5166848 508 288 496.3594048 288 482 Z"/></g><g transform="translate(-102,-150) scale(1,1)"><path fill="none" stroke="#000000" d="M 288 482 C 288 467.6405952 343.5166848 456 412 456 C 480.4833152 456 536 467.6405952 536 482 C 536 496.3594048 480.4833152 508 412 508 C 343.5166848 508 288 496.3594048 288 482 Z" stroke-miterlimit="10"/></g><g transform="translate(-102,-150) scale(1,1)"><g><path fill="none" stroke="none"/><text fill="#000000" stroke="none" font-family="Arial" font-size="13px" font-style="normal" font-weight="bold" text-decoration="none" x="330.2548828125" y="481">See Project's Presentation</text><text fill="#000000" stroke="none" font-family="Arial" font-size="13px" font-style="normal" font-weight="bold" text-decoration="none" x="389.61181640625" y="494">[FR-08]</text></g></g><g transform="translate(-102,-150) scale(1,1)"><path fill="none" stroke="#000000" d="M 402 373 L 410 455" stroke-miterlimit="10" stroke-dasharray="3"/></g><g transform="translate(-102,-150) scale(1,1)"><path fill="none" stroke="#000000" d="M 404.8235783906581 445.2940915251411 L 410 455 L 413.2028308779025 444.476603477605" stroke-miterlimit="10"/></g><g transform="translate(-102,-150) scale(1,1)"><g><path fill="none" stroke="none"/><text fill="#000000" stroke="none" font-family="Arial" font-size="13px" font-style="normal" font-weight="normal" text-decoration="none" x="414.5" y="419">«include»</text></g></g></g></svg>