<svg xmlns="http://www.w3.org/2000/svg" xmlns:xlink="http://www.w3.org/1999/xlink" version="1.1" width="828" height="476"><defs/><g><g transform="translate(-102,-110) scale(1,1)"><rect fill="#C0C0C0" stroke="none" x="119" y="127" width="808" height="456" opacity="0.2"/></g><g transform="translate(-102,-110) scale(1,1)"><rect fill="#ffffff" stroke="none" x="112" y="120" width="808" height="456"/></g><g transform="translate(-102,-110) scale(1,1)"><path fill="none" stroke="#000000" d="M 112 120 L 920 120 L 920 576 L 112 576 L 112 120 Z Z" stroke-miterlimit="10"/></g><g transform="translate(-102,-110) scale(1,1)"><g><path fill="none" stroke="none"/><text fill="#000000" stroke="none" font-family="Arial" font-size="13px" font-style="normal" font-weight="bold" text-decoration="none" x="516" y="133"/></g></g><g transform="translate(-102,-110) scale(1,1)"><rect fill="#C0C0C0" stroke="none" x="295" y="159" width="576" height="392" opacity="0.2"/></g><g transform="translate(-102,-110) scale(1,1)"><rect fill="#ffffd8" stroke="none" x="288" y="152" width="576" height="392"/></g><g transform="translate(-102,-110) scale(1,1)"><path fill="none" stroke="#000000" d="M 288 152 L 864 152 L 864 544 L 288 544 L 288 152 Z Z" stroke-miterlimit="10"/></g><g transform="translate(-102,-110) scale(1,1)"><g><path fill="none" stroke="none"/><text fill="#000000" stroke="none" font-family="Arial" font-size="13px" font-style="normal" font-weight="bold" text-decoration="none" x="552.87548828125" y="170">System</text></g></g><g transform="translate(-102,-110) scale(1,1)"><path fill="#ffffff" stroke="none" d="M 191.49382297585228 369.68 C 191.49382297585228 364.886167936 195.37966530079774 361 200.173095703125 361 C 204.96652610545226 361 208.85236843039772 364.886167936 208.85236843039772 369.68 C 208.85236843039772 374.473832064 204.96652610545226 378.36 200.173095703125 378.36 C 195.37966530079774 378.36 191.49382297585228 374.473832064 191.49382297585228 369.68 Z"/></g><g transform="translate(-102,-110) scale(1,1)"><path fill="none" stroke="#000000" d="M 191.49382297585228 369.68 C 191.49382297585228 364.886167936 195.37966530079774 361 200.173095703125 361 C 204.96652610545226 361 208.85236843039772 364.886167936 208.85236843039772 369.68 C 208.85236843039772 374.473832064 204.96652610545226 378.36 200.173095703125 378.36 C 195.37966530079774 378.36 191.49382297585228 374.473832064 191.49382297585228 369.68 Z" stroke-miterlimit="10"/></g><g transform="translate(-102,-110) scale(1,1)"><path fill="none" stroke="#000000" d="M 200.173095703125 378.36 L 200.173095703125 395.64" stroke-miterlimit="10"/></g><g transform="translate(-102,-110) scale(1,1)"><path fill="none" stroke="#000000" d="M 190.98327752130683 384.84 L 209.36291388494317 384.84" stroke-miterlimit="10"/></g><g transform="translate(-102,-110) scale(1,1)"><path fill="none" stroke="#000000" d="M 200.173095703125 395.64 L 187.40945933948865 413" stroke-miterlimit="10"/></g><g transform="translate(-102,-110) scale(1,1)"><path fill="none" stroke="#000000" d="M 200.173095703125 395.64 L 212.93673206676135 413" stroke-miterlimit="10"/></g><g transform="translate(-102,-110) scale(1,1)"><g><path fill="none" stroke="none"/><text fill="#000000" stroke="none" font-family="Arial" font-size="13px" font-style="normal" font-weight="bold" text-decoration="none" x="148.5" y="432">Researcher User</text></g></g><g transform="translate(-102,-110) scale(1,1)"><path fill="#C0C0C0" stroke="none" d="M 362 258.5 C 362 238.8938896 399.6080768 223 446 223 C 492.3919232 223 530 238.8938896 530 258.5 C 530 278.1061104 492.3919232 294 446 294 C 399.6080768 294 362 278.1061104 362 258.5 Z" opacity="0.2"/></g><g transform="translate(-102,-110) scale(1,1)"><path fill="#ffd8ff" stroke="none" d="M 355 251.5 C 355 231.8938896 392.6080768 216 439 216 C 485.3919232 216 523 231.8938896 523 251.5 C 523 271.1061104 485.3919232 287 439 287 C 392.6080768 287 355 271.1061104 355 251.5 Z"/></g><g transform="translate(-102,-110) scale(1,1)"><path fill="none" stroke="#000000" d="M 355 251.5 C 355 231.8938896 392.6080768 216 439 216 C 485.3919232 216 523 231.8938896 523 251.5 C 523 271.1061104 485.3919232 287 439 287 C 392.6080768 287 355 271.1061104 355 251.5 Z" stroke-miterlimit="10"/></g><g transform="translate(-102,-110) scale(1,1)"><g><path fill="none" stroke="none"/><text fill="#000000" stroke="none" font-family="Arial" font-size="13px" font-style="normal" font-weight="bold" text-decoration="none" x="392.030517578125" y="244">Access to User</text><text fill="#000000" stroke="none" font-family="Arial" font-size="13px" font-style="normal" font-weight="bold" text-decoration="none" x="403.59912109375" y="257">Home Page</text><text fill="#000000" stroke="none" font-family="Arial" font-size="13px" font-style="normal" font-weight="bold" text-decoration="none" x="415.88818359375" y="270">[UH-06]</text></g></g><g transform="translate(-102,-110) scale(1,1)"><path fill="#C0C0C0" stroke="none" d="M 622 314.5 C 622 294.8938896 668.5623808 279 726 279 C 783.4376192 279 830 294.8938896 830 314.5 C 830 334.1061104 783.4376192 350 726 350 C 668.5623808 350 622 334.1061104 622 314.5 Z" opacity="0.2"/></g><g transform="translate(-102,-110) scale(1,1)"><path fill="#d1ffa3" stroke="none" d="M 615 307.5 C 615 287.8938896 661.5623808 272 719 272 C 776.4376192 272 823 287.8938896 823 307.5 C 823 327.1061104 776.4376192 343 719 343 C 661.5623808 343 615 327.1061104 615 307.5 Z"/></g><g transform="translate(-102,-110) scale(1,1)"><path fill="none" stroke="#000000" d="M 615 307.5 C 615 287.8938896 661.5623808 272 719 272 C 776.4376192 272 823 287.8938896 823 307.5 C 823 327.1061104 776.4376192 343 719 343 C 661.5623808 343 615 327.1061104 615 307.5 Z" stroke-miterlimit="10"/></g><g transform="translate(-102,-110) scale(1,1)"><g><path fill="none" stroke="none"/><text fill="#000000" stroke="none" font-family="Arial" font-size="13px" font-style="normal" font-weight="bold" text-decoration="none" x="659.40185546875" y="300">Access to IA Model</text><text fill="#000000" stroke="none" font-family="Arial" font-size="13px" font-style="normal" font-weight="bold" text-decoration="none" x="659.055908203125" y="313">Configuration Page</text><text fill="#000000" stroke="none" font-family="Arial" font-size="13px" font-style="normal" font-weight="bold" text-decoration="none" x="695.88818359375" y="326">[UH-26]</text></g></g><g transform="translate(-102,-110) scale(1,1)"><path fill="#C0C0C0" stroke="none" d="M 630 473 C 630 458.6405952 672.9806592 447 726 447 C 779.0193408 447 822 458.6405952 822 473 C 822 487.3594048 779.0193408 499 726 499 C 672.9806592 499 630 487.3594048 630 473 Z" opacity="0.2"/></g><g transform="translate(-102,-110) scale(1,1)"><path fill="#d1ffa3" stroke="none" d="M 623 466 C 623 451.6405952 665.9806592 440 719 440 C 772.0193408 440 815 451.6405952 815 466 C 815 480.3594048 772.0193408 492 719 492 C 665.9806592 492 623 480.3594048 623 466 Z"/></g><g transform="translate(-102,-110) scale(1,1)"><path fill="none" stroke="#000000" d="M 623 466 C 623 451.6405952 665.9806592 440 719 440 C 772.0193408 440 815 451.6405952 815 466 C 815 480.3594048 772.0193408 492 719 492 C 665.9806592 492 623 480.3594048 623 466 Z" stroke-miterlimit="10"/></g><g transform="translate(-102,-110) scale(1,1)"><g><path fill="none" stroke="none"/><text fill="#000000" stroke="none" font-family="Arial" font-size="13px" font-style="normal" font-weight="bold" text-decoration="none" x="666.25732421875" y="465">Access to Profile</text><text fill="#000000" stroke="none" font-family="Arial" font-size="13px" font-style="normal" font-weight="bold" text-decoration="none" x="678.54638671875" y="478">Page [UH-12]</text></g></g><g transform="translate(-102,-110) scale(1,1)"><path fill="#C0C0C0" stroke="none" d="M 342 394.5 C 342 374.8938896 388.5623808 359 446 359 C 503.4376192 359 550 374.8938896 550 394.5 C 550 414.1061104 503.4376192 430 446 430 C 388.5623808 430 342 414.1061104 342 394.5 Z" opacity="0.2"/></g><g transform="translate(-102,-110) scale(1,1)"><path fill="#ffa3ff" stroke="none" d="M 335 387.5 C 335 367.8938896 381.5623808 352 439 352 C 496.4376192 352 543 367.8938896 543 387.5 C 543 407.1061104 496.4376192 423 439 423 C 381.5623808 423 335 407.1061104 335 387.5 Z"/></g><g transform="translate(-102,-110) scale(1,1)"><path fill="none" stroke="#000000" d="M 335 387.5 C 335 367.8938896 381.5623808 352 439 352 C 496.4376192 352 543 367.8938896 543 387.5 C 543 407.1061104 496.4376192 423 439 423 C 381.5623808 423 335 407.1061104 335 387.5 Z" stroke-miterlimit="10"/></g><g transform="translate(-102,-110) scale(1,1)"><g><path fill="none" stroke="none"/><text fill="#000000" stroke="none" font-family="Arial" font-size="13px" font-style="normal" font-weight="bold" text-decoration="none" x="384.4482421875" y="380">Show Researcher</text><text fill="#000000" stroke="none" font-family="Arial" font-size="13px" font-style="normal" font-weight="bold" text-decoration="none" x="387.339599609375" y="393">User Home Page</text><text fill="#000000" stroke="none" font-family="Arial" font-size="13px" font-style="normal" font-weight="bold" text-decoration="none" x="415.88818359375" y="406">[UH-25]</text></g></g><g transform="translate(-102,-110) scale(1,1)"><path fill="none" stroke="#000000" d="M 256 392 L 335 392" stroke-miterlimit="10"/></g><g transform="translate(-102,-110) scale(1,1)"><path fill="none" stroke="#000000" d="M 437 352 L 437 287" stroke-miterlimit="10" stroke-dasharray="3"/></g><g transform="translate(-102,-110) scale(1,1)"><path fill="none" stroke="#000000" d="M 441.209517756016 297.16267485762415 L 437 287 L 432.790482243984 297.16267485762415" stroke-miterlimit="10"/></g><g transform="translate(-102,-110) scale(1,1)"><g><path fill="none" stroke="none"/><text fill="#000000" stroke="none" font-family="Arial" font-size="13px" font-style="normal" font-weight="normal" text-decoration="none" x="380.5" y="323">«extend»</text></g></g><g transform="translate(-102,-110) scale(1,1)"><path fill="none" stroke="#000000" d="M 614 337 L 544 357" stroke-miterlimit="10" stroke-dasharray="3"/></g><g transform="translate(-102,-110) scale(1,1)"><path fill="none" stroke="#000000" d="M 552.6152117818561 350.1605463702305 L 544 357 L 554.9280987135297 358.2556506310878" stroke-miterlimit="10"/></g><g transform="translate(-102,-110) scale(1,1)"><g><path fill="none" stroke="none"/><text fill="#000000" stroke="none" font-family="Arial" font-size="13px" font-style="normal" font-weight="normal" text-decoration="none" x="535.5" y="330">«extend»</text></g></g><g transform="translate(-102,-110) scale(1,1)"><path fill="none" stroke="#000000" d="M 623 439 L 544 417" stroke-miterlimit="10" stroke-dasharray="3"/></g><g transform="translate(-102,-110) scale(1,1)"><path fill="none" stroke="#000000" d="M 554.9194405476275 415.67115910401975 L 544 417 L 552.6608428666564 423.7815780493251" stroke-miterlimit="10"/></g><g transform="translate(-102,-110) scale(1,1)"><g><path fill="none" stroke="none"/><text fill="#000000" stroke="none" font-family="Arial" font-size="13px" font-style="normal" font-weight="normal" text-decoration="none" x="583.5" y="419">«extend»</text></g></g></g></svg>