<svg version="1.1" xmlns="http://www.w3.org/2000/svg" xmlns:xlink="http://www.w3.org/1999/xlink" width="932" height="636"><defs/><g><text fill="#eeeeee" stroke="none" font-family="Arial" font-size="24px" font-style="normal" font-weight="normal" text-decoration="none" x="0" y="0">UNREGISTERED</text><text fill="#eeeeee" stroke="none" font-family="Arial" font-size="24px" font-style="normal" font-weight="normal" text-decoration="none" x="0" y="30">UNREGISTERED</text><text fill="#eeeeee" stroke="none" font-family="Arial" font-size="24px" font-style="normal" font-weight="normal" text-decoration="none" x="0" y="60">UNREGISTERED</text><text fill="#eeeeee" stroke="none" font-family="Arial" font-size="24px" font-style="normal" font-weight="normal" text-decoration="none" x="0" y="90">UNREGISTERED</text><text fill="#eeeeee" stroke="none" font-family="Arial" font-size="24px" font-style="normal" font-weight="normal" text-decoration="none" x="0" y="120">UNREGISTERED</text><text fill="#eeeeee" stroke="none" font-family="Arial" font-size="24px" font-style="normal" font-weight="normal" text-decoration="none" x="0" y="150">UNREGISTERED</text><text fill="#eeeeee" stroke="none" font-family="Arial" font-size="24px" font-style="normal" font-weight="normal" text-decoration="none" x="0" y="180">UNREGISTERED</text><text fill="#eeeeee" stroke="none" font-family="Arial" font-size="24px" font-style="normal" font-weight="normal" text-decoration="none" x="0" y="210">UNREGISTERED</text><text fill="#eeeeee" stroke="none" font-family="Arial" font-size="24px" font-style="normal" font-weight="normal" text-decoration="none" x="0" y="240">UNREGISTERED</text><text fill="#eeeeee" stroke="none" font-family="Arial" font-size="24px" font-style="normal" font-weight="normal" text-decoration="none" x="0" y="270">UNREGISTERED</text><text fill="#eeeeee" stroke="none" font-family="Arial" font-size="24px" font-style="normal" font-weight="normal" text-decoration="none" x="0" y="300">UNREGISTERED</text><text fill="#eeeeee" stroke="none" font-family="Arial" font-size="24px" font-style="normal" font-weight="normal" text-decoration="none" x="0" y="330">UNREGISTERED</text><text fill="#eeeeee" stroke="none" font-family="Arial" font-size="24px" font-style="normal" font-weight="normal" text-decoration="none" x="0" y="360">UNREGISTERED</text><text fill="#eeeeee" stroke="none" font-family="Arial" font-size="24px" font-style="normal" font-weight="normal" text-decoration="none" x="0" y="390">UNREGISTERED</text><text fill="#eeeeee" stroke="none" font-family="Arial" font-size="24px" font-style="normal" font-weight="normal" text-decoration="none" x="0" y="420">UNREGISTERED</text><text fill="#eeeeee" stroke="none" font-family="Arial" font-size="24px" font-style="normal" font-weight="normal" text-decoration="none" x="0" y="450">UNREGISTERED</text><text fill="#eeeeee" stroke="none" font-family="Arial" font-size="24px" font-style="normal" font-weight="normal" text-decoration="none" x="0" y="480">UNREGISTERED</text><text fill="#eeeeee" stroke="none" font-family="Arial" font-size="24px" font-style="normal" font-weight="normal" text-decoration="none" x="0" y="510">UNREGISTERED</text><text fill="#eeeeee" stroke="none" font-family="Arial" font-size="24px" font-style="normal" font-weight="normal" text-decoration="none" x="0" y="540">UNREGISTERED</text><text fill="#eeeeee" stroke="none" font-family="Arial" font-size="24px" font-style="normal" font-weight="normal" text-decoration="none" x="0" y="570">UNREGISTERED</text><text fill="#eeeeee" stroke="none" font-family="Arial" font-size="24px" font-style="normal" font-weight="normal" text-decoration="none" x="0" y="600">UNREGISTERED</text><text fill="#eeeeee" stroke="none" font-family="Arial" font-size="24px" font-style="normal" font-weight="normal" text-decoration="none" x="0" y="630">UNREGISTERED</text><text fill="#eeeeee" stroke="none" font-family="Arial" font-size="24px" font-style="normal" font-weight="normal" text-decoration="none" x="200" y="0">UNREGISTERED</text><text fill="#eeeeee" stroke="none" font-family="Arial" font-size="24px" font-style="normal" font-weight="normal" text-decoration="none" x="200" y="30">UNREGISTERED</text><text fill="#eeeeee" stroke="none" font-family="Arial" font-size="24px" font-style="normal" font-weight="normal" text-decoration="none" x="200" y="60">UNREGISTERED</text><text fill="#eeeeee" stroke="none" font-family="Arial" font-size="24px" font-style="normal" font-weight="normal" text-decoration="none" x="200" y="90">UNREGISTERED</text><text fill="#eeeeee" stroke="none" font-family="Arial" font-size="24px" font-style="normal" font-weight="normal" text-decoration="none" x="200" y="120">UNREGISTERED</text><text fill="#eeeeee" stroke="none" font-family="Arial" font-size="24px" font-style="normal" font-weight="normal" text-decoration="none" x="200" y="150">UNREGISTERED</text><text fill="#eeeeee" stroke="none" font-family="Arial" font-size="24px" font-style="normal" font-weight="normal" text-decoration="none" x="200" y="180">UNREGISTERED</text><text fill="#eeeeee" stroke="none" font-family="Arial" font-size="24px" font-style="normal" font-weight="normal" text-decoration="none" x="200" y="210">UNREGISTERED</text><text fill="#eeeeee" stroke="none" font-family="Arial" font-size="24px" font-style="normal" font-weight="normal" text-decoration="none" x="200" y="240">UNREGISTERED</text><text fill="#eeeeee" stroke="none" font-family="Arial" font-size="24px" font-style="normal" font-weight="normal" text-decoration="none" x="200" y="270">UNREGISTERED</text><text fill="#eeeeee" stroke="none" font-family="Arial" font-size="24px" font-style="normal" font-weight="normal" text-decoration="none" x="200" y="300">UNREGISTERED</text><text fill="#eeeeee" stroke="none" font-family="Arial" font-size="24px" font-style="normal" font-weight="normal" text-decoration="none" x="200" y="330">UNREGISTERED</text><text fill="#eeeeee" stroke="none" font-family="Arial" font-size="24px" font-style="normal" font-weight="normal" text-decoration="none" x="200" y="360">UNREGISTERED</text><text fill="#eeeeee" stroke="none" font-family="Arial" font-size="24px" font-style="normal" font-weight="normal" text-decoration="none" x="200" y="390">UNREGISTERED</text><text fill="#eeeeee" stroke="none" font-family="Arial" font-size="24px" font-style="normal" font-weight="normal" text-decoration="none" x="200" y="420">UNREGISTERED</text><text fill="#eeeeee" stroke="none" font-family="Arial" font-size="24px" font-style="normal" font-weight="normal" text-decoration="none" x="200" y="450">UNREGISTERED</text><text fill="#eeeeee" stroke="none" font-family="Arial" font-size="24px" font-style="normal" font-weight="normal" text-decoration="none" x="200" y="480">UNREGISTERED</text><text fill="#eeeeee" stroke="none" font-family="Arial" font-size="24px" font-style="normal" font-weight="normal" text-decoration="none" x="200" y="510">UNREGISTERED</text><text fill="#eeeeee" stroke="none" font-family="Arial" font-size="24px" font-style="normal" font-weight="normal" text-decoration="none" x="200" y="540">UNREGISTERED</text><text fill="#eeeeee" stroke="none" font-family="Arial" font-size="24px" font-style="normal" font-weight="normal" text-decoration="none" x="200" y="570">UNREGISTERED</text><text fill="#eeeeee" stroke="none" font-family="Arial" font-size="24px" font-style="normal" font-weight="normal" text-decoration="none" x="200" y="600">UNREGISTERED</text><text fill="#eeeeee" stroke="none" font-family="Arial" font-size="24px" font-style="normal" font-weight="normal" text-decoration="none" x="200" y="630">UNREGISTERED</text><text fill="#eeeeee" stroke="none" font-family="Arial" font-size="24px" font-style="normal" font-weight="normal" text-decoration="none" x="400" y="0">UNREGISTERED</text><text fill="#eeeeee" stroke="none" font-family="Arial" font-size="24px" font-style="normal" font-weight="normal" text-decoration="none" x="400" y="30">UNREGISTERED</text><text fill="#eeeeee" stroke="none" font-family="Arial" font-size="24px" font-style="normal" font-weight="normal" text-decoration="none" x="400" y="60">UNREGISTERED</text><text fill="#eeeeee" stroke="none" font-family="Arial" font-size="24px" font-style="normal" font-weight="normal" text-decoration="none" x="400" y="90">UNREGISTERED</text><text fill="#eeeeee" stroke="none" font-family="Arial" font-size="24px" font-style="normal" font-weight="normal" text-decoration="none" x="400" y="120">UNREGISTERED</text><text fill="#eeeeee" stroke="none" font-family="Arial" font-size="24px" font-style="normal" font-weight="normal" text-decoration="none" x="400" y="150">UNREGISTERED</text><text fill="#eeeeee" stroke="none" font-family="Arial" font-size="24px" font-style="normal" font-weight="normal" text-decoration="none" x="400" y="180">UNREGISTERED</text><text fill="#eeeeee" stroke="none" font-family="Arial" font-size="24px" font-style="normal" font-weight="normal" text-decoration="none" x="400" y="210">UNREGISTERED</text><text fill="#eeeeee" stroke="none" font-family="Arial" font-size="24px" font-style="normal" font-weight="normal" text-decoration="none" x="400" y="240">UNREGISTERED</text><text fill="#eeeeee" stroke="none" font-family="Arial" font-size="24px" font-style="normal" font-weight="normal" text-decoration="none" x="400" y="270">UNREGISTERED</text><text fill="#eeeeee" stroke="none" font-family="Arial" font-size="24px" font-style="normal" font-weight="normal" text-decoration="none" x="400" y="300">UNREGISTERED</text><text fill="#eeeeee" stroke="none" font-family="Arial" font-size="24px" font-style="normal" font-weight="normal" text-decoration="none" x="400" y="330">UNREGISTERED</text><text fill="#eeeeee" stroke="none" font-family="Arial" font-size="24px" font-style="normal" font-weight="normal" text-decoration="none" x="400" y="360">UNREGISTERED</text><text fill="#eeeeee" stroke="none" font-family="Arial" font-size="24px" font-style="normal" font-weight="normal" text-decoration="none" x="400" y="390">UNREGISTERED</text><text fill="#eeeeee" stroke="none" font-family="Arial" font-size="24px" font-style="normal" font-weight="normal" text-decoration="none" x="400" y="420">UNREGISTERED</text><text fill="#eeeeee" stroke="none" font-family="Arial" font-size="24px" font-style="normal" font-weight="normal" text-decoration="none" x="400" y="450">UNREGISTERED</text><text fill="#eeeeee" stroke="none" font-family="Arial" font-size="24px" font-style="normal" font-weight="normal" text-decoration="none" x="400" y="480">UNREGISTERED</text><text fill="#eeeeee" stroke="none" font-family="Arial" font-size="24px" font-style="normal" font-weight="normal" text-decoration="none" x="400" y="510">UNREGISTERED</text><text fill="#eeeeee" stroke="none" font-family="Arial" font-size="24px" font-style="normal" font-weight="normal" text-decoration="none" x="400" y="540">UNREGISTERED</text><text fill="#eeeeee" stroke="none" font-family="Arial" font-size="24px" font-style="normal" font-weight="normal" text-decoration="none" x="400" y="570">UNREGISTERED</text><text fill="#eeeeee" stroke="none" font-family="Arial" font-size="24px" font-style="normal" font-weight="normal" text-decoration="none" x="400" y="600">UNREGISTERED</text><text fill="#eeeeee" stroke="none" font-family="Arial" font-size="24px" font-style="normal" font-weight="normal" text-decoration="none" x="400" y="630">UNREGISTERED</text><text fill="#eeeeee" stroke="none" font-family="Arial" font-size="24px" font-style="normal" font-weight="normal" text-decoration="none" x="600" y="0">UNREGISTERED</text><text fill="#eeeeee" stroke="none" font-family="Arial" font-size="24px" font-style="normal" font-weight="normal" text-decoration="none" x="600" y="30">UNREGISTERED</text><text fill="#eeeeee" stroke="none" font-family="Arial" font-size="24px" font-style="normal" font-weight="normal" text-decoration="none" x="600" y="60">UNREGISTERED</text><text fill="#eeeeee" stroke="none" font-family="Arial" font-size="24px" font-style="normal" font-weight="normal" text-decoration="none" x="600" y="90">UNREGISTERED</text><text fill="#eeeeee" stroke="none" font-family="Arial" font-size="24px" font-style="normal" font-weight="normal" text-decoration="none" x="600" y="120">UNREGISTERED</text><text fill="#eeeeee" stroke="none" font-family="Arial" font-size="24px" font-style="normal" font-weight="normal" text-decoration="none" x="600" y="150">UNREGISTERED</text><text fill="#eeeeee" stroke="none" font-family="Arial" font-size="24px" font-style="normal" font-weight="normal" text-decoration="none" x="600" y="180">UNREGISTERED</text><text fill="#eeeeee" stroke="none" font-family="Arial" font-size="24px" font-style="normal" font-weight="normal" text-decoration="none" x="600" y="210">UNREGISTERED</text><text fill="#eeeeee" stroke="none" font-family="Arial" font-size="24px" font-style="normal" font-weight="normal" text-decoration="none" x="600" y="240">UNREGISTERED</text><text fill="#eeeeee" stroke="none" font-family="Arial" font-size="24px" font-style="normal" font-weight="normal" text-decoration="none" x="600" y="270">UNREGISTERED</text><text fill="#eeeeee" stroke="none" font-family="Arial" font-size="24px" font-style="normal" font-weight="normal" text-decoration="none" x="600" y="300">UNREGISTERED</text><text fill="#eeeeee" stroke="none" font-family="Arial" font-size="24px" font-style="normal" font-weight="normal" text-decoration="none" x="600" y="330">UNREGISTERED</text><text fill="#eeeeee" stroke="none" font-family="Arial" font-size="24px" font-style="normal" font-weight="normal" text-decoration="none" x="600" y="360">UNREGISTERED</text><text fill="#eeeeee" stroke="none" font-family="Arial" font-size="24px" font-style="normal" font-weight="normal" text-decoration="none" x="600" y="390">UNREGISTERED</text><text fill="#eeeeee" stroke="none" font-family="Arial" font-size="24px" font-style="normal" font-weight="normal" text-decoration="none" x="600" y="420">UNREGISTERED</text><text fill="#eeeeee" stroke="none" font-family="Arial" font-size="24px" font-style="normal" font-weight="normal" text-decoration="none" x="600" y="450">UNREGISTERED</text><text fill="#eeeeee" stroke="none" font-family="Arial" font-size="24px" font-style="normal" font-weight="normal" text-decoration="none" x="600" y="480">UNREGISTERED</text><text fill="#eeeeee" stroke="none" font-family="Arial" font-size="24px" font-style="normal" font-weight="normal" text-decoration="none" x="600" y="510">UNREGISTERED</text><text fill="#eeeeee" stroke="none" font-family="Arial" font-size="24px" font-style="normal" font-weight="normal" text-decoration="none" x="600" y="540">UNREGISTERED</text><text fill="#eeeeee" stroke="none" font-family="Arial" font-size="24px" font-style="normal" font-weight="normal" text-decoration="none" x="600" y="570">UNREGISTERED</text><text fill="#eeeeee" stroke="none" font-family="Arial" font-size="24px" font-style="normal" font-weight="normal" text-decoration="none" x="600" y="600">UNREGISTERED</text><text fill="#eeeeee" stroke="none" font-family="Arial" font-size="24px" font-style="normal" font-weight="normal" text-decoration="none" x="600" y="630">UNREGISTERED</text><text fill="#eeeeee" stroke="none" font-family="Arial" font-size="24px" font-style="normal" font-weight="normal" text-decoration="none" x="800" y="0">UNREGISTERED</text><text fill="#eeeeee" stroke="none" font-family="Arial" font-size="24px" font-style="normal" font-weight="normal" text-decoration="none" x="800" y="30">UNREGISTERED</text><text fill="#eeeeee" stroke="none" font-family="Arial" font-size="24px" font-style="normal" font-weight="normal" text-decoration="none" x="800" y="60">UNREGISTERED</text><text fill="#eeeeee" stroke="none" font-family="Arial" font-size="24px" font-style="normal" font-weight="normal" text-decoration="none" x="800" y="90">UNREGISTERED</text><text fill="#eeeeee" stroke="none" font-family="Arial" font-size="24px" font-style="normal" font-weight="normal" text-decoration="none" x="800" y="120">UNREGISTERED</text><text fill="#eeeeee" stroke="none" font-family="Arial" font-size="24px" font-style="normal" font-weight="normal" text-decoration="none" x="800" y="150">UNREGISTERED</text><text fill="#eeeeee" stroke="none" font-family="Arial" font-size="24px" font-style="normal" font-weight="normal" text-decoration="none" x="800" y="180">UNREGISTERED</text><text fill="#eeeeee" stroke="none" font-family="Arial" font-size="24px" font-style="normal" font-weight="normal" text-decoration="none" x="800" y="210">UNREGISTERED</text><text fill="#eeeeee" stroke="none" font-family="Arial" font-size="24px" font-style="normal" font-weight="normal" text-decoration="none" x="800" y="240">UNREGISTERED</text><text fill="#eeeeee" stroke="none" font-family="Arial" font-size="24px" font-style="normal" font-weight="normal" text-decoration="none" x="800" y="270">UNREGISTERED</text><text fill="#eeeeee" stroke="none" font-family="Arial" font-size="24px" font-style="normal" font-weight="normal" text-decoration="none" x="800" y="300">UNREGISTERED</text><text fill="#eeeeee" stroke="none" font-family="Arial" font-size="24px" font-style="normal" font-weight="normal" text-decoration="none" x="800" y="330">UNREGISTERED</text><text fill="#eeeeee" stroke="none" font-family="Arial" font-size="24px" font-style="normal" font-weight="normal" text-decoration="none" x="800" y="360">UNREGISTERED</text><text fill="#eeeeee" stroke="none" font-family="Arial" font-size="24px" font-style="normal" font-weight="normal" text-decoration="none" x="800" y="390">UNREGISTERED</text><text fill="#eeeeee" stroke="none" font-family="Arial" font-size="24px" font-style="normal" font-weight="normal" text-decoration="none" x="800" y="420">UNREGISTERED</text><text fill="#eeeeee" stroke="none" font-family="Arial" font-size="24px" font-style="normal" font-weight="normal" text-decoration="none" x="800" y="450">UNREGISTERED</text><text fill="#eeeeee" stroke="none" font-family="Arial" font-size="24px" font-style="normal" font-weight="normal" text-decoration="none" x="800" y="480">UNREGISTERED</text><text fill="#eeeeee" stroke="none" font-family="Arial" font-size="24px" font-style="normal" font-weight="normal" text-decoration="none" x="800" y="510">UNREGISTERED</text><text fill="#eeeeee" stroke="none" font-family="Arial" font-size="24px" font-style="normal" font-weight="normal" text-decoration="none" x="800" y="540">UNREGISTERED</text><text fill="#eeeeee" stroke="none" font-family="Arial" font-size="24px" font-style="normal" font-weight="normal" text-decoration="none" x="800" y="570">UNREGISTERED</text><text fill="#eeeeee" stroke="none" font-family="Arial" font-size="24px" font-style="normal" font-weight="normal" text-decoration="none" x="800" y="600">UNREGISTERED</text><text fill="#eeeeee" stroke="none" font-family="Arial" font-size="24px" font-style="normal" font-weight="normal" text-decoration="none" x="800" y="630">UNREGISTERED</text><g transform="translate(-134,-110) scale(1,1)"><rect fill="#C0C0C0" stroke="none" x="319" y="127" width="744" height="616" opacity="0.2"/></g><g transform="translate(-134,-110) scale(1,1)"><rect fill="#ffffff" stroke="none" x="312" y="120" width="744" height="616"/></g><g transform="translate(-134,-110) scale(1,1)"><path fill="none" stroke="#000000" d="M 312 120 L 1056 120 L 1056 736 L 312 736 L 312 120 Z Z" stroke-miterlimit="10"/></g><g transform="translate(-134,-110) scale(1,1)"><g><path fill="none" stroke="none"/><text fill="#000000" stroke="none" font-family="Arial" font-size="13px" font-style="normal" font-weight="bold" text-decoration="none" x="660.87548828125" y="138">System</text></g></g><g transform="translate(-134,-110) scale(1,1)"><path fill="#ffffff" stroke="none" d="M 186.42839328835228 401.68 C 186.42839328835228 396.886167936 190.31423561329774 393 195.107666015625 393 C 199.90109641795226 393 203.78693874289772 396.886167936 203.78693874289772 401.68 C 203.78693874289772 406.473832064 199.90109641795226 410.36 195.107666015625 410.36 C 190.31423561329774 410.36 186.42839328835228 406.473832064 186.42839328835228 401.68 Z"/></g><g transform="translate(-134,-110) scale(1,1)"><path fill="none" stroke="#000000" d="M 186.42839328835228 401.68 C 186.42839328835228 396.886167936 190.31423561329774 393 195.107666015625 393 C 199.90109641795226 393 203.78693874289772 396.886167936 203.78693874289772 401.68 C 203.78693874289772 406.473832064 199.90109641795226 410.36 195.107666015625 410.36 C 190.31423561329774 410.36 186.42839328835228 406.473832064 186.42839328835228 401.68 Z" stroke-miterlimit="10"/></g><g transform="translate(-134,-110) scale(1,1)"><path fill="none" stroke="#000000" d="M 195.107666015625 410.36 L 195.107666015625 427.64" stroke-miterlimit="10"/></g><g transform="translate(-134,-110) scale(1,1)"><path fill="none" stroke="#000000" d="M 185.91784783380683 416.84 L 204.29748419744317 416.84" stroke-miterlimit="10"/></g><g transform="translate(-134,-110) scale(1,1)"><path fill="none" stroke="#000000" d="M 195.107666015625 427.64 L 182.34402965198865 445" stroke-miterlimit="10"/></g><g transform="translate(-134,-110) scale(1,1)"><path fill="none" stroke="#000000" d="M 195.107666015625 427.64 L 207.87130237926135 445" stroke-miterlimit="10"/></g><g transform="translate(-134,-110) scale(1,1)"><g><path fill="none" stroke="none"/><text fill="#000000" stroke="none" font-family="Arial" font-size="13px" font-style="normal" font-weight="bold" text-decoration="none" x="148.5" y="464">Specialist User</text></g></g><g transform="translate(-134,-110) scale(1,1)"><path fill="#C0C0C0" stroke="none" d="M 503 434.5 C 503 414.8938896 551.3532416 399 611 399 C 670.6467584 399 719 414.8938896 719 434.5 C 719 454.1061104 670.6467584 470 611 470 C 551.3532416 470 503 454.1061104 503 434.5 Z" opacity="0.2"/></g><g transform="translate(-134,-110) scale(1,1)"><path fill="#ffffff" stroke="none" d="M 496 427.5 C 496 407.8938896 544.3532416 392 604 392 C 663.6467584 392 712 407.8938896 712 427.5 C 712 447.1061104 663.6467584 463 604 463 C 544.3532416 463 496 447.1061104 496 427.5 Z"/></g><g transform="translate(-134,-110) scale(1,1)"><path fill="none" stroke="#000000" d="M 496 427.5 C 496 407.8938896 544.3532416 392 604 392 C 663.6467584 392 712 407.8938896 712 427.5 C 712 447.1061104 663.6467584 463 604 463 C 544.3532416 463 496 447.1061104 496 427.5 Z" stroke-miterlimit="10"/></g><g transform="translate(-134,-110) scale(1,1)"><g><path fill="none" stroke="none"/><text fill="#000000" stroke="none" font-family="Arial" font-size="13px" font-style="normal" font-weight="bold" text-decoration="none" x="538.254150390625" y="420">Show Specialist User</text><text fill="#000000" stroke="none" font-family="Arial" font-size="13px" font-style="normal" font-weight="bold" text-decoration="none" x="552.707763671875" y="433">Dashboard Page</text><text fill="#000000" stroke="none" font-family="Arial" font-size="13px" font-style="normal" font-weight="bold" text-decoration="none" x="580.88818359375" y="446">[UH-16]</text></g></g><g transform="translate(-134,-110) scale(1,1)"><path fill="#C0C0C0" stroke="none" d="M 391 330.5 C 391 310.8938896 439.3532416 295 499 295 C 558.6467584 295 607 310.8938896 607 330.5 C 607 350.1061104 558.6467584 366 499 366 C 439.3532416 366 391 350.1061104 391 330.5 Z" opacity="0.2"/></g><g transform="translate(-134,-110) scale(1,1)"><path fill="#ffffff" stroke="none" d="M 384 323.5 C 384 303.8938896 432.3532416 288 492 288 C 551.6467584 288 600 303.8938896 600 323.5 C 600 343.1061104 551.6467584 359 492 359 C 432.3532416 359 384 343.1061104 384 323.5 Z"/></g><g transform="translate(-134,-110) scale(1,1)"><path fill="none" stroke="#000000" d="M 384 323.5 C 384 303.8938896 432.3532416 288 492 288 C 551.6467584 288 600 303.8938896 600 323.5 C 600 343.1061104 551.6467584 359 492 359 C 432.3532416 359 384 343.1061104 384 323.5 Z" stroke-miterlimit="10"/></g><g transform="translate(-134,-110) scale(1,1)"><g><path fill="none" stroke="none"/><text fill="#000000" stroke="none" font-family="Arial" font-size="13px" font-style="normal" font-weight="bold" text-decoration="none" x="434.2109375" y="316">Access to pending</text><text fill="#000000" stroke="none" font-family="Arial" font-size="13px" font-style="normal" font-weight="bold" text-decoration="none" x="439.62548828125" y="329">Patient List Page</text><text fill="#000000" stroke="none" font-family="Arial" font-size="13px" font-style="normal" font-weight="bold" text-decoration="none" x="468.88818359375" y="342">[UH-17]</text></g></g><g transform="translate(-134,-110) scale(1,1)"><path fill="#C0C0C0" stroke="none" d="M 359 210.5 C 359 190.8938896 419.8892672 175 495 175 C 570.1107328 175 631 190.8938896 631 210.5 C 631 230.1061104 570.1107328 246 495 246 C 419.8892672 246 359 230.1061104 359 210.5 Z" opacity="0.2"/></g><g transform="translate(-134,-110) scale(1,1)"><path fill="#ffffff" stroke="none" d="M 352 203.5 C 352 183.8938896 412.8892672 168 488 168 C 563.1107328 168 624 183.8938896 624 203.5 C 624 223.1061104 563.1107328 239 488 239 C 412.8892672 239 352 223.1061104 352 203.5 Z"/></g><g transform="translate(-134,-110) scale(1,1)"><path fill="none" stroke="#000000" d="M 352 203.5 C 352 183.8938896 412.8892672 168 488 168 C 563.1107328 168 624 183.8938896 624 203.5 C 624 223.1061104 563.1107328 239 488 239 C 412.8892672 239 352 223.1061104 352 203.5 Z" stroke-miterlimit="10"/></g><g transform="translate(-134,-110) scale(1,1)"><g><path fill="none" stroke="none"/><text fill="#000000" stroke="none" font-family="Arial" font-size="13px" font-style="normal" font-weight="bold" text-decoration="none" x="398.06005859375" y="196">See more information related</text><text fill="#000000" stroke="none" font-family="Arial" font-size="13px" font-style="normal" font-weight="bold" text-decoration="none" x="416.119140625" y="209">a pending Pacient User</text><text fill="#000000" stroke="none" font-family="Arial" font-size="13px" font-style="normal" font-weight="bold" text-decoration="none" x="464.88818359375" y="222">[UH-18]</text></g></g><g transform="translate(-134,-110) scale(1,1)"><path fill="#C0C0C0" stroke="none" d="M 647 322.5 C 647 302.8938896 691.77152 287 747 287 C 802.22848 287 847 302.8938896 847 322.5 C 847 342.1061104 802.22848 358 747 358 C 691.77152 358 647 342.1061104 647 322.5 Z" opacity="0.2"/></g><g transform="translate(-134,-110) scale(1,1)"><path fill="#ffffff" stroke="none" d="M 640 315.5 C 640 295.8938896 684.77152 280 740 280 C 795.22848 280 840 295.8938896 840 315.5 C 840 335.1061104 795.22848 351 740 351 C 684.77152 351 640 335.1061104 640 315.5 Z"/></g><g transform="translate(-134,-110) scale(1,1)"><path fill="none" stroke="#000000" d="M 640 315.5 C 640 295.8938896 684.77152 280 740 280 C 795.22848 280 840 295.8938896 840 315.5 C 840 335.1061104 795.22848 351 740 351 C 684.77152 351 640 335.1061104 640 315.5 Z" stroke-miterlimit="10"/></g><g transform="translate(-134,-110) scale(1,1)"><g><path fill="none" stroke="none"/><text fill="#000000" stroke="none" font-family="Arial" font-size="13px" font-style="normal" font-weight="bold" text-decoration="none" x="674.96826171875" y="308">Access to processed</text><text fill="#000000" stroke="none" font-family="Arial" font-size="13px" font-style="normal" font-weight="bold" text-decoration="none" x="686.175048828125" y="321">Pacient List Page</text><text fill="#000000" stroke="none" font-family="Arial" font-size="13px" font-style="normal" font-weight="bold" text-decoration="none" x="716.88818359375" y="334">[UH-19]</text></g></g><g transform="translate(-134,-110) scale(1,1)"><path fill="#C0C0C0" stroke="none" d="M 711 210.5 C 711 190.8938896 775.4709888 175 855 175 C 934.5290112 175 999 190.8938896 999 210.5 C 999 230.1061104 934.5290112 246 855 246 C 775.4709888 246 711 230.1061104 711 210.5 Z" opacity="0.2"/></g><g transform="translate(-134,-110) scale(1,1)"><path fill="#ffffff" stroke="none" d="M 704 203.5 C 704 183.8938896 768.4709888 168 848 168 C 927.5290112 168 992 183.8938896 992 203.5 C 992 223.1061104 927.5290112 239 848 239 C 768.4709888 239 704 223.1061104 704 203.5 Z"/></g><g transform="translate(-134,-110) scale(1,1)"><path fill="none" stroke="#000000" d="M 704 203.5 C 704 183.8938896 768.4709888 168 848 168 C 927.5290112 168 992 183.8938896 992 203.5 C 992 223.1061104 927.5290112 239 848 239 C 768.4709888 239 704 223.1061104 704 203.5 Z" stroke-miterlimit="10"/></g><g transform="translate(-134,-110) scale(1,1)"><g><path fill="none" stroke="none"/><text fill="#000000" stroke="none" font-family="Arial" font-size="13px" font-style="normal" font-weight="bold" text-decoration="none" x="754.445068359375" y="196">See more information realated</text><text fill="#000000" stroke="none" font-family="Arial" font-size="13px" font-style="normal" font-weight="bold" text-decoration="none" x="770.326904296875" y="209">a processed Patient User</text><text fill="#000000" stroke="none" font-family="Arial" font-size="13px" font-style="normal" font-weight="bold" text-decoration="none" x="824.88818359375" y="222">[UH-20]</text></g></g><g transform="translate(-134,-110) scale(1,1)"><path fill="#C0C0C0" stroke="none" d="M 687 546.5 C 687 526.8938896 724.6080768 511 771 511 C 817.3919232 511 855 526.8938896 855 546.5 C 855 566.1061104 817.3919232 582 771 582 C 724.6080768 582 687 566.1061104 687 546.5 Z" opacity="0.2"/></g><g transform="translate(-134,-110) scale(1,1)"><path fill="#ffffff" stroke="none" d="M 680 539.5 C 680 519.8938896 717.6080768 504 764 504 C 810.3919232 504 848 519.8938896 848 539.5 C 848 559.1061104 810.3919232 575 764 575 C 717.6080768 575 680 559.1061104 680 539.5 Z"/></g><g transform="translate(-134,-110) scale(1,1)"><path fill="none" stroke="#000000" d="M 680 539.5 C 680 519.8938896 717.6080768 504 764 504 C 810.3919232 504 848 519.8938896 848 539.5 C 848 559.1061104 810.3919232 575 764 575 C 717.6080768 575 680 559.1061104 680 539.5 Z" stroke-miterlimit="10"/></g><g transform="translate(-134,-110) scale(1,1)"><g><path fill="none" stroke="none"/><text fill="#000000" stroke="none" font-family="Arial" font-size="13px" font-style="normal" font-weight="bold" text-decoration="none" x="711.254150390625" y="532">Access to record</text><text fill="#000000" stroke="none" font-family="Arial" font-size="13px" font-style="normal" font-weight="bold" text-decoration="none" x="721.740478515625" y="545">of all Patients</text><text fill="#000000" stroke="none" font-family="Arial" font-size="13px" font-style="normal" font-weight="bold" text-decoration="none" x="740.88818359375" y="558">[UH-21]</text></g></g><g transform="translate(-134,-110) scale(1,1)"><path fill="#C0C0C0" stroke="none" d="M 719 659.5 C 719 634.9233264 770.9349632 615 835 615 C 899.0650368 615 951 634.9233264 951 659.5 C 951 684.0766736 899.0650368 704 835 704 C 770.9349632 704 719 684.0766736 719 659.5 Z" opacity="0.2"/></g><g transform="translate(-134,-110) scale(1,1)"><path fill="#ffffff" stroke="none" d="M 712 652.5 C 712 627.9233264 763.9349632 608 828 608 C 892.0650368 608 944 627.9233264 944 652.5 C 944 677.0766736 892.0650368 697 828 697 C 763.9349632 697 712 677.0766736 712 652.5 Z"/></g><g transform="translate(-134,-110) scale(1,1)"><path fill="none" stroke="#000000" d="M 712 652.5 C 712 627.9233264 763.9349632 608 828 608 C 892.0650368 608 944 627.9233264 944 652.5 C 944 677.0766736 892.0650368 697 828 697 C 763.9349632 697 712 677.0766736 712 652.5 Z" stroke-miterlimit="10"/></g><g transform="translate(-134,-110) scale(1,1)"><g><path fill="none" stroke="none"/><text fill="#000000" stroke="none" font-family="Arial" font-size="13px" font-style="normal" font-weight="bold" text-decoration="none" x="761.181396484375" y="645">See more information</text><text fill="#000000" stroke="none" font-family="Arial" font-size="13px" font-style="normal" font-weight="bold" text-decoration="none" x="765.15185546875" y="658">about a Patient User</text><text fill="#000000" stroke="none" font-family="Arial" font-size="13px" font-style="normal" font-weight="bold" text-decoration="none" x="804.88818359375" y="671">[UH-22]</text></g></g><g transform="translate(-134,-110) scale(1,1)"><path fill="#C0C0C0" stroke="none" d="M 351 563.5 C 351 538.9233264 399.3532416 519 459 519 C 518.6467584 519 567 538.9233264 567 563.5 C 567 588.0766736 518.6467584 608 459 608 C 399.3532416 608 351 588.0766736 351 563.5 Z" opacity="0.2"/></g><g transform="translate(-134,-110) scale(1,1)"><path fill="#ffffff" stroke="none" d="M 344 556.5 C 344 531.9233264 392.3532416 512 452 512 C 511.6467584 512 560 531.9233264 560 556.5 C 560 581.0766736 511.6467584 601 452 601 C 392.3532416 601 344 581.0766736 344 556.5 Z"/></g><g transform="translate(-134,-110) scale(1,1)"><path fill="none" stroke="#000000" d="M 344 556.5 C 344 531.9233264 392.3532416 512 452 512 C 511.6467584 512 560 531.9233264 560 556.5 C 560 581.0766736 511.6467584 601 452 601 C 392.3532416 601 344 581.0766736 344 556.5 Z" stroke-miterlimit="10"/></g><g transform="translate(-134,-110) scale(1,1)"><g><path fill="none" stroke="none"/><text fill="#000000" stroke="none" font-family="Arial" font-size="13px" font-style="normal" font-weight="bold" text-decoration="none" x="421.2900390625" y="542.5">Access to</text><text fill="#000000" stroke="none" font-family="Arial" font-size="13px" font-style="normal" font-weight="bold" text-decoration="none" x="399.628662109375" y="555.5">recommendation</text><text fill="#000000" stroke="none" font-family="Arial" font-size="13px" font-style="normal" font-weight="bold" text-decoration="none" x="385.908203125" y="568.5">using their Diagnosis</text><text fill="#000000" stroke="none" font-family="Arial" font-size="13px" font-style="normal" font-weight="bold" text-decoration="none" x="428.88818359375" y="581.5">[UH-23]</text></g></g><g transform="translate(-134,-110) scale(1,1)"><path fill="#C0C0C0" stroke="none" d="M 543 651.5 C 543 626.9233264 575.2354944 607 615 607 C 654.7645056 607 687 626.9233264 687 651.5 C 687 676.0766736 654.7645056 696 615 696 C 575.2354944 696 543 676.0766736 543 651.5 Z" opacity="0.2"/></g><g transform="translate(-134,-110) scale(1,1)"><path fill="#ffffff" stroke="none" d="M 536 644.5 C 536 619.9233264 568.2354944 600 608 600 C 647.7645056 600 680 619.9233264 680 644.5 C 680 669.0766736 647.7645056 689 608 689 C 568.2354944 689 536 669.0766736 536 644.5 Z"/></g><g transform="translate(-134,-110) scale(1,1)"><path fill="none" stroke="#000000" d="M 536 644.5 C 536 619.9233264 568.2354944 600 608 600 C 647.7645056 600 680 619.9233264 680 644.5 C 680 669.0766736 647.7645056 689 608 689 C 568.2354944 689 536 669.0766736 536 644.5 Z" stroke-miterlimit="10"/></g><g transform="translate(-134,-110) scale(1,1)"><g><path fill="none" stroke="none"/><text fill="#000000" stroke="none" font-family="Arial" font-size="13px" font-style="normal" font-weight="bold" text-decoration="none" x="577.2900390625" y="630.5">Access to</text><text fill="#000000" stroke="none" font-family="Arial" font-size="13px" font-style="normal" font-weight="bold" text-decoration="none" x="577.65185546875" y="643.5">Specialist</text><text fill="#000000" stroke="none" font-family="Arial" font-size="13px" font-style="normal" font-weight="bold" text-decoration="none" x="568.615966796875" y="656.5">User metrics</text><text fill="#000000" stroke="none" font-family="Arial" font-size="13px" font-style="normal" font-weight="bold" text-decoration="none" x="584.88818359375" y="669.5">[UH-24]</text></g></g><g transform="translate(-134,-110) scale(1,1)"><path fill="#C0C0C0" stroke="none" d="M 823 394.5 C 823 374.8938896 871.3532416 359 931 359 C 990.6467584 359 1039 374.8938896 1039 394.5 C 1039 414.1061104 990.6467584 430 931 430 C 871.3532416 430 823 414.1061104 823 394.5 Z" opacity="0.2"/></g><g transform="translate(-134,-110) scale(1,1)"><path fill="#ffffff" stroke="none" d="M 816 387.5 C 816 367.8938896 864.3532416 352 924 352 C 983.6467584 352 1032 367.8938896 1032 387.5 C 1032 407.1061104 983.6467584 423 924 423 C 864.3532416 423 816 407.1061104 816 387.5 Z"/></g><g transform="translate(-134,-110) scale(1,1)"><path fill="none" stroke="#000000" d="M 816 387.5 C 816 367.8938896 864.3532416 352 924 352 C 983.6467584 352 1032 367.8938896 1032 387.5 C 1032 407.1061104 983.6467584 423 924 423 C 864.3532416 423 816 407.1061104 816 387.5 Z" stroke-miterlimit="10"/></g><g transform="translate(-134,-110) scale(1,1)"><g><path fill="none" stroke="none"/><text fill="#000000" stroke="none" font-family="Arial" font-size="13px" font-style="normal" font-weight="bold" text-decoration="none" x="877.030517578125" y="380">Access to User</text><text fill="#000000" stroke="none" font-family="Arial" font-size="13px" font-style="normal" font-weight="bold" text-decoration="none" x="871.984130859375" y="393">DashBoard Page</text><text fill="#000000" stroke="none" font-family="Arial" font-size="13px" font-style="normal" font-weight="bold" text-decoration="none" x="899.447265625" y="406">[UH-XX]</text></g></g><g transform="translate(-134,-110) scale(1,1)"><path fill="none" stroke="#000000" d="M 246 430 L 496 430" stroke-miterlimit="10"/></g><g transform="translate(-134,-110) scale(1,1)"><path fill="none" stroke="#000000" d="M 713 413 L 815 401" stroke-miterlimit="10" stroke-dasharray="3"/></g><g transform="translate(-134,-110) scale(1,1)"><path fill="none" stroke="#000000" d="M 805.3987786298837 406.36810471228176 L 815 401 L 804.4150880173437 398.0067345056915" stroke-miterlimit="10"/></g><g transform="translate(-134,-110) scale(1,1)"><g><path fill="none" stroke="none"/><text fill="#000000" stroke="none" font-family="Arial" font-size="13px" font-style="normal" font-weight="normal" text-decoration="none" x="735.5" y="399">«extend»</text></g></g><g transform="translate(-134,-110) scale(1,1)"><path fill="none" stroke="#000000" d="M 605 464 L 607 599" stroke-miterlimit="10" stroke-dasharray="3"/></g><g transform="translate(-134,-110) scale(1,1)"><path fill="none" stroke="#000000" d="M 602.640402491177 588.9007965877964 L 607 599 L 611.0585142556188 588.7760838209158" stroke-miterlimit="10"/></g><g transform="translate(-134,-110) scale(1,1)"><g><path fill="none" stroke="none"/><text fill="#000000" stroke="none" font-family="Arial" font-size="13px" font-style="normal" font-weight="normal" text-decoration="none" x="614.5" y="547">«include»</text></g></g><g transform="translate(-134,-110) scale(1,1)"><path fill="none" stroke="#000000" d="M 532 360 L 565 391" stroke-miterlimit="10" stroke-dasharray="3"/></g><g transform="translate(-134,-110) scale(1,1)"><path fill="none" stroke="#000000" d="M 554.7108005097193 387.1099648010322 L 565 391 L 560.4751075356859 380.9737669991969" stroke-miterlimit="10"/></g><g transform="translate(-134,-110) scale(1,1)"><g><path fill="none" stroke="none"/><text fill="#000000" stroke="none" font-family="Arial" font-size="13px" font-style="normal" font-weight="normal" text-decoration="none" x="552.5" y="367">«extend»</text></g></g><g transform="translate(-134,-110) scale(1,1)"><path fill="none" stroke="#000000" d="M 695 352 L 648 391" stroke-miterlimit="10" stroke-dasharray="3"/></g><g transform="translate(-134,-110) scale(1,1)"><path fill="none" stroke="#000000" d="M 653.1327231310537 381.270912002662 L 648 391 L 658.5088874295994 387.74987923424277" stroke-miterlimit="10"/></g><g transform="translate(-134,-110) scale(1,1)"><g><path fill="none" stroke="none"/><text fill="#000000" stroke="none" font-family="Arial" font-size="13px" font-style="normal" font-weight="normal" text-decoration="none" x="679.5" y="378">«extend»</text></g></g><g transform="translate(-134,-110) scale(1,1)"><path fill="none" stroke="#000000" d="M 713 503 L 657 464" stroke-miterlimit="10" stroke-dasharray="3"/></g><g transform="translate(-134,-110) scale(1,1)"><path fill="none" stroke="#000000" d="M 667.7452692922831 466.3535479252223 L 657 464 L 662.9338430844767 473.26226248002115" stroke-miterlimit="10"/></g><g transform="translate(-134,-110) scale(1,1)"><g><path fill="none" stroke="none"/><text fill="#000000" stroke="none" font-family="Arial" font-size="13px" font-style="normal" font-weight="normal" text-decoration="none" x="703.5" y="483">«extend»</text></g></g><g transform="translate(-134,-110) scale(1,1)"><path fill="none" stroke="#000000" d="M 505 511 L 560 464" stroke-miterlimit="10" stroke-dasharray="3"/></g><g transform="translate(-134,-110) scale(1,1)"><path fill="none" stroke="#000000" d="M 555.0087379940583 473.80241315126244 L 560 464 L 549.53929197767 467.40199760016975" stroke-miterlimit="10"/></g><g transform="translate(-134,-110) scale(1,1)"><g><path fill="none" stroke="none"/><text fill="#000000" stroke="none" font-family="Arial" font-size="13px" font-style="normal" font-weight="normal" text-decoration="none" x="462.5" y="475">«extend»</text></g></g><g transform="translate(-134,-110) scale(1,1)"><path fill="none" stroke="#000000" d="M 803 607 L 785 576" stroke-miterlimit="10" stroke-dasharray="3"/></g><g transform="translate(-134,-110) scale(1,1)"><path fill="none" stroke="#000000" d="M 793.7433844236255 582.6748205085008 L 785 576 L 786.4626955717024 586.9023172612305" stroke-miterlimit="10"/></g><g transform="translate(-134,-110) scale(1,1)"><g><path fill="none" stroke="none"/><text fill="#000000" stroke="none" font-family="Arial" font-size="13px" font-style="normal" font-weight="normal" text-decoration="none" x="741.5" y="611">«extend»</text></g></g><g transform="translate(-134,-110) scale(1,1)"><path fill="none" stroke="#000000" d="M 812 240 L 775 279" stroke-miterlimit="10" stroke-dasharray="3"/></g><g transform="translate(-134,-110) scale(1,1)"><path fill="none" stroke="#000000" d="M 778.9407146667412 268.7301038021151 L 775 279 L 785.0484193071803 274.5245928199676" stroke-miterlimit="10"/></g><g transform="translate(-134,-110) scale(1,1)"><g><path fill="none" stroke="none"/><text fill="#000000" stroke="none" font-family="Arial" font-size="13px" font-style="normal" font-weight="normal" text-decoration="none" x="788.5" y="284">«extend»</text></g></g><g transform="translate(-134,-110) scale(1,1)"><path fill="none" stroke="#000000" d="M 489 240 L 491 287" stroke-miterlimit="10" stroke-dasharray="3"/></g><g transform="translate(-134,-110) scale(1,1)"><path fill="none" stroke="#000000" d="M 486.36222507696067 277.0254802740569 L 491 287 L 494.7736484395953 276.66754736500866" stroke-miterlimit="10"/></g><g transform="translate(-134,-110) scale(1,1)"><g><path fill="none" stroke="none"/><text fill="#000000" stroke="none" font-family="Arial" font-size="13px" font-style="normal" font-weight="normal" text-decoration="none" x="492.5" y="266">«extend»</text></g></g><g transform="translate(-134,-110) scale(1,1)"><path fill="#C0C0C0" stroke="none" d="M 879 498.5 C 879 478.8938896 911.2354944 463 951 463 C 990.7645056 463 1023 478.8938896 1023 498.5 C 1023 518.1061104 990.7645056 534 951 534 C 911.2354944 534 879 518.1061104 879 498.5 Z" opacity="0.2"/></g><g transform="translate(-134,-110) scale(1,1)"><path fill="#ffffff" stroke="none" d="M 872 491.5 C 872 471.8938896 904.2354944 456 944 456 C 983.7645056 456 1016 471.8938896 1016 491.5 C 1016 511.1061104 983.7645056 527 944 527 C 904.2354944 527 872 511.1061104 872 491.5 Z"/></g><g transform="translate(-134,-110) scale(1,1)"><path fill="none" stroke="#000000" d="M 872 491.5 C 872 471.8938896 904.2354944 456 944 456 C 983.7645056 456 1016 471.8938896 1016 491.5 C 1016 511.1061104 983.7645056 527 944 527 C 904.2354944 527 872 511.1061104 872 491.5 Z" stroke-miterlimit="10"/></g><g transform="translate(-134,-110) scale(1,1)"><g><path fill="none" stroke="none"/><text fill="#000000" stroke="none" font-family="Arial" font-size="13px" font-style="normal" font-weight="bold" text-decoration="none" x="913.2900390625" y="484">Access to</text><text fill="#000000" stroke="none" font-family="Arial" font-size="13px" font-style="normal" font-weight="bold" text-decoration="none" x="906.431396484375" y="497">Profile Page</text><text fill="#000000" stroke="none" font-family="Arial" font-size="13px" font-style="normal" font-weight="bold" text-decoration="none" x="921.61181640625" y="510">[RF-15]</text></g></g><g transform="translate(-134,-110) scale(1,1)"><path fill="none" stroke="#000000" d="M 871 477 L 713 448" stroke-miterlimit="10" stroke-dasharray="3"/></g><g transform="translate(-134,-110) scale(1,1)"><path fill="none" stroke="#000000" d="M 723.7556378194633 445.69429943476416 L 713 448 L 722.235760943193 453.97500793306517" stroke-miterlimit="10"/></g><g transform="translate(-134,-110) scale(1,1)"><g><path fill="none" stroke="none"/><text fill="#000000" stroke="none" font-family="Arial" font-size="13px" font-style="normal" font-weight="normal" text-decoration="none" x="759.5" y="496">«extend»</text></g></g></g></svg>