<svg version="1.1" xmlns="http://www.w3.org/2000/svg" xmlns:xlink="http://www.w3.org/1999/xlink" width="852" height="475"><defs/><g><text fill="#eeeeee" stroke="none" font-family="Arial" font-size="24px" font-style="normal" font-weight="normal" text-decoration="none" x="0" y="0">UNREGISTERED</text><text fill="#eeeeee" stroke="none" font-family="Arial" font-size="24px" font-style="normal" font-weight="normal" text-decoration="none" x="0" y="30">UNREGISTERED</text><text fill="#eeeeee" stroke="none" font-family="Arial" font-size="24px" font-style="normal" font-weight="normal" text-decoration="none" x="0" y="60">UNREGISTERED</text><text fill="#eeeeee" stroke="none" font-family="Arial" font-size="24px" font-style="normal" font-weight="normal" text-decoration="none" x="0" y="90">UNREGISTERED</text><text fill="#eeeeee" stroke="none" font-family="Arial" font-size="24px" font-style="normal" font-weight="normal" text-decoration="none" x="0" y="120">UNREGISTERED</text><text fill="#eeeeee" stroke="none" font-family="Arial" font-size="24px" font-style="normal" font-weight="normal" text-decoration="none" x="0" y="150">UNREGISTERED</text><text fill="#eeeeee" stroke="none" font-family="Arial" font-size="24px" font-style="normal" font-weight="normal" text-decoration="none" x="0" y="180">UNREGISTERED</text><text fill="#eeeeee" stroke="none" font-family="Arial" font-size="24px" font-style="normal" font-weight="normal" text-decoration="none" x="0" y="210">UNREGISTERED</text><text fill="#eeeeee" stroke="none" font-family="Arial" font-size="24px" font-style="normal" font-weight="normal" text-decoration="none" x="0" y="240">UNREGISTERED</text><text fill="#eeeeee" stroke="none" font-family="Arial" font-size="24px" font-style="normal" font-weight="normal" text-decoration="none" x="0" y="270">UNREGISTERED</text><text fill="#eeeeee" stroke="none" font-family="Arial" font-size="24px" font-style="normal" font-weight="normal" text-decoration="none" x="0" y="300">UNREGISTERED</text><text fill="#eeeeee" stroke="none" font-family="Arial" font-size="24px" font-style="normal" font-weight="normal" text-decoration="none" x="0" y="330">UNREGISTERED</text><text fill="#eeeeee" stroke="none" font-family="Arial" font-size="24px" font-style="normal" font-weight="normal" text-decoration="none" x="0" y="360">UNREGISTERED</text><text fill="#eeeeee" stroke="none" font-family="Arial" font-size="24px" font-style="normal" font-weight="normal" text-decoration="none" x="0" y="390">UNREGISTERED</text><text fill="#eeeeee" stroke="none" font-family="Arial" font-size="24px" font-style="normal" font-weight="normal" text-decoration="none" x="0" y="420">UNREGISTERED</text><text fill="#eeeeee" stroke="none" font-family="Arial" font-size="24px" font-style="normal" font-weight="normal" text-decoration="none" x="0" y="450">UNREGISTERED</text><text fill="#eeeeee" stroke="none" font-family="Arial" font-size="24px" font-style="normal" font-weight="normal" text-decoration="none" x="200" y="0">UNREGISTERED</text><text fill="#eeeeee" stroke="none" font-family="Arial" font-size="24px" font-style="normal" font-weight="normal" text-decoration="none" x="200" y="30">UNREGISTERED</text><text fill="#eeeeee" stroke="none" font-family="Arial" font-size="24px" font-style="normal" font-weight="normal" text-decoration="none" x="200" y="60">UNREGISTERED</text><text fill="#eeeeee" stroke="none" font-family="Arial" font-size="24px" font-style="normal" font-weight="normal" text-decoration="none" x="200" y="90">UNREGISTERED</text><text fill="#eeeeee" stroke="none" font-family="Arial" font-size="24px" font-style="normal" font-weight="normal" text-decoration="none" x="200" y="120">UNREGISTERED</text><text fill="#eeeeee" stroke="none" font-family="Arial" font-size="24px" font-style="normal" font-weight="normal" text-decoration="none" x="200" y="150">UNREGISTERED</text><text fill="#eeeeee" stroke="none" font-family="Arial" font-size="24px" font-style="normal" font-weight="normal" text-decoration="none" x="200" y="180">UNREGISTERED</text><text fill="#eeeeee" stroke="none" font-family="Arial" font-size="24px" font-style="normal" font-weight="normal" text-decoration="none" x="200" y="210">UNREGISTERED</text><text fill="#eeeeee" stroke="none" font-family="Arial" font-size="24px" font-style="normal" font-weight="normal" text-decoration="none" x="200" y="240">UNREGISTERED</text><text fill="#eeeeee" stroke="none" font-family="Arial" font-size="24px" font-style="normal" font-weight="normal" text-decoration="none" x="200" y="270">UNREGISTERED</text><text fill="#eeeeee" stroke="none" font-family="Arial" font-size="24px" font-style="normal" font-weight="normal" text-decoration="none" x="200" y="300">UNREGISTERED</text><text fill="#eeeeee" stroke="none" font-family="Arial" font-size="24px" font-style="normal" font-weight="normal" text-decoration="none" x="200" y="330">UNREGISTERED</text><text fill="#eeeeee" stroke="none" font-family="Arial" font-size="24px" font-style="normal" font-weight="normal" text-decoration="none" x="200" y="360">UNREGISTERED</text><text fill="#eeeeee" stroke="none" font-family="Arial" font-size="24px" font-style="normal" font-weight="normal" text-decoration="none" x="200" y="390">UNREGISTERED</text><text fill="#eeeeee" stroke="none" font-family="Arial" font-size="24px" font-style="normal" font-weight="normal" text-decoration="none" x="200" y="420">UNREGISTERED</text><text fill="#eeeeee" stroke="none" font-family="Arial" font-size="24px" font-style="normal" font-weight="normal" text-decoration="none" x="200" y="450">UNREGISTERED</text><text fill="#eeeeee" stroke="none" font-family="Arial" font-size="24px" font-style="normal" font-weight="normal" text-decoration="none" x="400" y="0">UNREGISTERED</text><text fill="#eeeeee" stroke="none" font-family="Arial" font-size="24px" font-style="normal" font-weight="normal" text-decoration="none" x="400" y="30">UNREGISTERED</text><text fill="#eeeeee" stroke="none" font-family="Arial" font-size="24px" font-style="normal" font-weight="normal" text-decoration="none" x="400" y="60">UNREGISTERED</text><text fill="#eeeeee" stroke="none" font-family="Arial" font-size="24px" font-style="normal" font-weight="normal" text-decoration="none" x="400" y="90">UNREGISTERED</text><text fill="#eeeeee" stroke="none" font-family="Arial" font-size="24px" font-style="normal" font-weight="normal" text-decoration="none" x="400" y="120">UNREGISTERED</text><text fill="#eeeeee" stroke="none" font-family="Arial" font-size="24px" font-style="normal" font-weight="normal" text-decoration="none" x="400" y="150">UNREGISTERED</text><text fill="#eeeeee" stroke="none" font-family="Arial" font-size="24px" font-style="normal" font-weight="normal" text-decoration="none" x="400" y="180">UNREGISTERED</text><text fill="#eeeeee" stroke="none" font-family="Arial" font-size="24px" font-style="normal" font-weight="normal" text-decoration="none" x="400" y="210">UNREGISTERED</text><text fill="#eeeeee" stroke="none" font-family="Arial" font-size="24px" font-style="normal" font-weight="normal" text-decoration="none" x="400" y="240">UNREGISTERED</text><text fill="#eeeeee" stroke="none" font-family="Arial" font-size="24px" font-style="normal" font-weight="normal" text-decoration="none" x="400" y="270">UNREGISTERED</text><text fill="#eeeeee" stroke="none" font-family="Arial" font-size="24px" font-style="normal" font-weight="normal" text-decoration="none" x="400" y="300">UNREGISTERED</text><text fill="#eeeeee" stroke="none" font-family="Arial" font-size="24px" font-style="normal" font-weight="normal" text-decoration="none" x="400" y="330">UNREGISTERED</text><text fill="#eeeeee" stroke="none" font-family="Arial" font-size="24px" font-style="normal" font-weight="normal" text-decoration="none" x="400" y="360">UNREGISTERED</text><text fill="#eeeeee" stroke="none" font-family="Arial" font-size="24px" font-style="normal" font-weight="normal" text-decoration="none" x="400" y="390">UNREGISTERED</text><text fill="#eeeeee" stroke="none" font-family="Arial" font-size="24px" font-style="normal" font-weight="normal" text-decoration="none" x="400" y="420">UNREGISTERED</text><text fill="#eeeeee" stroke="none" font-family="Arial" font-size="24px" font-style="normal" font-weight="normal" text-decoration="none" x="400" y="450">UNREGISTERED</text><text fill="#eeeeee" stroke="none" font-family="Arial" font-size="24px" font-style="normal" font-weight="normal" text-decoration="none" x="600" y="0">UNREGISTERED</text><text fill="#eeeeee" stroke="none" font-family="Arial" font-size="24px" font-style="normal" font-weight="normal" text-decoration="none" x="600" y="30">UNREGISTERED</text><text fill="#eeeeee" stroke="none" font-family="Arial" font-size="24px" font-style="normal" font-weight="normal" text-decoration="none" x="600" y="60">UNREGISTERED</text><text fill="#eeeeee" stroke="none" font-family="Arial" font-size="24px" font-style="normal" font-weight="normal" text-decoration="none" x="600" y="90">UNREGISTERED</text><text fill="#eeeeee" stroke="none" font-family="Arial" font-size="24px" font-style="normal" font-weight="normal" text-decoration="none" x="600" y="120">UNREGISTERED</text><text fill="#eeeeee" stroke="none" font-family="Arial" font-size="24px" font-style="normal" font-weight="normal" text-decoration="none" x="600" y="150">UNREGISTERED</text><text fill="#eeeeee" stroke="none" font-family="Arial" font-size="24px" font-style="normal" font-weight="normal" text-decoration="none" x="600" y="180">UNREGISTERED</text><text fill="#eeeeee" stroke="none" font-family="Arial" font-size="24px" font-style="normal" font-weight="normal" text-decoration="none" x="600" y="210">UNREGISTERED</text><text fill="#eeeeee" stroke="none" font-family="Arial" font-size="24px" font-style="normal" font-weight="normal" text-decoration="none" x="600" y="240">UNREGISTERED</text><text fill="#eeeeee" stroke="none" font-family="Arial" font-size="24px" font-style="normal" font-weight="normal" text-decoration="none" x="600" y="270">UNREGISTERED</text><text fill="#eeeeee" stroke="none" font-family="Arial" font-size="24px" font-style="normal" font-weight="normal" text-decoration="none" x="600" y="300">UNREGISTERED</text><text fill="#eeeeee" stroke="none" font-family="Arial" font-size="24px" font-style="normal" font-weight="normal" text-decoration="none" x="600" y="330">UNREGISTERED</text><text fill="#eeeeee" stroke="none" font-family="Arial" font-size="24px" font-style="normal" font-weight="normal" text-decoration="none" x="600" y="360">UNREGISTERED</text><text fill="#eeeeee" stroke="none" font-family="Arial" font-size="24px" font-style="normal" font-weight="normal" text-decoration="none" x="600" y="390">UNREGISTERED</text><text fill="#eeeeee" stroke="none" font-family="Arial" font-size="24px" font-style="normal" font-weight="normal" text-decoration="none" x="600" y="420">UNREGISTERED</text><text fill="#eeeeee" stroke="none" font-family="Arial" font-size="24px" font-style="normal" font-weight="normal" text-decoration="none" x="600" y="450">UNREGISTERED</text><text fill="#eeeeee" stroke="none" font-family="Arial" font-size="24px" font-style="normal" font-weight="normal" text-decoration="none" x="800" y="0">UNREGISTERED</text><text fill="#eeeeee" stroke="none" font-family="Arial" font-size="24px" font-style="normal" font-weight="normal" text-decoration="none" x="800" y="30">UNREGISTERED</text><text fill="#eeeeee" stroke="none" font-family="Arial" font-size="24px" font-style="normal" font-weight="normal" text-decoration="none" x="800" y="60">UNREGISTERED</text><text fill="#eeeeee" stroke="none" font-family="Arial" font-size="24px" font-style="normal" font-weight="normal" text-decoration="none" x="800" y="90">UNREGISTERED</text><text fill="#eeeeee" stroke="none" font-family="Arial" font-size="24px" font-style="normal" font-weight="normal" text-decoration="none" x="800" y="120">UNREGISTERED</text><text fill="#eeeeee" stroke="none" font-family="Arial" font-size="24px" font-style="normal" font-weight="normal" text-decoration="none" x="800" y="150">UNREGISTERED</text><text fill="#eeeeee" stroke="none" font-family="Arial" font-size="24px" font-style="normal" font-weight="normal" text-decoration="none" x="800" y="180">UNREGISTERED</text><text fill="#eeeeee" stroke="none" font-family="Arial" font-size="24px" font-style="normal" font-weight="normal" text-decoration="none" x="800" y="210">UNREGISTERED</text><text fill="#eeeeee" stroke="none" font-family="Arial" font-size="24px" font-style="normal" font-weight="normal" text-decoration="none" x="800" y="240">UNREGISTERED</text><text fill="#eeeeee" stroke="none" font-family="Arial" font-size="24px" font-style="normal" font-weight="normal" text-decoration="none" x="800" y="270">UNREGISTERED</text><text fill="#eeeeee" stroke="none" font-family="Arial" font-size="24px" font-style="normal" font-weight="normal" text-decoration="none" x="800" y="300">UNREGISTERED</text><text fill="#eeeeee" stroke="none" font-family="Arial" font-size="24px" font-style="normal" font-weight="normal" text-decoration="none" x="800" y="330">UNREGISTERED</text><text fill="#eeeeee" stroke="none" font-family="Arial" font-size="24px" font-style="normal" font-weight="normal" text-decoration="none" x="800" y="360">UNREGISTERED</text><text fill="#eeeeee" stroke="none" font-family="Arial" font-size="24px" font-style="normal" font-weight="normal" text-decoration="none" x="800" y="390">UNREGISTERED</text><text fill="#eeeeee" stroke="none" font-family="Arial" font-size="24px" font-style="normal" font-weight="normal" text-decoration="none" x="800" y="420">UNREGISTERED</text><text fill="#eeeeee" stroke="none" font-family="Arial" font-size="24px" font-style="normal" font-weight="normal" text-decoration="none" x="800" y="450">UNREGISTERED</text><g transform="translate(-134,-174) scale(1,1)"><rect fill="#C0C0C0" stroke="none" x="407" y="191" width="576" height="320" opacity="0.2"/></g><g transform="translate(-134,-174) scale(1,1)"><rect fill="#ffffff" stroke="none" x="400" y="184" width="576" height="320"/></g><g transform="translate(-134,-174) scale(1,1)"><path fill="none" stroke="#000000" d="M 400 184 L 976 184 L 976 504 L 400 504 L 400 184 Z Z" stroke-miterlimit="10"/></g><g transform="translate(-134,-174) scale(1,1)"><g><path fill="none" stroke="none"/><text fill="#000000" stroke="none" font-family="Arial" font-size="13px" font-style="normal" font-weight="bold" text-decoration="none" x="664.87548828125" y="202">System</text></g></g><g transform="translate(-134,-174) scale(1,1)"><path fill="#ffffff" stroke="none" d="M 269.67521946022725 393.68 C 269.67521946022725 388.886167936 273.56106178517274 385 278.3544921875 385 C 283.14792258982726 385 287.03376491477275 388.886167936 287.03376491477275 393.68 C 287.03376491477275 398.473832064 283.14792258982726 402.36 278.3544921875 402.36 C 273.56106178517274 402.36 269.67521946022725 398.473832064 269.67521946022725 393.68 Z"/></g><g transform="translate(-134,-174) scale(1,1)"><path fill="none" stroke="#000000" d="M 269.67521946022725 393.68 C 269.67521946022725 388.886167936 273.56106178517274 385 278.3544921875 385 C 283.14792258982726 385 287.03376491477275 388.886167936 287.03376491477275 393.68 C 287.03376491477275 398.473832064 283.14792258982726 402.36 278.3544921875 402.36 C 273.56106178517274 402.36 269.67521946022725 398.473832064 269.67521946022725 393.68 Z" stroke-miterlimit="10"/></g><g transform="translate(-134,-174) scale(1,1)"><path fill="none" stroke="#000000" d="M 278.3544921875 402.36 L 278.3544921875 419.64" stroke-miterlimit="10"/></g><g transform="translate(-134,-174) scale(1,1)"><path fill="none" stroke="#000000" d="M 269.16467400568183 408.84 L 287.54431036931817 408.84" stroke-miterlimit="10"/></g><g transform="translate(-134,-174) scale(1,1)"><path fill="none" stroke="#000000" d="M 278.3544921875 419.64 L 265.59085582386365 437" stroke-miterlimit="10"/></g><g transform="translate(-134,-174) scale(1,1)"><path fill="none" stroke="#000000" d="M 278.3544921875 419.64 L 291.11812855113635 437" stroke-miterlimit="10"/></g><g transform="translate(-134,-174) scale(1,1)"><g><path fill="none" stroke="none"/><text fill="#000000" stroke="none" font-family="Arial" font-size="13px" font-style="normal" font-weight="bold" text-decoration="none" x="228.5" y="456">Registered User</text></g></g><g transform="translate(-134,-174) scale(1,1)"><path fill="#C0C0C0" stroke="none" d="M 767 377 C 767 362.6405952 808.1897984 351 859 351 C 909.8102016 351 951 362.6405952 951 377 C 951 391.3594048 909.8102016 403 859 403 C 808.1897984 403 767 391.3594048 767 377 Z" opacity="0.2"/></g><g transform="translate(-134,-174) scale(1,1)"><path fill="#ffffff" stroke="none" d="M 760 370 C 760 355.6405952 801.1897984 344 852 344 C 902.8102016 344 944 355.6405952 944 370 C 944 384.3594048 902.8102016 396 852 396 C 801.1897984 396 760 384.3594048 760 370 Z"/></g><g transform="translate(-134,-174) scale(1,1)"><path fill="none" stroke="#000000" d="M 760 370 C 760 355.6405952 801.1897984 344 852 344 C 902.8102016 344 944 355.6405952 944 370 C 944 384.3594048 902.8102016 396 852 396 C 801.1897984 396 760 384.3594048 760 370 Z" stroke-miterlimit="10"/></g><g transform="translate(-134,-174) scale(1,1)"><g><path fill="none" stroke="none"/><text fill="#000000" stroke="none" font-family="Arial" font-size="13px" font-style="normal" font-weight="bold" text-decoration="none" x="793.833251953125" y="369">Recover Password</text><text fill="#000000" stroke="none" font-family="Arial" font-size="13px" font-style="normal" font-weight="bold" text-decoration="none" x="828.88818359375" y="382">[UH-05]</text></g></g><g transform="translate(-134,-174) scale(1,1)"><path fill="#C0C0C0" stroke="none" d="M 463 289 C 463 274.6405952 496.8024976 263 538.5 263 C 580.1975024 263 614 274.6405952 614 289 C 614 303.3594048 580.1975024 315 538.5 315 C 496.8024976 315 463 303.3594048 463 289 Z" opacity="0.2"/></g><g transform="translate(-134,-174) scale(1,1)"><path fill="#ffffff" stroke="none" d="M 456 282 C 456 267.6405952 489.8024976 256 531.5 256 C 573.1975024 256 607 267.6405952 607 282 C 607 296.3594048 573.1975024 308 531.5 308 C 489.8024976 308 456 296.3594048 456 282 Z"/></g><g transform="translate(-134,-174) scale(1,1)"><path fill="none" stroke="#000000" d="M 456 282 C 456 267.6405952 489.8024976 256 531.5 256 C 573.1975024 256 607 267.6405952 607 282 C 607 296.3594048 573.1975024 308 531.5 308 C 489.8024976 308 456 296.3594048 456 282 Z" stroke-miterlimit="10"/></g><g transform="translate(-134,-174) scale(1,1)"><g><path fill="none" stroke="none"/><text fill="#000000" stroke="none" font-family="Arial" font-size="13px" font-style="normal" font-weight="bold" text-decoration="none" x="506.947265625" y="281">Sign Up</text><text fill="#000000" stroke="none" font-family="Arial" font-size="13px" font-style="normal" font-weight="bold" text-decoration="none" x="509.11181640625" y="294">[FR-01]</text></g></g><g transform="translate(-134,-174) scale(1,1)"><path fill="#C0C0C0" stroke="none" d="M 679 289 C 679 274.6405952 709.4446336 263 747 263 C 784.5553664 263 815 274.6405952 815 289 C 815 303.3594048 784.5553664 315 747 315 C 709.4446336 315 679 303.3594048 679 289 Z" opacity="0.2"/></g><g transform="translate(-134,-174) scale(1,1)"><path fill="#ffffff" stroke="none" d="M 672 282 C 672 267.6405952 702.4446336 256 740 256 C 777.5553664 256 808 267.6405952 808 282 C 808 296.3594048 777.5553664 308 740 308 C 702.4446336 308 672 296.3594048 672 282 Z"/></g><g transform="translate(-134,-174) scale(1,1)"><path fill="none" stroke="#000000" d="M 672 282 C 672 267.6405952 702.4446336 256 740 256 C 777.5553664 256 808 267.6405952 808 282 C 808 296.3594048 777.5553664 308 740 308 C 702.4446336 308 672 296.3594048 672 282 Z" stroke-miterlimit="10"/></g><g transform="translate(-134,-174) scale(1,1)"><g><path fill="none" stroke="none"/><text fill="#000000" stroke="none" font-family="Arial" font-size="13px" font-style="normal" font-weight="bold" text-decoration="none" x="720.50634765625" y="281">Log In</text><text fill="#000000" stroke="none" font-family="Arial" font-size="13px" font-style="normal" font-weight="bold" text-decoration="none" x="717.61181640625" y="294">[FR-02]</text></g></g><g transform="translate(-134,-174) scale(1,1)"><path fill="#C0C0C0" stroke="none" d="M 519 426.5 C 519 406.8938896 569.1441024 391 631 391 C 692.8558976 391 743 406.8938896 743 426.5 C 743 446.1061104 692.8558976 462 631 462 C 569.1441024 462 519 446.1061104 519 426.5 Z" opacity="0.2"/></g><g transform="translate(-134,-174) scale(1,1)"><path fill="#ffffff" stroke="none" d="M 512 419.5 C 512 399.8938896 562.1441024 384 624 384 C 685.8558976 384 736 399.8938896 736 419.5 C 736 439.1061104 685.8558976 455 624 455 C 562.1441024 455 512 439.1061104 512 419.5 Z"/></g><g transform="translate(-134,-174) scale(1,1)"><path fill="none" stroke="#000000" d="M 512 419.5 C 512 399.8938896 562.1441024 384 624 384 C 685.8558976 384 736 399.8938896 736 419.5 C 736 439.1061104 685.8558976 455 624 455 C 562.1441024 455 512 439.1061104 512 419.5 Z" stroke-miterlimit="10"/></g><g transform="translate(-134,-174) scale(1,1)"><g><path fill="none" stroke="none"/><text fill="#000000" stroke="none" font-family="Arial" font-size="13px" font-style="normal" font-weight="bold" text-decoration="none" x="577.030517578125" y="412">Access to User</text><text fill="#000000" stroke="none" font-family="Arial" font-size="13px" font-style="normal" font-weight="bold" text-decoration="none" x="571.984130859375" y="425">DashBoard Page</text><text fill="#000000" stroke="none" font-family="Arial" font-size="13px" font-style="normal" font-weight="bold" text-decoration="none" x="599.447265625" y="438">[UH-XX]</text></g></g><g transform="translate(-134,-174) scale(1,1)"><path fill="none" stroke="#000000" d="M 333 422 L 512 422" stroke-miterlimit="10"/></g><g transform="translate(-134,-174) scale(1,1)"><path fill="none" stroke="#000000" d="M 608 282 L 671 282" stroke-miterlimit="10" stroke-dasharray="3"/></g><g transform="translate(-134,-174) scale(1,1)"><path fill="none" stroke="#000000" d="M 660.8373251423759 286.209517756016 L 671 282 L 660.8373251423758 277.790482243984" stroke-miterlimit="10"/></g><g transform="translate(-134,-174) scale(1,1)"><g><path fill="none" stroke="none"/><text fill="#000000" stroke="none" font-family="Arial" font-size="13px" font-style="normal" font-weight="normal" text-decoration="none" x="612.5" y="257">«extend»</text></g></g><g transform="translate(-134,-174) scale(1,1)"><path fill="none" stroke="#000000" d="M 671 282 L 608 282" stroke-miterlimit="10" stroke-dasharray="3"/></g><g transform="translate(-134,-174) scale(1,1)"><path fill="none" stroke="#000000" d="M 618.1626748576241 277.790482243984 L 608 282 L 618.1626748576241 286.209517756016" stroke-miterlimit="10"/></g><g transform="translate(-134,-174) scale(1,1)"><g><path fill="none" stroke="none"/><text fill="#000000" stroke="none" font-family="Arial" font-size="13px" font-style="normal" font-weight="normal" text-decoration="none" x="611.5" y="317">«extend»</text></g></g><g transform="translate(-134,-174) scale(1,1)"><path fill="none" stroke="#000000" d="M 818 343 L 774 309" stroke-miterlimit="10" stroke-dasharray="3"/></g><g transform="translate(-134,-174) scale(1,1)"><path fill="none" stroke="#000000" d="M 784.6154713015133 311.88301388251034 L 774 309 L 779.4676730762133 318.54487040936925" stroke-miterlimit="10"/></g><g transform="translate(-134,-174) scale(1,1)"><g><path fill="none" stroke="none"/><text fill="#000000" stroke="none" font-family="Arial" font-size="13px" font-style="normal" font-weight="normal" text-decoration="none" x="818.5" y="335">«extend»</text></g></g><g transform="translate(-134,-174) scale(1,1)"><path fill="none" stroke="#000000" d="M 600 383 L 549 309" stroke-miterlimit="10" stroke-dasharray="3"/></g><g transform="translate(-134,-174) scale(1,1)"><path fill="none" stroke="#000000" d="M 558.2331262080896 314.97907855990275 L 549 309 L 551.300959158337 319.75665314824573" stroke-miterlimit="10"/></g><g transform="translate(-134,-174) scale(1,1)"><g><path fill="none" stroke="none"/><text fill="#000000" stroke="none" font-family="Arial" font-size="13px" font-style="normal" font-weight="normal" text-decoration="none" x="522.5" y="367">«extend»</text></g></g><g transform="translate(-134,-174) scale(1,1)"><path fill="none" stroke="#000000" d="M 654 383 L 717 309" stroke-miterlimit="10" stroke-dasharray="3"/></g><g transform="translate(-134,-174) scale(1,1)"><path fill="none" stroke="#000000" d="M 713.6173495563717 319.4669802701744 L 717 309 L 707.2068322053406 314.0093776605128" stroke-miterlimit="10"/></g><g transform="translate(-134,-174) scale(1,1)"><g><path fill="none" stroke="none"/><text fill="#000000" stroke="none" font-family="Arial" font-size="13px" font-style="normal" font-weight="normal" text-decoration="none" x="635.5" y="331">«extend»</text></g></g><g transform="translate(-134,-174) scale(1,1)"><path fill="#ffffff" stroke="none" d="M 179.20158664772728 513.6800000000001 C 179.20158664772728 508.88616793600005 183.08742897267274 505 187.880859375 505 C 192.67428977732726 505 196.56013210227272 508.88616793600005 196.56013210227272 513.6800000000001 C 196.56013210227272 518.473832064 192.67428977732726 522.36 187.880859375 522.36 C 183.08742897267274 522.36 179.20158664772728 518.473832064 179.20158664772728 513.6800000000001 Z"/></g><g transform="translate(-134,-174) scale(1,1)"><path fill="none" stroke="#000000" d="M 179.20158664772728 513.6800000000001 C 179.20158664772728 508.88616793600005 183.08742897267274 505 187.880859375 505 C 192.67428977732726 505 196.56013210227272 508.88616793600005 196.56013210227272 513.6800000000001 C 196.56013210227272 518.473832064 192.67428977732726 522.36 187.880859375 522.36 C 183.08742897267274 522.36 179.20158664772728 518.473832064 179.20158664772728 513.6800000000001 Z" stroke-miterlimit="10"/></g><g transform="translate(-134,-174) scale(1,1)"><path fill="none" stroke="#000000" d="M 187.880859375 522.36 L 187.880859375 539.64" stroke-miterlimit="10"/></g><g transform="translate(-134,-174) scale(1,1)"><path fill="none" stroke="#000000" d="M 178.69104119318183 528.84 L 197.07067755681817 528.84" stroke-miterlimit="10"/></g><g transform="translate(-134,-174) scale(1,1)"><path fill="none" stroke="#000000" d="M 187.880859375 539.64 L 175.11722301136365 557" stroke-miterlimit="10"/></g><g transform="translate(-134,-174) scale(1,1)"><path fill="none" stroke="#000000" d="M 187.880859375 539.64 L 200.64449573863635 557" stroke-miterlimit="10"/></g><g transform="translate(-134,-174) scale(1,1)"><g><path fill="none" stroke="none"/><text fill="#000000" stroke="none" font-family="Arial" font-size="13px" font-style="normal" font-weight="bold" text-decoration="none" x="148.5" y="576">Pacient User</text></g></g><g transform="translate(-134,-174) scale(1,1)"><path fill="#ffffff" stroke="none" d="M 266.42839328835225 569.6800000000001 C 266.42839328835225 564.8861679360001 270.31423561329774 561 275.107666015625 561 C 279.90109641795226 561 283.78693874289775 564.8861679360001 283.78693874289775 569.6800000000001 C 283.78693874289775 574.473832064 279.90109641795226 578.36 275.107666015625 578.36 C 270.31423561329774 578.36 266.42839328835225 574.473832064 266.42839328835225 569.6800000000001 Z"/></g><g transform="translate(-134,-174) scale(1,1)"><path fill="none" stroke="#000000" d="M 266.42839328835225 569.6800000000001 C 266.42839328835225 564.8861679360001 270.31423561329774 561 275.107666015625 561 C 279.90109641795226 561 283.78693874289775 564.8861679360001 283.78693874289775 569.6800000000001 C 283.78693874289775 574.473832064 279.90109641795226 578.36 275.107666015625 578.36 C 270.31423561329774 578.36 266.42839328835225 574.473832064 266.42839328835225 569.6800000000001 Z" stroke-miterlimit="10"/></g><g transform="translate(-134,-174) scale(1,1)"><path fill="none" stroke="#000000" d="M 275.107666015625 578.36 L 275.107666015625 595.64" stroke-miterlimit="10"/></g><g transform="translate(-134,-174) scale(1,1)"><path fill="none" stroke="#000000" d="M 265.91784783380683 584.84 L 284.29748419744317 584.84" stroke-miterlimit="10"/></g><g transform="translate(-134,-174) scale(1,1)"><path fill="none" stroke="#000000" d="M 275.107666015625 595.64 L 262.34402965198865 613" stroke-miterlimit="10"/></g><g transform="translate(-134,-174) scale(1,1)"><path fill="none" stroke="#000000" d="M 275.107666015625 595.64 L 287.87130237926135 613" stroke-miterlimit="10"/></g><g transform="translate(-134,-174) scale(1,1)"><g><path fill="none" stroke="none"/><text fill="#000000" stroke="none" font-family="Arial" font-size="13px" font-style="normal" font-weight="bold" text-decoration="none" x="228.5" y="632">Specialist User</text></g></g><g transform="translate(-134,-174) scale(1,1)"><path fill="#ffffff" stroke="none" d="M 352.30070774147725 513.6800000000001 C 352.30070774147725 508.88616793600005 356.18655006642274 505 360.97998046875 505 C 365.77341087107726 505 369.65925319602275 508.88616793600005 369.65925319602275 513.6800000000001 C 369.65925319602275 518.473832064 365.77341087107726 522.36 360.97998046875 522.36 C 356.18655006642274 522.36 352.30070774147725 518.473832064 352.30070774147725 513.6800000000001 Z"/></g><g transform="translate(-134,-174) scale(1,1)"><path fill="none" stroke="#000000" d="M 352.30070774147725 513.6800000000001 C 352.30070774147725 508.88616793600005 356.18655006642274 505 360.97998046875 505 C 365.77341087107726 505 369.65925319602275 508.88616793600005 369.65925319602275 513.6800000000001 C 369.65925319602275 518.473832064 365.77341087107726 522.36 360.97998046875 522.36 C 356.18655006642274 522.36 352.30070774147725 518.473832064 352.30070774147725 513.6800000000001 Z" stroke-miterlimit="10"/></g><g transform="translate(-134,-174) scale(1,1)"><path fill="none" stroke="#000000" d="M 360.97998046875 522.36 L 360.97998046875 539.64" stroke-miterlimit="10"/></g><g transform="translate(-134,-174) scale(1,1)"><path fill="none" stroke="#000000" d="M 351.79016228693183 528.84 L 370.16979865056817 528.84" stroke-miterlimit="10"/></g><g transform="translate(-134,-174) scale(1,1)"><path fill="none" stroke="#000000" d="M 360.97998046875 539.64 L 348.21634410511365 557" stroke-miterlimit="10"/></g><g transform="translate(-134,-174) scale(1,1)"><path fill="none" stroke="#000000" d="M 360.97998046875 539.64 L 373.74361683238635 557" stroke-miterlimit="10"/></g><g transform="translate(-134,-174) scale(1,1)"><g><path fill="none" stroke="none"/><text fill="#000000" stroke="none" font-family="Arial" font-size="13px" font-style="normal" font-weight="bold" text-decoration="none" x="324.5" y="576">Admin User</text></g></g><g transform="translate(-134,-174) scale(1,1)"><path fill="#ffffff" stroke="none" d="M 271.58342258522725 270.68 C 271.58342258522725 265.886167936 275.46926491017274 262 280.2626953125 262 C 285.05612571482726 262 288.94196803977275 265.886167936 288.94196803977275 270.68 C 288.94196803977275 275.473832064 285.05612571482726 279.36 280.2626953125 279.36 C 275.46926491017274 279.36 271.58342258522725 275.473832064 271.58342258522725 270.68 Z"/></g><g transform="translate(-134,-174) scale(1,1)"><path fill="none" stroke="#000000" d="M 271.58342258522725 270.68 C 271.58342258522725 265.886167936 275.46926491017274 262 280.2626953125 262 C 285.05612571482726 262 288.94196803977275 265.886167936 288.94196803977275 270.68 C 288.94196803977275 275.473832064 285.05612571482726 279.36 280.2626953125 279.36 C 275.46926491017274 279.36 271.58342258522725 275.473832064 271.58342258522725 270.68 Z" stroke-miterlimit="10"/></g><g transform="translate(-134,-174) scale(1,1)"><path fill="none" stroke="#000000" d="M 280.2626953125 279.36 L 280.2626953125 296.64" stroke-miterlimit="10"/></g><g transform="translate(-134,-174) scale(1,1)"><path fill="none" stroke="#000000" d="M 271.07287713068183 285.84 L 289.45251349431817 285.84" stroke-miterlimit="10"/></g><g transform="translate(-134,-174) scale(1,1)"><path fill="none" stroke="#000000" d="M 280.2626953125 296.64 L 267.49905894886365 314" stroke-miterlimit="10"/></g><g transform="translate(-134,-174) scale(1,1)"><path fill="none" stroke="#000000" d="M 280.2626953125 296.64 L 293.02633167613635 314" stroke-miterlimit="10"/></g><g transform="translate(-134,-174) scale(1,1)"><g><path fill="none" stroke="none"/><text fill="#000000" stroke="none" font-family="Arial" font-size="13px" font-style="normal" font-weight="bold" text-decoration="none" x="244.5" y="333">Public User</text></g></g><g transform="translate(-134,-174) scale(1,1)"><path fill="none" stroke="#000000" d="M 217 503 L 247 464" stroke-miterlimit="10"/></g><g transform="translate(-134,-174) scale(1,1)"><path fill="#FFFFFF" stroke="none" d="M 241.28054507253995 485.2435363189078 L 247 464 L 227.9342860486198 474.9771832235846"/></g><g transform="translate(-134,-174) scale(1,1)"><path fill="none" stroke="#000000" d="M 241.28054507253995 485.2435363189078 L 247 464 L 227.9342860486198 474.9771832235846 L 241.28054507253995 485.2435363189078" stroke-miterlimit="10"/></g><g transform="translate(-134,-174) scale(1,1)"><path fill="none" stroke="#000000" d="M 276 559 L 277 464" stroke-miterlimit="10"/></g><g transform="translate(-134,-174) scale(1,1)"><path fill="#FFFFFF" stroke="none" d="M 285.20462992485415 484.41284026773803 L 277 464 L 268.36749168039506 484.2356072335858"/></g><g transform="translate(-134,-174) scale(1,1)"><path fill="none" stroke="#000000" d="M 285.20462992485415 484.41284026773803 L 277 464 L 268.36749168039506 484.2356072335858 L 285.20462992485415 484.41284026773803" stroke-miterlimit="10"/></g><g transform="translate(-134,-174) scale(1,1)"><path fill="none" stroke="#000000" d="M 333 503 L 306 464" stroke-miterlimit="10"/></g><g transform="translate(-134,-174) scale(1,1)"><path fill="#FFFFFF" stroke="none" d="M 324.4914571402995 475.9191448027309 L 306 464 L 310.6473266219707 485.5035428538816"/></g><g transform="translate(-134,-174) scale(1,1)"><path fill="none" stroke="#000000" d="M 324.4914571402995 475.9191448027309 L 306 464 L 310.6473266219707 485.5035428538816 L 324.4914571402995 475.9191448027309" stroke-miterlimit="10"/></g><g transform="translate(-134,-174) scale(1,1)"><path fill="none" stroke="#000000" d="M 279 261 L 279 225 L 528 225 L 528 256" stroke-miterlimit="10"/></g><g transform="translate(-134,-174) scale(1,1)"><path fill="none" stroke="#000000" d="M 279 261 L 279 224 L 744 224 L 744 256" stroke-miterlimit="10"/></g></g></svg>