<svg xmlns="http://www.w3.org/2000/svg" xmlns:xlink="http://www.w3.org/1999/xlink" version="1.1" width="1083" height="516"><defs/><g><g transform="translate(-38,-158) scale(1,1)"><rect fill="#C0C0C0" stroke="none" x="55" y="175" width="1063" height="496" opacity="0.2"/></g><g transform="translate(-38,-158) scale(1,1)"><rect fill="#ffffff" stroke="none" x="48" y="168" width="1063" height="496"/></g><g transform="translate(-38,-158) scale(1,1)"><path fill="none" stroke="#000000" d="M 48 168 L 1111 168 L 1111 664 L 48 664 L 48 168 Z Z" stroke-miterlimit="10"/></g><g transform="translate(-38,-158) scale(1,1)"><g><path fill="none" stroke="none"/><text fill="#000000" stroke="none" font-family="Arial" font-size="13px" font-style="normal" font-weight="bold" text-decoration="none" x="579.5" y="181"/></g></g><g transform="translate(-38,-158) scale(1,1)"><rect fill="#C0C0C0" stroke="none" x="375" y="207" width="568" height="432" opacity="0.2"/></g><g transform="translate(-38,-158) scale(1,1)"><rect fill="#ffffd8" stroke="none" x="368" y="200" width="568" height="432"/></g><g transform="translate(-38,-158) scale(1,1)"><path fill="none" stroke="#000000" d="M 368 200 L 936 200 L 936 632 L 368 632 L 368 200 Z Z" stroke-miterlimit="10"/></g><g transform="translate(-38,-158) scale(1,1)"><g><path fill="none" stroke="none"/><text fill="#000000" stroke="none" font-family="Arial" font-size="13px" font-style="normal" font-weight="bold" text-decoration="none" x="628.87548828125" y="218">System</text></g></g><g transform="translate(-38,-158) scale(1,1)"><path fill="#ffffff" stroke="none" d="M 189.67521946022728 329.68 C 189.67521946022728 324.886167936 193.56106178517274 321 198.3544921875 321 C 203.14792258982726 321 207.03376491477272 324.886167936 207.03376491477272 329.68 C 207.03376491477272 334.473832064 203.14792258982726 338.36 198.3544921875 338.36 C 193.56106178517274 338.36 189.67521946022728 334.473832064 189.67521946022728 329.68 Z"/></g><g transform="translate(-38,-158) scale(1,1)"><path fill="none" stroke="#000000" d="M 189.67521946022728 329.68 C 189.67521946022728 324.886167936 193.56106178517274 321 198.3544921875 321 C 203.14792258982726 321 207.03376491477272 324.886167936 207.03376491477272 329.68 C 207.03376491477272 334.473832064 203.14792258982726 338.36 198.3544921875 338.36 C 193.56106178517274 338.36 189.67521946022728 334.473832064 189.67521946022728 329.68 Z" stroke-miterlimit="10"/></g><g transform="translate(-38,-158) scale(1,1)"><path fill="none" stroke="#000000" d="M 198.3544921875 338.36 L 198.3544921875 355.64" stroke-miterlimit="10"/></g><g transform="translate(-38,-158) scale(1,1)"><path fill="none" stroke="#000000" d="M 189.16467400568183 344.84 L 207.54431036931817 344.84" stroke-miterlimit="10"/></g><g transform="translate(-38,-158) scale(1,1)"><path fill="none" stroke="#000000" d="M 198.3544921875 355.64 L 185.59085582386365 373" stroke-miterlimit="10"/></g><g transform="translate(-38,-158) scale(1,1)"><path fill="none" stroke="#000000" d="M 198.3544921875 355.64 L 211.11812855113635 373" stroke-miterlimit="10"/></g><g transform="translate(-38,-158) scale(1,1)"><g><path fill="none" stroke="none"/><text fill="#000000" stroke="none" font-family="Arial" font-size="13px" font-style="normal" font-weight="bold" text-decoration="none" x="148.5" y="392">Registered User</text></g></g><g transform="translate(-38,-158) scale(1,1)"><path fill="#C0C0C0" stroke="none" d="M 719 281 C 719 266.6405952 752.8024976 255 794.5 255 C 836.1975024 255 870 266.6405952 870 281 C 870 295.3594048 836.1975024 307 794.5 307 C 752.8024976 307 719 295.3594048 719 281 Z" opacity="0.2"/></g><g transform="translate(-38,-158) scale(1,1)"><path fill="#ffd8ff" stroke="none" d="M 712 274 C 712 259.6405952 745.8024976 248 787.5 248 C 829.1975024 248 863 259.6405952 863 274 C 863 288.3594048 829.1975024 300 787.5 300 C 745.8024976 300 712 288.3594048 712 274 Z"/></g><g transform="translate(-38,-158) scale(1,1)"><path fill="none" stroke="#000000" d="M 712 274 C 712 259.6405952 745.8024976 248 787.5 248 C 829.1975024 248 863 259.6405952 863 274 C 863 288.3594048 829.1975024 300 787.5 300 C 745.8024976 300 712 288.3594048 712 274 Z" stroke-miterlimit="10"/></g><g transform="translate(-38,-158) scale(1,1)"><g><path fill="none" stroke="none"/><text fill="#000000" stroke="none" font-family="Arial" font-size="13px" font-style="normal" font-weight="bold" text-decoration="none" x="762.947265625" y="273">Sign Up</text><text fill="#000000" stroke="none" font-family="Arial" font-size="13px" font-style="normal" font-weight="bold" text-decoration="none" x="764.38818359375" y="286">[UH-01]</text></g></g><g transform="translate(-38,-158) scale(1,1)"><path fill="#C0C0C0" stroke="none" d="M 727 449 C 727 434.6405952 757.4446336 423 795 423 C 832.5553664 423 863 434.6405952 863 449 C 863 463.3594048 832.5553664 475 795 475 C 757.4446336 475 727 463.3594048 727 449 Z" opacity="0.2"/></g><g transform="translate(-38,-158) scale(1,1)"><path fill="#ffd8ff" stroke="none" d="M 720 442 C 720 427.6405952 750.4446336 416 788 416 C 825.5553664 416 856 427.6405952 856 442 C 856 456.3594048 825.5553664 468 788 468 C 750.4446336 468 720 456.3594048 720 442 Z"/></g><g transform="translate(-38,-158) scale(1,1)"><path fill="none" stroke="#000000" d="M 720 442 C 720 427.6405952 750.4446336 416 788 416 C 825.5553664 416 856 427.6405952 856 442 C 856 456.3594048 825.5553664 468 788 468 C 750.4446336 468 720 456.3594048 720 442 Z" stroke-miterlimit="10"/></g><g transform="translate(-38,-158) scale(1,1)"><g><path fill="none" stroke="none"/><text fill="#000000" stroke="none" font-family="Arial" font-size="13px" font-style="normal" font-weight="bold" text-decoration="none" x="768.50634765625" y="441">Log In</text><text fill="#000000" stroke="none" font-family="Arial" font-size="13px" font-style="normal" font-weight="bold" text-decoration="none" x="764.88818359375" y="454">[UH-02]</text></g></g><g transform="translate(-38,-158) scale(1,1)"><path fill="#C0C0C0" stroke="none" d="M 423 362.5 C 423 342.8938896 473.1441024 327 535 327 C 596.8558976 327 647 342.8938896 647 362.5 C 647 382.1061104 596.8558976 398 535 398 C 473.1441024 398 423 382.1061104 423 362.5 Z" opacity="0.2"/></g><g transform="translate(-38,-158) scale(1,1)"><path fill="#ffa3ff" stroke="none" d="M 416 355.5 C 416 335.8938896 466.1441024 320 528 320 C 589.8558976 320 640 335.8938896 640 355.5 C 640 375.1061104 589.8558976 391 528 391 C 466.1441024 391 416 375.1061104 416 355.5 Z"/></g><g transform="translate(-38,-158) scale(1,1)"><path fill="none" stroke="#000000" d="M 416 355.5 C 416 335.8938896 466.1441024 320 528 320 C 589.8558976 320 640 335.8938896 640 355.5 C 640 375.1061104 589.8558976 391 528 391 C 466.1441024 391 416 375.1061104 416 355.5 Z" stroke-miterlimit="10"/></g><g transform="translate(-38,-158) scale(1,1)"><g><path fill="none" stroke="none"/><text fill="#000000" stroke="none" font-family="Arial" font-size="13px" font-style="normal" font-weight="bold" text-decoration="none" x="461.16552734375" y="354.5">Access to User Home</text><text fill="#000000" stroke="none" font-family="Arial" font-size="13px" font-style="normal" font-weight="bold" text-decoration="none" x="487.54638671875" y="367.5">Page [UH-06]</text></g></g><g transform="translate(-38,-158) scale(1,1)"><path fill="none" stroke="#000000" d="M 253 352 L 416 352" stroke-miterlimit="10"/></g><g transform="translate(-38,-158) scale(1,1)"><path fill="none" stroke="#000000" d="M 808 300 L 808 416" stroke-miterlimit="10" stroke-dasharray="3"/></g><g transform="translate(-38,-158) scale(1,1)"><path fill="none" stroke="#000000" d="M 803.790482243984 405.83732514237585 L 808 416 L 812.209517756016 405.83732514237585" stroke-miterlimit="10"/></g><g transform="translate(-38,-158) scale(1,1)"><g><path fill="none" stroke="none"/><text fill="#000000" stroke="none" font-family="Arial" font-size="13px" font-style="normal" font-weight="normal" text-decoration="none" x="811.5" y="387">«extend»</text></g></g><g transform="translate(-38,-158) scale(1,1)"><path fill="none" stroke="#000000" d="M 768 416 L 768 300" stroke-miterlimit="10" stroke-dasharray="3"/></g><g transform="translate(-38,-158) scale(1,1)"><path fill="none" stroke="#000000" d="M 772.209517756016 310.16267485762415 L 768 300 L 763.790482243984 310.16267485762415" stroke-miterlimit="10"/></g><g transform="translate(-38,-158) scale(1,1)"><g><path fill="none" stroke="none"/><text fill="#000000" stroke="none" font-family="Arial" font-size="13px" font-style="normal" font-weight="normal" text-decoration="none" x="711.5" y="338">«extend»</text></g></g><g transform="translate(-38,-158) scale(1,1)"><path fill="#ffffff" stroke="none" d="M 91.20158664772727 449.68 C 91.20158664772727 444.886167936 95.08742897267273 441 99.880859375 441 C 104.67428977732727 441 108.56013210227273 444.886167936 108.56013210227273 449.68 C 108.56013210227273 454.473832064 104.67428977732727 458.36 99.880859375 458.36 C 95.08742897267273 458.36 91.20158664772727 454.473832064 91.20158664772727 449.68 Z"/></g><g transform="translate(-38,-158) scale(1,1)"><path fill="none" stroke="#000000" d="M 91.20158664772727 449.68 C 91.20158664772727 444.886167936 95.08742897267273 441 99.880859375 441 C 104.67428977732727 441 108.56013210227273 444.886167936 108.56013210227273 449.68 C 108.56013210227273 454.473832064 104.67428977732727 458.36 99.880859375 458.36 C 95.08742897267273 458.36 91.20158664772727 454.473832064 91.20158664772727 449.68 Z" stroke-miterlimit="10"/></g><g transform="translate(-38,-158) scale(1,1)"><path fill="none" stroke="#000000" d="M 99.880859375 458.36 L 99.880859375 475.64" stroke-miterlimit="10"/></g><g transform="translate(-38,-158) scale(1,1)"><path fill="none" stroke="#000000" d="M 90.69104119318182 464.84 L 109.07067755681818 464.84" stroke-miterlimit="10"/></g><g transform="translate(-38,-158) scale(1,1)"><path fill="none" stroke="#000000" d="M 99.880859375 475.64 L 87.11722301136363 493" stroke-miterlimit="10"/></g><g transform="translate(-38,-158) scale(1,1)"><path fill="none" stroke="#000000" d="M 99.880859375 475.64 L 112.64449573863637 493" stroke-miterlimit="10"/></g><g transform="translate(-38,-158) scale(1,1)"><g><path fill="none" stroke="none"/><text fill="#000000" stroke="none" font-family="Arial" font-size="13px" font-style="normal" font-weight="bold" text-decoration="none" x="61.950439453125" y="512">Patient User</text></g></g><g transform="translate(-38,-158) scale(1,1)"><path fill="#ffffff" stroke="none" d="M 146.42839328835228 537.6800000000001 C 146.42839328835228 532.8861679360001 150.31423561329774 529 155.107666015625 529 C 159.90109641795226 529 163.78693874289772 532.8861679360001 163.78693874289772 537.6800000000001 C 163.78693874289772 542.473832064 159.90109641795226 546.36 155.107666015625 546.36 C 150.31423561329774 546.36 146.42839328835228 542.473832064 146.42839328835228 537.6800000000001 Z"/></g><g transform="translate(-38,-158) scale(1,1)"><path fill="none" stroke="#000000" d="M 146.42839328835228 537.6800000000001 C 146.42839328835228 532.8861679360001 150.31423561329774 529 155.107666015625 529 C 159.90109641795226 529 163.78693874289772 532.8861679360001 163.78693874289772 537.6800000000001 C 163.78693874289772 542.473832064 159.90109641795226 546.36 155.107666015625 546.36 C 150.31423561329774 546.36 146.42839328835228 542.473832064 146.42839328835228 537.6800000000001 Z" stroke-miterlimit="10"/></g><g transform="translate(-38,-158) scale(1,1)"><path fill="none" stroke="#000000" d="M 155.107666015625 546.36 L 155.107666015625 563.64" stroke-miterlimit="10"/></g><g transform="translate(-38,-158) scale(1,1)"><path fill="none" stroke="#000000" d="M 145.91784783380683 552.84 L 164.29748419744317 552.84" stroke-miterlimit="10"/></g><g transform="translate(-38,-158) scale(1,1)"><path fill="none" stroke="#000000" d="M 155.107666015625 563.64 L 142.34402965198865 581" stroke-miterlimit="10"/></g><g transform="translate(-38,-158) scale(1,1)"><path fill="none" stroke="#000000" d="M 155.107666015625 563.64 L 167.87130237926135 581" stroke-miterlimit="10"/></g><g transform="translate(-38,-158) scale(1,1)"><g><path fill="none" stroke="none"/><text fill="#000000" stroke="none" font-family="Arial" font-size="13px" font-style="normal" font-weight="bold" text-decoration="none" x="120.42724609375" y="600">Medic User</text></g></g><g transform="translate(-38,-158) scale(1,1)"><path fill="#ffffff" stroke="none" d="M 232.30070774147728 537.6800000000001 C 232.30070774147728 532.8861679360001 236.18655006642274 529 240.97998046875 529 C 245.77341087107726 529 249.65925319602272 532.8861679360001 249.65925319602272 537.6800000000001 C 249.65925319602272 542.473832064 245.77341087107726 546.36 240.97998046875 546.36 C 236.18655006642274 546.36 232.30070774147728 542.473832064 232.30070774147728 537.6800000000001 Z"/></g><g transform="translate(-38,-158) scale(1,1)"><path fill="none" stroke="#000000" d="M 232.30070774147728 537.6800000000001 C 232.30070774147728 532.8861679360001 236.18655006642274 529 240.97998046875 529 C 245.77341087107726 529 249.65925319602272 532.8861679360001 249.65925319602272 537.6800000000001 C 249.65925319602272 542.473832064 245.77341087107726 546.36 240.97998046875 546.36 C 236.18655006642274 546.36 232.30070774147728 542.473832064 232.30070774147728 537.6800000000001 Z" stroke-miterlimit="10"/></g><g transform="translate(-38,-158) scale(1,1)"><path fill="none" stroke="#000000" d="M 240.97998046875 546.36 L 240.97998046875 563.64" stroke-miterlimit="10"/></g><g transform="translate(-38,-158) scale(1,1)"><path fill="none" stroke="#000000" d="M 231.79016228693183 552.84 L 250.16979865056817 552.84" stroke-miterlimit="10"/></g><g transform="translate(-38,-158) scale(1,1)"><path fill="none" stroke="#000000" d="M 240.97998046875 563.64 L 228.21634410511365 581" stroke-miterlimit="10"/></g><g transform="translate(-38,-158) scale(1,1)"><path fill="none" stroke="#000000" d="M 240.97998046875 563.64 L 253.74361683238635 581" stroke-miterlimit="10"/></g><g transform="translate(-38,-158) scale(1,1)"><g><path fill="none" stroke="none"/><text fill="#000000" stroke="none" font-family="Arial" font-size="13px" font-style="normal" font-weight="bold" text-decoration="none" x="204.5" y="600">Admin User</text></g></g><g transform="translate(-38,-158) scale(1,1)"><path fill="#ffffff" stroke="none" d="M 1015.5834225852273 337.68 C 1015.5834225852273 332.886167936 1019.4692649101727 329 1024.2626953125 329 C 1029.0561257148272 329 1032.9419680397727 332.886167936 1032.9419680397727 337.68 C 1032.9419680397727 342.473832064 1029.0561257148272 346.36 1024.2626953125 346.36 C 1019.4692649101727 346.36 1015.5834225852273 342.473832064 1015.5834225852273 337.68 Z"/></g><g transform="translate(-38,-158) scale(1,1)"><path fill="none" stroke="#000000" d="M 1015.5834225852273 337.68 C 1015.5834225852273 332.886167936 1019.4692649101727 329 1024.2626953125 329 C 1029.0561257148272 329 1032.9419680397727 332.886167936 1032.9419680397727 337.68 C 1032.9419680397727 342.473832064 1029.0561257148272 346.36 1024.2626953125 346.36 C 1019.4692649101727 346.36 1015.5834225852273 342.473832064 1015.5834225852273 337.68 Z" stroke-miterlimit="10"/></g><g transform="translate(-38,-158) scale(1,1)"><path fill="none" stroke="#000000" d="M 1024.2626953125 346.36 L 1024.2626953125 363.64" stroke-miterlimit="10"/></g><g transform="translate(-38,-158) scale(1,1)"><path fill="none" stroke="#000000" d="M 1015.0728771306818 352.84 L 1033.4525134943183 352.84" stroke-miterlimit="10"/></g><g transform="translate(-38,-158) scale(1,1)"><path fill="none" stroke="#000000" d="M 1024.2626953125 363.64 L 1011.4990589488636 381" stroke-miterlimit="10"/></g><g transform="translate(-38,-158) scale(1,1)"><path fill="none" stroke="#000000" d="M 1024.2626953125 363.64 L 1037.0263316761364 381" stroke-miterlimit="10"/></g><g transform="translate(-38,-158) scale(1,1)"><g><path fill="none" stroke="none"/><text fill="#000000" stroke="none" font-family="Arial" font-size="13px" font-style="normal" font-weight="bold" text-decoration="none" x="988.5" y="400">Public User</text></g></g><g transform="translate(-38,-158) scale(1,1)"><path fill="none" stroke="#000000" d="M 132 439 L 164 400" stroke-miterlimit="10"/></g><g transform="translate(-38,-158) scale(1,1)"><path fill="#FFFFFF" stroke="none" d="M 157.61582519695202 421.05332069019346 L 164 400 L 144.59876087795365 410.3726525310153"/></g><g transform="translate(-38,-158) scale(1,1)"><path fill="none" stroke="#000000" d="M 157.61582519695202 421.05332069019346 L 164 400 L 144.59876087795365 410.3726525310153 L 157.61582519695202 421.05332069019346" stroke-miterlimit="10"/></g><g transform="translate(-38,-158) scale(1,1)"><path fill="none" stroke="#000000" d="M 163 527 L 190 400" stroke-miterlimit="10"/></g><g transform="translate(-38,-158) scale(1,1)"><path fill="#FFFFFF" stroke="none" d="M 194.00831513514146 421.63176853096843 L 190 400 L 177.53833659588565 418.13027703049676"/></g><g transform="translate(-38,-158) scale(1,1)"><path fill="none" stroke="#000000" d="M 194.00831513514146 421.63176853096843 L 190 400 L 177.53833659588565 418.13027703049676 L 194.00831513514146 421.63176853096843" stroke-miterlimit="10"/></g><g transform="translate(-38,-158) scale(1,1)"><path fill="none" stroke="#000000" d="M 232 527 L 206 400" stroke-miterlimit="10"/></g><g transform="translate(-38,-158) scale(1,1)"><path fill="#FFFFFF" stroke="none" d="M 218.32450872921402 418.22378897440177 L 206 400 L 201.8285789345079 421.60090845993216"/></g><g transform="translate(-38,-158) scale(1,1)"><path fill="none" stroke="#000000" d="M 218.32450872921402 418.22378897440177 L 206 400 L 201.8285789345079 421.60090845993216 L 218.32450872921402 418.22378897440177" stroke-miterlimit="10"/></g><g transform="translate(-38,-158) scale(1,1)"><path fill="none" stroke="#000000" d="M 984 360 L 896 360 L 896 272 L 863 272" stroke-miterlimit="10"/></g><g transform="translate(-38,-158) scale(1,1)"><path fill="none" stroke="#000000" d="M 984 360 L 896 360 L 896 440 L 856 440" stroke-miterlimit="10"/></g><g transform="translate(-38,-158) scale(1,1)"><path fill="#ffffff" stroke="none" d="M 287.49382297585225 449.68 C 287.49382297585225 444.886167936 291.37966530079774 441 296.173095703125 441 C 300.96652610545226 441 304.85236843039775 444.886167936 304.85236843039775 449.68 C 304.85236843039775 454.473832064 300.96652610545226 458.36 296.173095703125 458.36 C 291.37966530079774 458.36 287.49382297585225 454.473832064 287.49382297585225 449.68 Z"/></g><g transform="translate(-38,-158) scale(1,1)"><path fill="none" stroke="#000000" d="M 287.49382297585225 449.68 C 287.49382297585225 444.886167936 291.37966530079774 441 296.173095703125 441 C 300.96652610545226 441 304.85236843039775 444.886167936 304.85236843039775 449.68 C 304.85236843039775 454.473832064 300.96652610545226 458.36 296.173095703125 458.36 C 291.37966530079774 458.36 287.49382297585225 454.473832064 287.49382297585225 449.68 Z" stroke-miterlimit="10"/></g><g transform="translate(-38,-158) scale(1,1)"><path fill="none" stroke="#000000" d="M 296.173095703125 458.36 L 296.173095703125 475.64" stroke-miterlimit="10"/></g><g transform="translate(-38,-158) scale(1,1)"><path fill="none" stroke="#000000" d="M 286.98327752130683 464.84 L 305.36291388494317 464.84" stroke-miterlimit="10"/></g><g transform="translate(-38,-158) scale(1,1)"><path fill="none" stroke="#000000" d="M 296.173095703125 475.64 L 283.40945933948865 493" stroke-miterlimit="10"/></g><g transform="translate(-38,-158) scale(1,1)"><path fill="none" stroke="#000000" d="M 296.173095703125 475.64 L 308.93673206676135 493" stroke-miterlimit="10"/></g><g transform="translate(-38,-158) scale(1,1)"><g><path fill="none" stroke="none"/><text fill="#000000" stroke="none" font-family="Arial" font-size="13px" font-style="normal" font-weight="bold" text-decoration="none" x="244.5" y="512">Researcher User</text></g></g><g transform="translate(-38,-158) scale(1,1)"><path fill="none" stroke="#000000" d="M 263 439 L 231 400" stroke-miterlimit="10"/></g><g transform="translate(-38,-158) scale(1,1)"><path fill="#FFFFFF" stroke="none" d="M 250.40123912204635 410.3726525310153 L 231 400 L 237.38417480304798 421.05332069019346"/></g><g transform="translate(-38,-158) scale(1,1)"><path fill="none" stroke="#000000" d="M 250.40123912204635 410.3726525310153 L 231 400 L 237.38417480304798 421.05332069019346 L 250.40123912204635 410.3726525310153" stroke-miterlimit="10"/></g><g transform="translate(-38,-158) scale(1,1)"><path fill="#C0C0C0" stroke="none" d="M 447 506.5 C 447 486.8938896 486.3989376 471 535 471 C 583.6010624 471 623 486.8938896 623 506.5 C 623 526.1061104 583.6010624 542 535 542 C 486.3989376 542 447 526.1061104 447 506.5 Z" opacity="0.2"/></g><g transform="translate(-38,-158) scale(1,1)"><path fill="#d1ffa3" stroke="none" d="M 440 499.5 C 440 479.8938896 479.3989376 464 528 464 C 576.6010624 464 616 479.8938896 616 499.5 C 616 519.1061104 576.6010624 535 528 535 C 479.3989376 535 440 519.1061104 440 499.5 Z"/></g><g transform="translate(-38,-158) scale(1,1)"><path fill="none" stroke="#000000" d="M 440 499.5 C 440 479.8938896 479.3989376 464 528 464 C 576.6010624 464 616 479.8938896 616 499.5 C 616 519.1061104 576.6010624 535 528 535 C 479.3989376 535 440 519.1061104 440 499.5 Z" stroke-miterlimit="10"/></g><g transform="translate(-38,-158) scale(1,1)"><g><path fill="none" stroke="none"/><text fill="#000000" stroke="none" font-family="Arial" font-size="13px" font-style="normal" font-weight="bold" text-decoration="none" x="486.10546875" y="492">Show section</text><text fill="#000000" stroke="none" font-family="Arial" font-size="13px" font-style="normal" font-weight="bold" text-decoration="none" x="488.266845703125" y="505">explanations</text><text fill="#000000" stroke="none" font-family="Arial" font-size="13px" font-style="normal" font-weight="bold" text-decoration="none" x="503.447265625" y="518">[UH-XX[</text></g></g><g transform="translate(-38,-158) scale(1,1)"><path fill="none" stroke="#000000" d="M 528 392 L 528 463" stroke-miterlimit="10" stroke-dasharray="3"/></g><g transform="translate(-38,-158) scale(1,1)"><path fill="none" stroke="#000000" d="M 523.790482243984 452.83732514237585 L 528 463 L 532.209517756016 452.83732514237585" stroke-miterlimit="10"/></g><g transform="translate(-38,-158) scale(1,1)"><g><path fill="none" stroke="none"/><text fill="#000000" stroke="none" font-family="Arial" font-size="13px" font-style="normal" font-weight="normal" text-decoration="none" x="463.5" y="430">«include»</text></g></g><g transform="translate(-38,-158) scale(1,1)"><path fill="none" stroke="#000000" d="M 711 298 L 641 320" stroke-miterlimit="10" stroke-dasharray="3"/></g><g transform="translate(-38,-158) scale(1,1)"><path fill="none" stroke="#000000" d="M 649.4330025783793 312.93710629323584 L 641 320 L 651.9572533437884 320.9688132740829" stroke-miterlimit="10"/></g><g transform="translate(-38,-158) scale(1,1)"><g><path fill="none" stroke="none"/><text fill="#000000" stroke="none" font-family="Arial" font-size="13px" font-style="normal" font-weight="normal" text-decoration="none" x="631.5" y="298">«extend»</text></g></g><g transform="translate(-38,-158) scale(1,1)"><path fill="none" stroke="#000000" d="M 719 419 L 639 392" stroke-miterlimit="10" stroke-dasharray="3"/></g><g transform="translate(-38,-158) scale(1,1)"><path fill="none" stroke="#000000" d="M 649.9751698420348 391.2613208149068 L 639 392 L 647.2829420808777 399.23829195907615" stroke-miterlimit="10"/></g><g transform="translate(-38,-158) scale(1,1)"><g><path fill="none" stroke="none"/><text fill="#000000" stroke="none" font-family="Arial" font-size="13px" font-style="normal" font-weight="normal" text-decoration="none" x="631.5" y="427">«extend»</text></g></g></g></svg>