<svg xmlns="http://www.w3.org/2000/svg" xmlns:xlink="http://www.w3.org/1999/xlink" version="1.1" width="1171" height="556"><defs/><g><g transform="translate(-22,-286) scale(1,1)"><rect fill="#ffffff" stroke="none" x="32" y="296" width="1151" height="536"/></g><g transform="translate(-22,-286) scale(1,1)"><path fill="none" stroke="#000000" d="M 32 296 L 1183 296 L 1183 832 L 32 832 L 32 296 Z Z" stroke-miterlimit="10"/></g><g transform="translate(-22,-286) scale(1,1)"><rect fill="#C0C0C0" stroke="none" x="231" y="335" width="307.20000000000005" height="15" opacity="0.2"/></g><g transform="translate(-22,-286) scale(1,1)"><rect fill="#C0C0C0" stroke="none" x="231" y="349" width="768" height="458" opacity="0.2"/></g><g transform="translate(-22,-286) scale(1,1)"><rect fill="#ebffd8" stroke="none" x="224" y="343" width="768" height="457"/></g><g transform="translate(-22,-286) scale(1,1)"><path fill="none" stroke="#000000" d="M 224 343 L 992 343 L 992 800 L 224 800 L 224 343 Z Z" stroke-miterlimit="10"/></g><g transform="translate(-22,-286) scale(1,1)"><rect fill="#ebffd8" stroke="none" x="224" y="328" width="307.20000000000005" height="15"/></g><g transform="translate(-22,-286) scale(1,1)"><path fill="none" stroke="#000000" d="M 224 328 L 531.2 328 L 531.2 343 L 224 343 L 224 328 Z Z" stroke-miterlimit="10"/></g><g transform="translate(-22,-286) scale(1,1)"><rect fill="#ebffd8" stroke="none" x="224" y="342" width="768" height="458"/></g><g transform="translate(-22,-286) scale(1,1)"><path fill="none" stroke="#000000" d="M 224 342 L 992 342 L 992 800 L 224 800 L 224 342 Z Z" stroke-miterlimit="10"/></g><g transform="translate(-22,-286) scale(1,1)"><g><path fill="none" stroke="none"/><text fill="#000000" stroke="none" font-family="Arial" font-size="13px" font-style="normal" font-weight="bold" text-decoration="none" x="581.628662109375" y="361">backend</text></g></g><g transform="translate(-22,-286) scale(1,1)"><rect fill="#C0C0C0" stroke="none" x="71" y="375" width="54.400000000000006" height="15" opacity="0.2"/></g><g transform="translate(-22,-286) scale(1,1)"><rect fill="#C0C0C0" stroke="none" x="71" y="389" width="136" height="90" opacity="0.2"/></g><g transform="translate(-22,-286) scale(1,1)"><rect fill="#ffd8ff" stroke="none" x="64" y="383" width="136" height="89"/></g><g transform="translate(-22,-286) scale(1,1)"><path fill="none" stroke="#000000" d="M 64 383 L 200 383 L 200 472 L 64 472 L 64 383 Z Z" stroke-miterlimit="10"/></g><g transform="translate(-22,-286) scale(1,1)"><rect fill="#ffd8ff" stroke="none" x="64" y="368" width="54.400000000000006" height="15"/></g><g transform="translate(-22,-286) scale(1,1)"><path fill="none" stroke="#000000" d="M 64 368 L 118.4 368 L 118.4 383 L 64 383 L 64 368 Z Z" stroke-miterlimit="10"/></g><g transform="translate(-22,-286) scale(1,1)"><rect fill="#ffd8ff" stroke="none" x="64" y="382" width="136" height="90"/></g><g transform="translate(-22,-286) scale(1,1)"><path fill="none" stroke="#000000" d="M 64 382 L 200 382 L 200 472 L 64 472 L 64 382 Z Z" stroke-miterlimit="10"/></g><g transform="translate(-22,-286) scale(1,1)"><g><path fill="none" stroke="none"/><text fill="#000000" stroke="none" font-family="Arial" font-size="13px" font-style="normal" font-weight="bold" text-decoration="none" x="105.64453125" y="401">frontend</text></g></g><g transform="translate(-22,-286) scale(1,1)"><rect fill="#C0C0C0" stroke="none" x="263" y="375" width="96" height="15" opacity="0.2"/></g><g transform="translate(-22,-286) scale(1,1)"><rect fill="#C0C0C0" stroke="none" x="263" y="389" width="240" height="402" opacity="0.2"/></g><g transform="translate(-22,-286) scale(1,1)"><rect fill="#ffffd8" stroke="none" x="256" y="383" width="240" height="401"/></g><g transform="translate(-22,-286) scale(1,1)"><path fill="none" stroke="#000000" d="M 256 383 L 496 383 L 496 784 L 256 784 L 256 383 Z Z" stroke-miterlimit="10"/></g><g transform="translate(-22,-286) scale(1,1)"><rect fill="#ffffd8" stroke="none" x="256" y="368" width="96" height="15"/></g><g transform="translate(-22,-286) scale(1,1)"><path fill="none" stroke="#000000" d="M 256 368 L 352 368 L 352 383 L 256 383 L 256 368 Z Z" stroke-miterlimit="10"/></g><g transform="translate(-22,-286) scale(1,1)"><rect fill="#ffffd8" stroke="none" x="256" y="382" width="240" height="402"/></g><g transform="translate(-22,-286) scale(1,1)"><path fill="none" stroke="#000000" d="M 256 382 L 496 382 L 496 784 L 256 784 L 256 382 Z Z" stroke-miterlimit="10"/></g><g transform="translate(-22,-286) scale(1,1)"><g><path fill="none" stroke="none"/><text fill="#000000" stroke="none" font-family="Arial" font-size="13px" font-style="normal" font-weight="bold" text-decoration="none" x="342.408203125" y="401">controllers</text></g></g><g transform="translate(-22,-286) scale(1,1)"><rect fill="#C0C0C0" stroke="none" x="296" y="423" width="173.67724609375" height="44" opacity="0.2"/></g><g transform="translate(-22,-286) scale(1,1)"><rect fill="#d1ffa3" stroke="none" x="289" y="416" width="173.67724609375" height="44"/></g><g transform="translate(-22,-286) scale(1,1)"><path fill="none" stroke="#000000" d="M 289 416 L 462.67724609375 416 L 462.67724609375 460 L 289 460 L 289 416 Z Z" stroke-miterlimit="10"/></g><g transform="translate(-22,-286) scale(1,1)"><g><path fill="none" stroke="none"/><text fill="#000000" stroke="none" font-family="Arial" font-size="13px" font-style="normal" font-weight="bold" text-decoration="none" x="331.900146484375" y="434">SPAController</text></g></g><g transform="translate(-22,-286) scale(1,1)"><rect fill="#C0C0C0" stroke="none" x="535" y="383" width="80" height="15" opacity="0.2"/></g><g transform="translate(-22,-286) scale(1,1)"><rect fill="#C0C0C0" stroke="none" x="535" y="397" width="200" height="394" opacity="0.2"/></g><g transform="translate(-22,-286) scale(1,1)"><rect fill="#ffffd8" stroke="none" x="528" y="391" width="200" height="393"/></g><g transform="translate(-22,-286) scale(1,1)"><path fill="none" stroke="#000000" d="M 528 391 L 728 391 L 728 784 L 528 784 L 528 391 Z Z" stroke-miterlimit="10"/></g><g transform="translate(-22,-286) scale(1,1)"><rect fill="#ffffd8" stroke="none" x="528" y="376" width="80" height="15"/></g><g transform="translate(-22,-286) scale(1,1)"><path fill="none" stroke="#000000" d="M 528 376 L 608 376 L 608 391 L 528 391 L 528 376 Z Z" stroke-miterlimit="10"/></g><g transform="translate(-22,-286) scale(1,1)"><rect fill="#ffffd8" stroke="none" x="528" y="390" width="200" height="394"/></g><g transform="translate(-22,-286) scale(1,1)"><path fill="none" stroke="#000000" d="M 528 390 L 728 390 L 728 784 L 528 784 L 528 390 Z Z" stroke-miterlimit="10"/></g><g transform="translate(-22,-286) scale(1,1)"><g><path fill="none" stroke="none"/><text fill="#000000" stroke="none" font-family="Arial" font-size="13px" font-style="normal" font-weight="bold" text-decoration="none" x="601.974609375" y="409">services</text></g></g><g transform="translate(-22,-286) scale(1,1)"><rect fill="#C0C0C0" stroke="none" x="575" y="626" width="123.15625" height="44" opacity="0.2"/></g><g transform="translate(-22,-286) scale(1,1)"><rect fill="#d1ffa3" stroke="none" x="568" y="619" width="123.15625" height="44"/></g><g transform="translate(-22,-286) scale(1,1)"><path fill="none" stroke="#000000" d="M 568 619 L 691.15625 619 L 691.15625 663 L 568 663 L 568 619 Z Z" stroke-miterlimit="10"/></g><g transform="translate(-22,-286) scale(1,1)"><g><path fill="none" stroke="none"/><text fill="#000000" stroke="none" font-family="Arial" font-size="13px" font-style="normal" font-weight="bold" text-decoration="none" x="572.5" y="637">ClinicFormService</text></g></g><g transform="translate(-22,-286) scale(1,1)"><rect fill="#C0C0C0" stroke="none" x="575" y="491" width="123.15625" height="44" opacity="0.2"/></g><g transform="translate(-22,-286) scale(1,1)"><rect fill="#d1ffa3" stroke="none" x="568" y="484" width="123.15625" height="44"/></g><g transform="translate(-22,-286) scale(1,1)"><path fill="none" stroke="#000000" d="M 568 484 L 691.15625 484 L 691.15625 528 L 568 528 L 568 484 Z Z" stroke-miterlimit="10"/></g><g transform="translate(-22,-286) scale(1,1)"><g><path fill="none" stroke="none"/><text fill="#000000" stroke="none" font-family="Arial" font-size="13px" font-style="normal" font-weight="bold" text-decoration="none" x="575.385009765625" y="502">DiagnosisService</text></g></g><g transform="translate(-22,-286) scale(1,1)"><rect fill="#C0C0C0" stroke="none" x="575" y="694" width="123.15625" height="44" opacity="0.2"/></g><g transform="translate(-22,-286) scale(1,1)"><rect fill="#d1ffa3" stroke="none" x="568" y="687" width="123.15625" height="44"/></g><g transform="translate(-22,-286) scale(1,1)"><path fill="none" stroke="#000000" d="M 568 687 L 691.15625 687 L 691.15625 731 L 568 731 L 568 687 Z Z" stroke-miterlimit="10"/></g><g transform="translate(-22,-286) scale(1,1)"><g><path fill="none" stroke="none"/><text fill="#000000" stroke="none" font-family="Arial" font-size="13px" font-style="normal" font-weight="bold" text-decoration="none" x="591.99365234375" y="705">UserService</text></g></g><g transform="translate(-22,-286) scale(1,1)"><rect fill="#C0C0C0" stroke="none" x="575" y="559" width="123.15625" height="44" opacity="0.2"/></g><g transform="translate(-22,-286) scale(1,1)"><rect fill="#d1ffa3" stroke="none" x="568" y="552" width="123.15625" height="44"/></g><g transform="translate(-22,-286) scale(1,1)"><path fill="none" stroke="#000000" d="M 568 552 L 691.15625 552 L 691.15625 596 L 568 596 L 568 552 Z Z" stroke-miterlimit="10"/></g><g transform="translate(-22,-286) scale(1,1)"><g><path fill="none" stroke="none"/><text fill="#000000" stroke="none" font-family="Arial" font-size="13px" font-style="normal" font-weight="bold" text-decoration="none" x="575.74365234375" y="570">UserFormService</text></g></g><g transform="translate(-22,-286) scale(1,1)"><rect fill="#C0C0C0" stroke="none" x="767" y="383" width="86.39999999999998" height="15" opacity="0.2"/></g><g transform="translate(-22,-286) scale(1,1)"><rect fill="#C0C0C0" stroke="none" x="767" y="397" width="216" height="394" opacity="0.2"/></g><g transform="translate(-22,-286) scale(1,1)"><rect fill="#ffffd8" stroke="none" x="760" y="391" width="216" height="393"/></g><g transform="translate(-22,-286) scale(1,1)"><path fill="none" stroke="#000000" d="M 760 391 L 976 391 L 976 784 L 760 784 L 760 391 Z Z" stroke-miterlimit="10"/></g><g transform="translate(-22,-286) scale(1,1)"><rect fill="#ffffd8" stroke="none" x="760" y="376" width="86.39999999999998" height="15"/></g><g transform="translate(-22,-286) scale(1,1)"><path fill="none" stroke="#000000" d="M 760 376 L 846.4 376 L 846.4 391 L 760 391 L 760 376 Z Z" stroke-miterlimit="10"/></g><g transform="translate(-22,-286) scale(1,1)"><rect fill="#ffffd8" stroke="none" x="760" y="390" width="216" height="394"/></g><g transform="translate(-22,-286) scale(1,1)"><path fill="none" stroke="#000000" d="M 760 390 L 976 390 L 976 784 L 760 784 L 760 390 Z Z" stroke-miterlimit="10"/></g><g transform="translate(-22,-286) scale(1,1)"><g><path fill="none" stroke="none"/><text fill="#000000" stroke="none" font-family="Arial" font-size="13px" font-style="normal" font-weight="bold" text-decoration="none" x="836.214111328125" y="409">repository</text></g></g><g transform="translate(-22,-286) scale(1,1)"><rect fill="#C0C0C0" stroke="none" x="802" y="583" width="152.025390625" height="44" opacity="0.2"/></g><g transform="translate(-22,-286) scale(1,1)"><rect fill="#d1ffa3" stroke="none" x="795" y="576" width="152.025390625" height="44"/></g><g transform="translate(-22,-286) scale(1,1)"><path fill="none" stroke="#000000" d="M 795 576 L 947.025390625 576 L 947.025390625 620 L 795 620 L 795 576 Z Z" stroke-miterlimit="10"/></g><g transform="translate(-22,-286) scale(1,1)"><g><path fill="none" stroke="none"/><text fill="#000000" stroke="none" font-family="Arial" font-size="13px" font-style="normal" font-weight="bold" text-decoration="none" x="799.5" y="594">ClinicForm2Repository</text></g></g><g transform="translate(-22,-286) scale(1,1)"><rect fill="#C0C0C0" stroke="none" x="802" y="447" width="152.025390625" height="44" opacity="0.2"/></g><g transform="translate(-22,-286) scale(1,1)"><rect fill="#d1ffa3" stroke="none" x="795" y="440" width="152.025390625" height="44"/></g><g transform="translate(-22,-286) scale(1,1)"><path fill="none" stroke="#000000" d="M 795 440 L 947.025390625 440 L 947.025390625 484 L 795 484 L 795 440 Z Z" stroke-miterlimit="10"/></g><g transform="translate(-22,-286) scale(1,1)"><g><path fill="none" stroke="none"/><text fill="#000000" stroke="none" font-family="Arial" font-size="13px" font-style="normal" font-weight="bold" text-decoration="none" x="806" y="458">DiagnosisRepository</text></g></g><g transform="translate(-22,-286) scale(1,1)"><rect fill="#C0C0C0" stroke="none" x="802" y="515" width="152.025390625" height="44" opacity="0.2"/></g><g transform="translate(-22,-286) scale(1,1)"><rect fill="#d1ffa3" stroke="none" x="795" y="508" width="152.025390625" height="44"/></g><g transform="translate(-22,-286) scale(1,1)"><path fill="none" stroke="#000000" d="M 795 508 L 947.025390625 508 L 947.025390625 552 L 795 552 L 795 508 Z Z" stroke-miterlimit="10"/></g><g transform="translate(-22,-286) scale(1,1)"><g><path fill="none" stroke="none"/><text fill="#000000" stroke="none" font-family="Arial" font-size="13px" font-style="normal" font-weight="bold" text-decoration="none" x="806.358642578125" y="526">UserFormRepository</text></g></g><g transform="translate(-22,-286) scale(1,1)"><rect fill="#C0C0C0" stroke="none" x="802" y="719" width="152.025390625" height="44" opacity="0.2"/></g><g transform="translate(-22,-286) scale(1,1)"><rect fill="#d1ffa3" stroke="none" x="795" y="712" width="152.025390625" height="44"/></g><g transform="translate(-22,-286) scale(1,1)"><path fill="none" stroke="#000000" d="M 795 712 L 947.025390625 712 L 947.025390625 756 L 795 756 L 795 712 Z Z" stroke-miterlimit="10"/></g><g transform="translate(-22,-286) scale(1,1)"><g><path fill="none" stroke="none"/><text fill="#000000" stroke="none" font-family="Arial" font-size="13px" font-style="normal" font-weight="bold" text-decoration="none" x="822.608642578125" y="730">UserRepository</text></g></g><g transform="translate(-22,-286) scale(1,1)"><rect fill="#C0C0C0" stroke="none" x="1023" y="383" width="54.40000000000009" height="15" opacity="0.2"/></g><g transform="translate(-22,-286) scale(1,1)"><rect fill="#C0C0C0" stroke="none" x="1023" y="397" width="136" height="90" opacity="0.2"/></g><g transform="translate(-22,-286) scale(1,1)"><rect fill="#ffd8ff" stroke="none" x="1016" y="391" width="136" height="89"/></g><g transform="translate(-22,-286) scale(1,1)"><path fill="none" stroke="#000000" d="M 1016 391 L 1152 391 L 1152 480 L 1016 480 L 1016 391 Z Z" stroke-miterlimit="10"/></g><g transform="translate(-22,-286) scale(1,1)"><rect fill="#ffd8ff" stroke="none" x="1016" y="376" width="54.40000000000009" height="15"/></g><g transform="translate(-22,-286) scale(1,1)"><path fill="none" stroke="#000000" d="M 1016 376 L 1070.4 376 L 1070.4 391 L 1016 391 L 1016 376 Z Z" stroke-miterlimit="10"/></g><g transform="translate(-22,-286) scale(1,1)"><rect fill="#ffd8ff" stroke="none" x="1016" y="390" width="136" height="90"/></g><g transform="translate(-22,-286) scale(1,1)"><path fill="none" stroke="#000000" d="M 1016 390 L 1152 390 L 1152 480 L 1016 480 L 1016 390 Z Z" stroke-miterlimit="10"/></g><g transform="translate(-22,-286) scale(1,1)"><g><path fill="none" stroke="none"/><text fill="#000000" stroke="none" font-family="Arial" font-size="13px" font-style="normal" font-weight="bold" text-decoration="none" x="1055.095947265625" y="409">Database</text></g></g><g transform="translate(-22,-286) scale(1,1)"><rect fill="#C0C0C0" stroke="none" x="1063" y="431" width="53.78271484375" height="44" opacity="0.2"/></g><g transform="translate(-22,-286) scale(1,1)"><rect fill="#ffa3ff" stroke="none" x="1056" y="424" width="53.78271484375" height="44"/></g><g transform="translate(-22,-286) scale(1,1)"><path fill="none" stroke="#000000" d="M 1056 424 L 1109.78271484375 424 L 1109.78271484375 468 L 1056 468 L 1056 424 Z Z" stroke-miterlimit="10"/></g><g transform="translate(-22,-286) scale(1,1)"><g><path fill="none" stroke="none"/><text fill="#000000" stroke="none" font-family="Arial" font-size="13px" font-style="normal" font-weight="bold" text-decoration="none" x="1060.5" y="442">MySQL</text></g></g><g transform="translate(-22,-286) scale(1,1)"><rect fill="#C0C0C0" stroke="none" x="111" y="423" width="50.919921875" height="44" opacity="0.2"/></g><g transform="translate(-22,-286) scale(1,1)"><rect fill="#ffa3ff" stroke="none" x="104" y="416" width="50.919921875" height="44"/></g><g transform="translate(-22,-286) scale(1,1)"><path fill="none" stroke="#000000" d="M 104 416 L 154.919921875 416 L 154.919921875 460 L 104 460 L 104 416 Z Z" stroke-miterlimit="10"/></g><g transform="translate(-22,-286) scale(1,1)"><g><path fill="none" stroke="none"/><text fill="#000000" stroke="none" font-family="Arial" font-size="13px" font-style="normal" font-weight="bold" text-decoration="none" x="114.76513671875" y="434">View</text></g></g><g transform="translate(-22,-286) scale(1,1)"><path fill="none" stroke="#000000" d="M 976 440 L 1016 440" stroke-miterlimit="10" stroke-dasharray="3"/></g><g transform="translate(-22,-286) scale(1,1)"><path fill="none" stroke="#000000" d="M 1005.8373251423759 444.209517756016 L 1016 440 L 1005.8373251423758 435.790482243984" stroke-miterlimit="10"/></g><g transform="translate(-22,-286) scale(1,1)"><path fill="none" stroke="#000000" d="M 289 438 L 155 438" stroke-miterlimit="10"/></g><g transform="translate(-22,-286) scale(1,1)"><path fill="none" stroke="#000000" d="M 165.16267485762415 433.790482243984 L 155 438 L 165.16267485762415 442.209517756016" stroke-miterlimit="10"/></g><g transform="translate(-22,-286) scale(1,1)"><rect fill="#C0C0C0" stroke="none" x="296" y="491" width="173.67724609375" height="44" opacity="0.2"/></g><g transform="translate(-22,-286) scale(1,1)"><rect fill="#d1ffa3" stroke="none" x="289" y="484" width="173.67724609375" height="44"/></g><g transform="translate(-22,-286) scale(1,1)"><path fill="none" stroke="#000000" d="M 289 484 L 462.67724609375 484 L 462.67724609375 528 L 289 528 L 289 484 Z Z" stroke-miterlimit="10"/></g><g transform="translate(-22,-286) scale(1,1)"><g><path fill="none" stroke="none"/><text fill="#000000" stroke="none" font-family="Arial" font-size="13px" font-style="normal" font-weight="bold" text-decoration="none" x="296.385009765625" y="502">DiagnosisRESTController</text></g></g><g transform="translate(-22,-286) scale(1,1)"><rect fill="#C0C0C0" stroke="none" x="103" y="583" width="68.95361328125" height="44" opacity="0.2"/></g><g transform="translate(-22,-286) scale(1,1)"><rect fill="#ffadad" stroke="none" x="96" y="576" width="68.95361328125" height="44"/></g><g transform="translate(-22,-286) scale(1,1)"><path fill="none" stroke="#000000" d="M 96 576 L 164.95361328125 576 L 164.95361328125 620 L 96 620 L 96 576 Z Z" stroke-miterlimit="10"/></g><g transform="translate(-22,-286) scale(1,1)"><path fill="none" stroke="#000000" d="M 96 601 L 164.95361328125 601" stroke-miterlimit="10"/></g><g transform="translate(-22,-286) scale(1,1)"><path fill="none" stroke="#000000" d="M 96 611 L 164.95361328125 611" stroke-miterlimit="10"/></g><g transform="translate(-22,-286) scale(1,1)"><g><path fill="none" stroke="none"/><text fill="#000000" stroke="none" font-family="Arial" font-size="13px" font-style="normal" font-weight="bold" text-decoration="none" x="100.5" y="594">API REST</text></g></g><g transform="translate(-22,-286) scale(1,1)"><path fill="none" stroke="#000000" d="M 128 460 L 128 576" stroke-miterlimit="10" stroke-dasharray="3"/></g><g transform="translate(-22,-286) scale(1,1)"><path fill="none" stroke="#000000" d="M 123.79048224398402 565.8373251423759 L 128 576 L 132.209517756016 565.8373251423759" stroke-miterlimit="10"/></g><g transform="translate(-22,-286) scale(1,1)"><path fill="none" stroke="#000000" d="M 165 600 L 200 600 L 200 640 L 289 640" stroke-miterlimit="10"/></g><g transform="translate(-22,-286) scale(1,1)"><path fill="none" stroke="#000000" d="M 278.83732514237585 644.209517756016 L 289 640 L 278.83732514237585 635.790482243984" stroke-miterlimit="10"/></g><g transform="translate(-22,-286) scale(1,1)"><path fill="none" stroke="#000000" d="M 165 600 L 200 600 L 200 512 L 289 512" stroke-miterlimit="10"/></g><g transform="translate(-22,-286) scale(1,1)"><path fill="none" stroke="#000000" d="M 278.83732514237585 516.209517756016 L 289 512 L 278.83732514237585 507.790482243984" stroke-miterlimit="10"/></g><g transform="translate(-22,-286) scale(1,1)"><path fill="none" stroke="#000000" d="M 165 600 L 200 600 L 200 576 L 289 576" stroke-miterlimit="10"/></g><g transform="translate(-22,-286) scale(1,1)"><path fill="none" stroke="#000000" d="M 278.83732514237585 580.209517756016 L 289 576 L 278.83732514237585 571.790482243984" stroke-miterlimit="10"/></g><g transform="translate(-22,-286) scale(1,1)"><path fill="none" stroke="#000000" d="M 165 600 L 200 600 L 200 709 L 289 709" stroke-miterlimit="10"/></g><g transform="translate(-22,-286) scale(1,1)"><path fill="none" stroke="#000000" d="M 278.83732514237585 713.209517756016 L 289 709 L 278.83732514237585 704.790482243984" stroke-miterlimit="10"/></g><g transform="translate(-22,-286) scale(1,1)"><path fill="none" stroke="#000000" d="M 463 648 L 568 648" stroke-miterlimit="10"/></g><g transform="translate(-22,-286) scale(1,1)"><path fill="none" stroke="#000000" d="M 557.8373251423759 652.209517756016 L 568 648 L 557.8373251423758 643.790482243984" stroke-miterlimit="10"/></g><g transform="translate(-22,-286) scale(1,1)"><path fill="none" stroke="#000000" d="M 463 506 L 568 506" stroke-miterlimit="10"/></g><g transform="translate(-22,-286) scale(1,1)"><path fill="none" stroke="#000000" d="M 557.8373251423759 510.209517756016 L 568 506 L 557.8373251423758 501.790482243984" stroke-miterlimit="10"/></g><g transform="translate(-22,-286) scale(1,1)"><path fill="none" stroke="#000000" d="M 463 576 L 568 576" stroke-miterlimit="10"/></g><g transform="translate(-22,-286) scale(1,1)"><path fill="none" stroke="#000000" d="M 557.8373251423759 580.209517756016 L 568 576 L 557.8373251423758 571.790482243984" stroke-miterlimit="10"/></g><g transform="translate(-22,-286) scale(1,1)"><path fill="none" stroke="#000000" d="M 463 712 L 568 712" stroke-miterlimit="10"/></g><g transform="translate(-22,-286) scale(1,1)"><path fill="none" stroke="#000000" d="M 557.8373251423759 716.209517756016 L 568 712 L 557.8373251423758 707.790482243984" stroke-miterlimit="10"/></g><g transform="translate(-22,-286) scale(1,1)"><path fill="none" stroke="#000000" d="M 691 640 L 744 640 L 744 664 L 795 664" stroke-miterlimit="10"/></g><g transform="translate(-22,-286) scale(1,1)"><path fill="none" stroke="#000000" d="M 784.8373251423759 668.209517756016 L 795 664 L 784.8373251423758 659.790482243984" stroke-miterlimit="10"/></g><g transform="translate(-22,-286) scale(1,1)"><path fill="none" stroke="#000000" d="M 691 640 L 744 640 L 744 600 L 795 600" stroke-miterlimit="10"/></g><g transform="translate(-22,-286) scale(1,1)"><path fill="none" stroke="#000000" d="M 784.8373251423759 604.209517756016 L 795 600 L 784.8373251423758 595.790482243984" stroke-miterlimit="10"/></g><g transform="translate(-22,-286) scale(1,1)"><path fill="none" stroke="#000000" d="M 691 504 L 744 504 L 744 464 L 795 464" stroke-miterlimit="10"/></g><g transform="translate(-22,-286) scale(1,1)"><path fill="none" stroke="#000000" d="M 784.8373251423759 468.209517756016 L 795 464 L 784.8373251423758 459.790482243984" stroke-miterlimit="10"/></g><g transform="translate(-22,-286) scale(1,1)"><path fill="none" stroke="#000000" d="M 691 576 L 744 576 L 744 528 L 795 528" stroke-miterlimit="10"/></g><g transform="translate(-22,-286) scale(1,1)"><path fill="none" stroke="#000000" d="M 784.8373251423759 532.209517756016 L 795 528 L 784.8373251423758 523.790482243984" stroke-miterlimit="10"/></g><g transform="translate(-22,-286) scale(1,1)"><path fill="none" stroke="#000000" d="M 691 712 L 776 712 L 776 736 L 795 736" stroke-miterlimit="10"/></g><g transform="translate(-22,-286) scale(1,1)"><path fill="none" stroke="#000000" d="M 784.8373251423759 740.209517756016 L 795 736 L 784.8373251423758 731.790482243984" stroke-miterlimit="10"/></g><g transform="translate(-22,-286) scale(1,1)"><path fill="none" stroke="#000000" d="M 463 648 L 480 648 L 480 680 L 544 680 L 544 712 L 568 712" stroke-miterlimit="10"/></g><g transform="translate(-22,-286) scale(1,1)"><path fill="none" stroke="#000000" d="M 557.8373251423759 716.209517756016 L 568 712 L 557.8373251423758 707.790482243984" stroke-miterlimit="10"/></g><g transform="translate(-22,-286) scale(1,1)"><rect fill="#C0C0C0" stroke="none" x="296" y="559" width="173.67724609375" height="44" opacity="0.2"/></g><g transform="translate(-22,-286) scale(1,1)"><rect fill="#d1ffa3" stroke="none" x="289" y="552" width="173.67724609375" height="44"/></g><g transform="translate(-22,-286) scale(1,1)"><path fill="none" stroke="#000000" d="M 289 552 L 462.67724609375 552 L 462.67724609375 596 L 289 596 L 289 552 Z Z" stroke-miterlimit="10"/></g><g transform="translate(-22,-286) scale(1,1)"><g><path fill="none" stroke="none"/><text fill="#000000" stroke="none" font-family="Arial" font-size="13px" font-style="normal" font-weight="bold" text-decoration="none" x="296.74365234375" y="570">UserFormRESTController</text></g></g><g transform="translate(-22,-286) scale(1,1)"><rect fill="#C0C0C0" stroke="none" x="296" y="694" width="173.67724609375" height="44" opacity="0.2"/></g><g transform="translate(-22,-286) scale(1,1)"><rect fill="#d1ffa3" stroke="none" x="289" y="687" width="173.67724609375" height="44"/></g><g transform="translate(-22,-286) scale(1,1)"><path fill="none" stroke="#000000" d="M 289 687 L 462.67724609375 687 L 462.67724609375 731 L 289 731 L 289 687 Z Z" stroke-miterlimit="10"/></g><g transform="translate(-22,-286) scale(1,1)"><g><path fill="none" stroke="none"/><text fill="#000000" stroke="none" font-family="Arial" font-size="13px" font-style="normal" font-weight="bold" text-decoration="none" x="312.99365234375" y="705">UserRESTController</text></g></g><g transform="translate(-22,-286) scale(1,1)"><rect fill="#C0C0C0" stroke="none" x="296" y="626" width="173.67724609375" height="44" opacity="0.2"/></g><g transform="translate(-22,-286) scale(1,1)"><rect fill="#d1ffa3" stroke="none" x="289" y="619" width="173.67724609375" height="44"/></g><g transform="translate(-22,-286) scale(1,1)"><path fill="none" stroke="#000000" d="M 289 619 L 462.67724609375 619 L 462.67724609375 663 L 289 663 L 289 619 Z Z" stroke-miterlimit="10"/></g><g transform="translate(-22,-286) scale(1,1)"><g><path fill="none" stroke="none"/><text fill="#000000" stroke="none" font-family="Arial" font-size="13px" font-style="normal" font-weight="bold" text-decoration="none" x="293.5" y="637">ClinicFormRESTController</text></g></g><g transform="translate(-22,-286) scale(1,1)"><rect fill="#C0C0C0" stroke="none" x="802" y="651" width="152.025390625" height="44" opacity="0.2"/></g><g transform="translate(-22,-286) scale(1,1)"><rect fill="#d1ffa3" stroke="none" x="795" y="644" width="152.025390625" height="44"/></g><g transform="translate(-22,-286) scale(1,1)"><path fill="none" stroke="#000000" d="M 795 644 L 947.025390625 644 L 947.025390625 688 L 795 688 L 795 644 Z Z" stroke-miterlimit="10"/></g><g transform="translate(-22,-286) scale(1,1)"><g><path fill="none" stroke="none"/><text fill="#000000" stroke="none" font-family="Arial" font-size="13px" font-style="normal" font-weight="bold" text-decoration="none" x="799.5" y="662">ClinicForm1Repository</text></g></g><g transform="translate(-22,-286) scale(1,1)"><path fill="none" stroke="#000000" d="M 691 504 L 712 504 L 712 696 L 776 696 L 776 736 L 795 736" stroke-miterlimit="10"/></g><g transform="translate(-22,-286) scale(1,1)"><path fill="none" stroke="#000000" d="M 784.8373251423759 740.209517756016 L 795 736 L 784.8373251423758 731.790482243984" stroke-miterlimit="10"/></g></g></svg>