<svg xmlns="http://www.w3.org/2000/svg" xmlns:xlink="http://www.w3.org/1999/xlink" version="1.1" width="499" height="244"><defs/><g><g transform="translate(2,-14) scale(1,1)"><rect fill="#ffffff" stroke="none" x="8" y="24" width="479" height="224"/></g><g transform="translate(2,-14) scale(1,1)"><path fill="none" stroke="#000000" d="M 8 24 L 487 24 L 487 248 L 8 248 L 8 24 Z Z" stroke-miterlimit="10"/></g><g transform="translate(2,-14) scale(1,1)"><rect fill="#C0C0C0" stroke="none" x="207" y="66" width="96" height="40" opacity="0.2"/></g><g transform="translate(2,-14) scale(1,1)"><rect fill="#d1ffa3" stroke="none" x="200" y="59" width="96" height="40"/></g><g transform="translate(2,-14) scale(1,1)"><path fill="none" stroke="#000000" d="M 200 59 L 296 59 L 296 99 L 200 99 L 200 59 Z Z" stroke-miterlimit="10"/></g><g transform="translate(2,-14) scale(1,1)"><g><path fill="none" stroke="none"/><text fill="#000000" stroke="none" font-family="Arial" font-size="13px" font-style="normal" font-weight="bold" text-decoration="none" x="233.54638671875" y="75">User</text></g></g><g transform="translate(2,-14) scale(1,1)"><rect fill="#C0C0C0" stroke="none" x="375" y="66" width="96" height="40" opacity="0.2"/></g><g transform="translate(2,-14) scale(1,1)"><rect fill="#ffa3ff" stroke="none" x="368" y="59" width="96" height="40"/></g><g transform="translate(2,-14) scale(1,1)"><path fill="none" stroke="#000000" d="M 368 59 L 464 59 L 464 99 L 368 99 L 368 59 Z Z" stroke-miterlimit="10"/></g><g transform="translate(2,-14) scale(1,1)"><g><path fill="none" stroke="none"/><text fill="#000000" stroke="none" font-family="Arial" font-size="13px" font-style="normal" font-weight="bold" text-decoration="none" x="385.29638671875" y="75">UserForm</text></g></g><g transform="translate(2,-14) scale(1,1)"><rect fill="#C0C0C0" stroke="none" x="39" y="66" width="96" height="40" opacity="0.2"/></g><g transform="translate(2,-14) scale(1,1)"><rect fill="#ffa3ff" stroke="none" x="32" y="59" width="96" height="40"/></g><g transform="translate(2,-14) scale(1,1)"><path fill="none" stroke="#000000" d="M 32 59 L 128 59 L 128 99 L 32 99 L 32 59 Z Z" stroke-miterlimit="10"/></g><g transform="translate(2,-14) scale(1,1)"><g><path fill="none" stroke="none"/><text fill="#000000" stroke="none" font-family="Arial" font-size="13px" font-style="normal" font-weight="bold" text-decoration="none" x="48.937744140625" y="75">Diagnosis</text></g></g><g transform="translate(2,-14) scale(1,1)"><rect fill="#C0C0C0" stroke="none" x="143" y="183" width="96" height="40" opacity="0.2"/></g><g transform="translate(2,-14) scale(1,1)"><rect fill="#ffff91" stroke="none" x="136" y="176" width="96" height="40"/></g><g transform="translate(2,-14) scale(1,1)"><path fill="none" stroke="#000000" d="M 136 176 L 232 176 L 232 216 L 136 216 L 136 176 Z Z" stroke-miterlimit="10"/></g><g transform="translate(2,-14) scale(1,1)"><g><path fill="none" stroke="none"/><text fill="#000000" stroke="none" font-family="Arial" font-size="13px" font-style="normal" font-weight="bold" text-decoration="none" x="146.437744140625" y="192">ClinicForm1</text></g></g><g transform="translate(2,-14) scale(1,1)"><rect fill="#C0C0C0" stroke="none" x="271" y="183" width="96" height="40" opacity="0.2"/></g><g transform="translate(2,-14) scale(1,1)"><rect fill="#ffff91" stroke="none" x="264" y="176" width="96" height="40"/></g><g transform="translate(2,-14) scale(1,1)"><path fill="none" stroke="#000000" d="M 264 176 L 360 176 L 360 216 L 264 216 L 264 176 Z Z" stroke-miterlimit="10"/></g><g transform="translate(2,-14) scale(1,1)"><g><path fill="none" stroke="none"/><text fill="#000000" stroke="none" font-family="Arial" font-size="13px" font-style="normal" font-weight="bold" text-decoration="none" x="274.437744140625" y="192">ClinicForm2</text></g></g><g transform="translate(2,-14) scale(1,1)"><path fill="none" stroke="#000000" d="M 200 80 L 128 80" stroke-miterlimit="10"/></g><g transform="translate(2,-14) scale(1,1)"><path fill="none" stroke="#000000" d="M 142 80 L 128 73" stroke-miterlimit="10"/></g><g transform="translate(2,-14) scale(1,1)"><path fill="none" stroke="#000000" d="M 142 80 L 128 87" stroke-miterlimit="10"/></g><g transform="translate(2,-14) scale(1,1)"><path fill="#FFFFFF" stroke="none" d="M 143 80 C 143 76.1340064 146.1340064 73 150 73 C 153.8659936 73 157 76.1340064 157 80 C 157 83.8659936 153.8659936 87 150 87 C 146.1340064 87 143 83.8659936 143 80 Z"/></g><g transform="translate(2,-14) scale(1,1)"><path fill="none" stroke="#000000" d="M 143 80 C 143 76.1340064 146.1340064 73 150 73 C 153.8659936 73 157 76.1340064 157 80 C 157 83.8659936 153.8659936 87 150 87 C 146.1340064 87 143 83.8659936 143 80 Z" stroke-miterlimit="10"/></g><g transform="translate(2,-14) scale(1,1)"><path fill="none" stroke="#000000" d="M 193 87 L 193 73" stroke-miterlimit="10"/></g><g transform="translate(2,-14) scale(1,1)"><path fill="none" stroke="#000000" d="M 186 87 L 186 73" stroke-miterlimit="10"/></g><g transform="translate(2,-14) scale(1,1)"><g><path fill="none" stroke="none"/><text fill="#000000" stroke="none" font-family="Arial" font-size="13px" font-style="normal" font-weight="normal" text-decoration="none" x="173.5" y="94"/></g></g><g transform="translate(2,-14) scale(1,1)"><g><path fill="none" stroke="none"/><text fill="#000000" stroke="none" font-family="Arial" font-size="13px" font-style="normal" font-weight="normal" text-decoration="none" x="152.5" y="94"/></g></g><g transform="translate(2,-14) scale(1,1)"><path fill="none" stroke="#000000" d="M 296 80 L 368 80" stroke-miterlimit="10"/></g><g transform="translate(2,-14) scale(1,1)"><path fill="none" stroke="#000000" d="M 354 80 L 368 87" stroke-miterlimit="10"/></g><g transform="translate(2,-14) scale(1,1)"><path fill="none" stroke="#000000" d="M 354 80 L 368 73" stroke-miterlimit="10"/></g><g transform="translate(2,-14) scale(1,1)"><path fill="#FFFFFF" stroke="none" d="M 339 80 C 339 76.1340064 342.1340064 73 346 73 C 349.8659936 73 353 76.1340064 353 80 C 353 83.8659936 349.8659936 87 346 87 C 342.1340064 87 339 83.8659936 339 80 Z"/></g><g transform="translate(2,-14) scale(1,1)"><path fill="none" stroke="#000000" d="M 339 80 C 339 76.1340064 342.1340064 73 346 73 C 349.8659936 73 353 76.1340064 353 80 C 353 83.8659936 349.8659936 87 346 87 C 342.1340064 87 339 83.8659936 339 80 Z" stroke-miterlimit="10"/></g><g transform="translate(2,-14) scale(1,1)"><path fill="none" stroke="#000000" d="M 303 73 L 303 87" stroke-miterlimit="10"/></g><g transform="translate(2,-14) scale(1,1)"><path fill="none" stroke="#000000" d="M 310 73 L 310 87" stroke-miterlimit="10"/></g><g transform="translate(2,-14) scale(1,1)"><g><path fill="none" stroke="none"/><text fill="#000000" stroke="none" font-family="Arial" font-size="13px" font-style="normal" font-weight="normal" text-decoration="none" x="320.5" y="65"/></g></g><g transform="translate(2,-14) scale(1,1)"><g><path fill="none" stroke="none"/><text fill="#000000" stroke="none" font-family="Arial" font-size="13px" font-style="normal" font-weight="normal" text-decoration="none" x="341.5" y="65"/></g></g><g transform="translate(2,-14) scale(1,1)"><path fill="none" stroke="#000000" d="M 176 176 L 176 152 M 176 152 A 8 8 0 0 1 184 144 L 240 144 M 240 144 A 8 8 0 0 0 248 136 L 248 99" stroke-miterlimit="10"/></g><g transform="translate(2,-14) scale(1,1)"><path fill="none" stroke="#000000" d="M 248 113 L 255 99" stroke-miterlimit="10"/></g><g transform="translate(2,-14) scale(1,1)"><path fill="none" stroke="#000000" d="M 248 113 L 241 99" stroke-miterlimit="10"/></g><g transform="translate(2,-14) scale(1,1)"><path fill="#FFFFFF" stroke="none" d="M 241 121 C 241 117.1340064 244.1340064 114 248 114 C 251.8659936 114 255 117.1340064 255 121 C 255 124.8659936 251.8659936 128 248 128 C 244.1340064 128 241 124.8659936 241 121 Z"/></g><g transform="translate(2,-14) scale(1,1)"><path fill="none" stroke="#000000" d="M 241 121 C 241 117.1340064 244.1340064 114 248 114 C 251.8659936 114 255 117.1340064 255 121 C 255 124.8659936 251.8659936 128 248 128 C 244.1340064 128 241 124.8659936 241 121 Z" stroke-miterlimit="10"/></g><g transform="translate(2,-14) scale(1,1)"><path fill="none" stroke="#000000" d="M 169 169 L 183 169" stroke-miterlimit="10"/></g><g transform="translate(2,-14) scale(1,1)"><path fill="none" stroke="#000000" d="M 169 162 L 183 162" stroke-miterlimit="10"/></g><g transform="translate(2,-14) scale(1,1)"><g><path fill="none" stroke="none"/><text fill="#000000" stroke="none" font-family="Arial" font-size="13px" font-style="normal" font-weight="normal" text-decoration="none" x="160.5" y="150"/></g></g><g transform="translate(2,-14) scale(1,1)"><g><path fill="none" stroke="none"/><text fill="#000000" stroke="none" font-family="Arial" font-size="13px" font-style="normal" font-weight="normal" text-decoration="none" x="232.5" y="124"/></g></g><g transform="translate(2,-14) scale(1,1)"><path fill="none" stroke="#000000" d="M 312 176 L 312 152 M 312 152 A 8 8 0 0 0 304 144 L 256 144 M 256 144 A 8 8 0 0 1 248 136 L 248 99" stroke-miterlimit="10"/></g><g transform="translate(2,-14) scale(1,1)"><path fill="none" stroke="#000000" d="M 248 113 L 255 99" stroke-miterlimit="10"/></g><g transform="translate(2,-14) scale(1,1)"><path fill="none" stroke="#000000" d="M 248 113 L 241 99" stroke-miterlimit="10"/></g><g transform="translate(2,-14) scale(1,1)"><path fill="#FFFFFF" stroke="none" d="M 241 121 C 241 117.1340064 244.1340064 114 248 114 C 251.8659936 114 255 117.1340064 255 121 C 255 124.8659936 251.8659936 128 248 128 C 244.1340064 128 241 124.8659936 241 121 Z"/></g><g transform="translate(2,-14) scale(1,1)"><path fill="none" stroke="#000000" d="M 241 121 C 241 117.1340064 244.1340064 114 248 114 C 251.8659936 114 255 117.1340064 255 121 C 255 124.8659936 251.8659936 128 248 128 C 244.1340064 128 241 124.8659936 241 121 Z" stroke-miterlimit="10"/></g><g transform="translate(2,-14) scale(1,1)"><path fill="none" stroke="#000000" d="M 305 169 L 319 169" stroke-miterlimit="10"/></g><g transform="translate(2,-14) scale(1,1)"><path fill="none" stroke="#000000" d="M 305 162 L 319 162" stroke-miterlimit="10"/></g><g transform="translate(2,-14) scale(1,1)"><g><path fill="none" stroke="none"/><text fill="#000000" stroke="none" font-family="Arial" font-size="13px" font-style="normal" font-weight="normal" text-decoration="none" x="296.5" y="150"/></g></g><g transform="translate(2,-14) scale(1,1)"><g><path fill="none" stroke="none"/><text fill="#000000" stroke="none" font-family="Arial" font-size="13px" font-style="normal" font-weight="normal" text-decoration="none" x="232.5" y="124"/></g></g></g></svg>