<svg xmlns="http://www.w3.org/2000/svg" xmlns:xlink="http://www.w3.org/1999/xlink" version="1.1" width="403" height="124"><defs/><g><g transform="translate(-38,-38) scale(1,1)"><rect fill="#ffffff" stroke="none" x="48" y="48" width="383" height="104"/></g><g transform="translate(-38,-38) scale(1,1)"><path fill="none" stroke="#000000" d="M 48 48 L 431 48 L 431 152 L 48 152 L 48 48 Z Z" stroke-miterlimit="10"/></g><g transform="translate(-38,-38) scale(1,1)"><rect fill="#C0C0C0" stroke="none" x="87" y="87" width="96" height="35" opacity="0.2"/></g><g transform="translate(-38,-38) scale(1,1)"><rect fill="#ebffd8" stroke="none" x="80" y="80" width="96" height="35"/></g><g transform="translate(-38,-38) scale(1,1)"><path fill="none" stroke="#000000" d="M 80 80 L 176 80 L 176 115 L 80 115 L 80 80 Z Z" stroke-miterlimit="10"/></g><g transform="translate(-38,-38) scale(1,1)"><g><path fill="none" stroke="none"/><text fill="#000000" stroke="none" font-family="Arial" font-size="13px" font-style="normal" font-weight="bold" text-decoration="none" x="90.793212890625" y="96">Patient user</text></g></g><g transform="translate(-38,-38) scale(1,1)"><rect fill="#C0C0C0" stroke="none" x="303" y="87" width="96" height="35" opacity="0.2"/></g><g transform="translate(-38,-38) scale(1,1)"><rect fill="#ebffd8" stroke="none" x="296" y="80" width="96" height="35"/></g><g transform="translate(-38,-38) scale(1,1)"><path fill="none" stroke="#000000" d="M 296 80 L 392 80 L 392 115 L 296 115 L 296 80 Z Z" stroke-miterlimit="10"/></g><g transform="translate(-38,-38) scale(1,1)"><g><path fill="none" stroke="none"/><text fill="#000000" stroke="none" font-family="Arial" font-size="13px" font-style="normal" font-weight="bold" text-decoration="none" x="310.766845703125" y="96">Clinic user</text></g></g><g transform="translate(-38,-38) scale(1,1)"><path fill="none" stroke="#000000" d="M 296 96 L 176 96" stroke-miterlimit="10"/></g><g transform="translate(-38,-38) scale(1,1)"><path fill="none" stroke="#000000" d="M 190 96 L 176 89" stroke-miterlimit="10"/></g><g transform="translate(-38,-38) scale(1,1)"><path fill="none" stroke="#000000" d="M 190 96 L 176 103" stroke-miterlimit="10"/></g><g transform="translate(-38,-38) scale(1,1)"><path fill="#FFFFFF" stroke="none" d="M 191 96 C 191 92.1340064 194.1340064 89 198 89 C 201.8659936 89 205 92.1340064 205 96 C 205 99.8659936 201.8659936 103 198 103 C 194.1340064 103 191 99.8659936 191 96 Z"/></g><g transform="translate(-38,-38) scale(1,1)"><path fill="none" stroke="#000000" d="M 191 96 C 191 92.1340064 194.1340064 89 198 89 C 201.8659936 89 205 92.1340064 205 96 C 205 99.8659936 201.8659936 103 198 103 C 194.1340064 103 191 99.8659936 191 96 Z" stroke-miterlimit="10"/></g><g transform="translate(-38,-38) scale(1,1)"><path fill="none" stroke="#000000" d="M 289 103 L 289 89" stroke-miterlimit="10"/></g><g transform="translate(-38,-38) scale(1,1)"><path fill="none" stroke="#000000" d="M 282 103 L 282 89" stroke-miterlimit="10"/></g><g transform="translate(-38,-38) scale(1,1)"><g><path fill="none" stroke="none"/><text fill="#000000" stroke="none" font-family="Arial" font-size="13px" font-style="normal" font-weight="normal" text-decoration="none" x="269.5" y="110"/></g></g><g transform="translate(-38,-38) scale(1,1)"><g><path fill="none" stroke="none"/><text fill="#000000" stroke="none" font-family="Arial" font-size="13px" font-style="normal" font-weight="normal" text-decoration="none" x="200.5" y="110"/></g></g></g></svg>